<svg width="884" height="798" viewBox="0 0 884 798" fill="none" xmlns="http://www.w3.org/2000/svg">
<rect x="1.5" y="1.49951" width="881" height="795" fill="white" stroke="black" stroke-width="3"/>
<path d="M139.938 182.663L154.473 180.341C160.245 179.419 165.472 183.877 165.472 189.722V200.905C165.472 206.616 160.469 211.037 154.802 210.333L140.623 208.572C136.045 208.003 132.537 204.228 132.305 199.62L131.949 192.521C131.706 187.677 135.15 183.428 139.938 182.663Z" fill="#D9D9D9" stroke="black"/>
<rect x="0.560887" y="0.40664" width="37.2459" height="4.57246" transform="matrix(0.984173 -0.177208 0.1376 0.990488 130.034 179.878)" fill="#D9D9D9" stroke="black"/>
<rect x="0.504265" y="-0.494413" width="27.2285" height="4.01579" rx="2.00789" transform="matrix(0.00859242 -0.999963 0.999938 0.0111364 129.994 210.832)" fill="#D9D9D9" stroke="black"/>
<rect x="0.46388" y="0.543039" width="37.6883" height="4.58421" transform="matrix(0.996084 0.0884141 -0.0683233 0.997663 132.502 208.699)" fill="#D9D9D9" stroke="black"/>
<path d="M140.938 250.933L155.473 248.611C161.245 247.689 166.472 252.147 166.472 257.992V269.175C166.472 274.886 161.469 279.307 155.802 278.603L141.623 276.842C137.045 276.273 133.537 272.498 133.305 267.89L132.949 260.791C132.706 255.947 136.15 251.698 140.938 250.933Z" fill="#D9D9D9" stroke="black"/>
<rect x="0.560887" y="0.40664" width="37.2459" height="4.57246" transform="matrix(0.984173 -0.177208 0.1376 0.990488 128.034 247.881)" fill="#D9D9D9" stroke="black"/>
<rect x="0.504265" y="-0.494413" width="27.2285" height="4.01579" rx="2.00789" transform="matrix(0.00859242 -0.999963 0.999938 0.0111364 127.994 278.835)" fill="#D9D9D9" stroke="black"/>
<rect x="0.46388" y="0.543039" width="37.6883" height="4.58421" transform="matrix(0.996084 0.0884141 -0.0683233 0.997663 130.502 276.701)" fill="#D9D9D9" stroke="black"/>
<path d="M427.119 207.054L412.542 209.098C406.754 209.909 401.612 205.352 401.724 199.508L401.939 188.327C402.048 182.616 407.135 178.293 412.788 179.105L426.931 181.138C431.497 181.794 434.932 185.636 435.075 190.247L435.295 197.352C435.445 202.199 431.921 206.381 427.119 207.054Z" fill="#D9D9D9" stroke="black"/>
<rect x="-0.552991" y="-0.417314" width="37.2459" height="4.57246" transform="matrix(-0.987389 0.158314 -0.118593 -0.992943 436.893 210.722)" fill="#D9D9D9" stroke="black"/>
<rect x="-0.513648" y="0.484659" width="27.2285" height="4.01579" rx="2.00789" transform="matrix(-0.0277546 0.999615 -0.999541 -0.0302976 439.673 181.462)" fill="#D9D9D9" stroke="black"/>
<rect x="-0.453388" y="-0.551829" width="37.6883" height="4.58421" transform="matrix(-0.994207 -0.107487 0.0874305 -0.996171 435.358 181.312)" fill="#D9D9D9" stroke="black"/>
<path d="M260.988 125.35L263.196 139.903C264.073 145.681 259.574 150.874 253.729 150.828L242.546 150.74C236.835 150.695 232.454 145.658 233.203 139.996L235.075 125.831C235.679 121.258 239.482 117.78 244.091 117.584L251.193 117.284C256.038 117.078 260.26 120.555 260.988 125.35Z" fill="#D9D9D9" stroke="black"/>
<rect x="-0.41102" y="0.557685" width="37.2459" height="4.57246" transform="matrix(0.169494 0.985531 -0.991535 0.129839 265.487 115.268)" fill="#D9D9D9" stroke="black"/>
<rect x="0.490449" y="0.508122" width="27.2285" height="4.01579" rx="2.00789" transform="matrix(0.999865 0.0164237 -0.0189674 0.99982 234.251 113.046)" fill="#D9D9D9" stroke="black"/>
<rect x="-0.546655" y="0.459613" width="37.6883" height="4.58421" transform="matrix(-0.0962126 0.995361 -0.997098 -0.0761347 236.152 117.572)" fill="#D9D9D9" stroke="black"/>
<path d="M334.988 126.35L337.196 140.903C338.073 146.682 333.574 151.874 327.729 151.828L316.546 151.741C310.835 151.696 306.454 146.658 307.203 140.996L309.075 126.832C309.679 122.258 313.482 118.78 318.091 118.585L325.193 118.284C330.038 118.079 334.26 121.556 334.988 126.35Z" fill="#D9D9D9" stroke="black"/>
<rect x="-0.41102" y="0.557685" width="37.2459" height="4.57246" transform="matrix(0.169494 0.985531 -0.991535 0.129839 339.487 116.269)" fill="#D9D9D9" stroke="black"/>
<rect x="0.490449" y="0.508122" width="27.2285" height="4.01579" rx="2.00789" transform="matrix(0.999865 0.0164237 -0.0189674 0.99982 308.251 114.046)" fill="#D9D9D9" stroke="black"/>
<rect x="-0.546655" y="0.459613" width="37.6883" height="4.58421" transform="matrix(-0.0962126 0.995361 -0.997098 -0.0761347 310.152 118.572)" fill="#D9D9D9" stroke="black"/>
<path d="M422.119 269.054L407.542 271.098C401.754 271.909 396.612 267.352 396.724 261.508L396.939 250.327C397.048 244.616 402.135 240.293 407.788 241.105L421.931 243.138C426.497 243.794 429.932 247.636 430.075 252.247L430.295 259.352C430.445 264.199 426.921 268.381 422.119 269.054Z" fill="#D9D9D9" stroke="black"/>
<rect x="-0.552991" y="-0.417314" width="37.2459" height="4.57246" transform="matrix(-0.987389 0.158314 -0.118593 -0.992943 433.893 271.722)" fill="#D9D9D9" stroke="black"/>
<rect x="-0.513648" y="0.484659" width="27.2285" height="4.01579" rx="2.00789" transform="matrix(-0.0277546 0.999615 -0.999541 -0.0302976 436.673 242.462)" fill="#D9D9D9" stroke="black"/>
<rect x="-0.453388" y="-0.551829" width="37.6883" height="4.58421" transform="matrix(-0.994207 -0.107487 0.0874305 -0.996171 432.358 242.312)" fill="#D9D9D9" stroke="black"/>
<rect x="186.5" y="173.497" width="193" height="101" fill="#D9D9D9" stroke="black"/>
<path d="M240.358 230H238.511L243.852 215.455H245.67L251.011 230H249.165L244.818 217.756H244.705L240.358 230ZM241.04 224.318H248.483V225.881H241.04V224.318ZM253.021 230V228.722L257.822 223.466C258.386 222.85 258.85 222.315 259.214 221.861C259.579 221.402 259.849 220.971 260.024 220.568C260.204 220.161 260.294 219.735 260.294 219.29C260.294 218.778 260.171 218.336 259.925 217.962C259.683 217.588 259.352 217.299 258.93 217.095C258.509 216.892 258.036 216.79 257.51 216.79C256.951 216.79 256.464 216.906 256.047 217.138C255.635 217.365 255.315 217.685 255.088 218.097C254.866 218.509 254.754 218.991 254.754 219.545H253.078C253.078 218.693 253.275 217.945 253.668 217.301C254.061 216.657 254.596 216.155 255.273 215.795C255.955 215.436 256.719 215.256 257.567 215.256C258.419 215.256 259.174 215.436 259.832 215.795C260.491 216.155 261.007 216.641 261.381 217.251C261.755 217.862 261.942 218.542 261.942 219.29C261.942 219.825 261.845 220.348 261.651 220.859C261.461 221.366 261.13 221.932 260.656 222.557C260.188 223.177 259.536 223.935 258.703 224.83L255.436 228.324V228.438H262.197V230H253.021ZM269.875 230.199C268.805 230.199 267.893 229.908 267.141 229.325C266.388 228.738 265.813 227.888 265.415 226.776C265.017 225.658 264.818 224.309 264.818 222.727C264.818 221.155 265.017 219.813 265.415 218.7C265.817 217.583 266.395 216.731 267.148 216.143C267.905 215.552 268.814 215.256 269.875 215.256C270.936 215.256 271.842 215.552 272.595 216.143C273.353 216.731 273.93 217.583 274.328 218.7C274.731 219.813 274.932 221.155 274.932 222.727C274.932 224.309 274.733 225.658 274.335 226.776C273.938 227.888 273.362 228.738 272.609 229.325C271.857 229.908 270.945 230.199 269.875 230.199ZM269.875 228.636C270.936 228.636 271.759 228.125 272.347 227.102C272.934 226.08 273.227 224.621 273.227 222.727C273.227 221.468 273.092 220.395 272.822 219.51C272.557 218.625 272.174 217.95 271.672 217.486C271.175 217.022 270.576 216.79 269.875 216.79C268.824 216.79 268.002 217.308 267.411 218.345C266.819 219.377 266.523 220.838 266.523 222.727C266.523 223.987 266.655 225.057 266.92 225.938C267.186 226.818 267.567 227.488 268.064 227.947C268.566 228.407 269.17 228.636 269.875 228.636ZM282.744 215.455V230H280.983V217.301H280.898L277.347 219.659V217.869L280.983 215.455H282.744ZM297.126 220C296.97 219.522 296.764 219.093 296.509 218.714C296.258 218.331 295.957 218.004 295.607 217.734C295.261 217.464 294.868 217.259 294.428 217.116C293.987 216.974 293.504 216.903 292.979 216.903C292.117 216.903 291.333 217.126 290.628 217.571C289.922 218.016 289.361 218.672 288.945 219.538C288.528 220.405 288.32 221.468 288.32 222.727C288.32 223.987 288.53 225.05 288.952 225.916C289.373 226.783 289.944 227.438 290.663 227.884C291.383 228.329 292.193 228.551 293.092 228.551C293.926 228.551 294.66 228.374 295.294 228.018C295.933 227.659 296.43 227.152 296.786 226.499C297.145 225.84 297.325 225.066 297.325 224.176L297.865 224.29H293.49V222.727H299.03V224.29C299.03 225.488 298.774 226.529 298.263 227.415C297.756 228.3 297.055 228.987 296.161 229.474C295.27 229.957 294.248 230.199 293.092 230.199C291.804 230.199 290.673 229.896 289.697 229.29C288.727 228.684 287.969 227.822 287.425 226.705C286.885 225.587 286.615 224.261 286.615 222.727C286.615 221.577 286.769 220.542 287.077 219.624C287.389 218.7 287.83 217.914 288.398 217.266C288.966 216.617 289.638 216.12 290.415 215.774C291.191 215.429 292.046 215.256 292.979 215.256C293.746 215.256 294.461 215.372 295.124 215.604C295.791 215.831 296.385 216.155 296.906 216.577C297.432 216.993 297.87 217.493 298.22 218.075C298.571 218.653 298.812 219.295 298.945 220H297.126Z" fill="black"/>
<path d="M551.938 179.666L566.473 177.344C572.245 176.422 577.472 180.88 577.472 186.725V197.908C577.472 203.619 572.469 208.04 566.802 207.336L552.623 205.575C548.045 205.006 544.537 201.231 544.305 196.623L543.949 189.523C543.706 184.68 547.15 180.431 551.938 179.666Z" fill="#D9D9D9" stroke="black"/>
<rect x="0.560887" y="0.40664" width="37.2459" height="4.57246" transform="matrix(0.984173 -0.177208 0.1376 0.990488 539.034 175.881)" fill="#D9D9D9" stroke="black"/>
<rect x="0.504265" y="-0.494413" width="27.2285" height="4.01579" rx="2.00789" transform="matrix(0.00859242 -0.999963 0.999938 0.0111364 538.994 206.835)" fill="#D9D9D9" stroke="black"/>
<rect x="0.46388" y="0.543039" width="37.6883" height="4.58421" transform="matrix(0.996084 0.0884141 -0.0683233 0.997663 541.502 204.701)" fill="#D9D9D9" stroke="black"/>
<path d="M550.938 241.666L565.473 239.344C571.245 238.422 576.472 242.88 576.472 248.725V259.908C576.472 265.619 571.469 270.04 565.802 269.336L551.623 267.575C547.045 267.006 543.537 263.231 543.305 258.623L542.949 251.523C542.706 246.68 546.15 242.431 550.938 241.666Z" fill="#D9D9D9" stroke="black"/>
<rect x="0.560887" y="0.40664" width="37.2459" height="4.57246" transform="matrix(0.984173 -0.177208 0.1376 0.990488 539.034 238.614)" fill="#D9D9D9" stroke="black"/>
<rect x="0.504265" y="-0.494413" width="27.2285" height="4.01579" rx="2.00789" transform="matrix(0.00859242 -0.999963 0.999938 0.0111364 538.994 269.568)" fill="#D9D9D9" stroke="black"/>
<rect x="0.46388" y="0.543039" width="37.6883" height="4.58421" transform="matrix(0.996084 0.0884141 -0.0683233 0.997663 541.502 267.434)" fill="#D9D9D9" stroke="black"/>
<path d="M727.119 204.054L712.542 206.098C706.754 206.909 701.612 202.352 701.724 196.508L701.939 185.327C702.048 179.616 707.135 175.293 712.788 176.105L726.931 178.138C731.497 178.794 734.932 182.636 735.075 187.247L735.295 194.352C735.445 199.199 731.921 203.381 727.119 204.054Z" fill="#D9D9D9" stroke="black"/>
<rect x="-0.552991" y="-0.417314" width="37.2459" height="4.57246" transform="matrix(-0.987389 0.158314 -0.118593 -0.992943 737.893 207.722)" fill="#D9D9D9" stroke="black"/>
<rect x="-0.513648" y="0.484659" width="27.2285" height="4.01579" rx="2.00789" transform="matrix(-0.0277546 0.999615 -0.999541 -0.0302976 740.673 178.462)" fill="#D9D9D9" stroke="black"/>
<rect x="-0.453388" y="-0.551829" width="37.6883" height="4.58421" transform="matrix(-0.994207 -0.107487 0.0874305 -0.996171 736.358 178.312)" fill="#D9D9D9" stroke="black"/>
<path d="M725.119 265.054L710.542 267.098C704.754 267.909 699.612 263.352 699.724 257.508L699.939 246.327C700.048 240.616 705.135 236.293 710.788 237.105L724.931 239.138C729.497 239.794 732.932 243.636 733.075 248.247L733.295 255.352C733.445 260.199 729.921 264.381 725.119 265.054Z" fill="#D9D9D9" stroke="black"/>
<rect x="-0.552991" y="-0.417314" width="37.2459" height="4.57246" transform="matrix(-0.987389 0.158314 -0.118593 -0.992943 734.893 268.722)" fill="#D9D9D9" stroke="black"/>
<rect x="-0.513648" y="0.484659" width="27.2285" height="4.01579" rx="2.00789" transform="matrix(-0.0277546 0.999615 -0.999541 -0.0302976 737.673 239.462)" fill="#D9D9D9" stroke="black"/>
<rect x="-0.453388" y="-0.551829" width="37.6883" height="4.58421" transform="matrix(-0.994207 -0.107487 0.0874305 -0.996171 733.358 239.312)" fill="#D9D9D9" stroke="black"/>
<rect x="599.5" y="170.233" width="81" height="101" fill="#D9D9D9" stroke="black"/>
<path d="M609.358 227H607.511L612.852 212.455H614.67L620.011 227H618.165L613.818 214.756H613.705L609.358 227ZM610.04 221.318H617.483V222.881H610.04V221.318ZM622.021 227V225.722L626.822 220.466C627.386 219.85 627.85 219.315 628.214 218.861C628.579 218.402 628.849 217.971 629.024 217.568C629.204 217.161 629.294 216.735 629.294 216.29C629.294 215.778 629.171 215.336 628.925 214.962C628.683 214.588 628.352 214.299 627.93 214.095C627.509 213.892 627.036 213.79 626.51 213.79C625.951 213.79 625.464 213.906 625.047 214.138C624.635 214.365 624.315 214.685 624.088 215.097C623.866 215.509 623.754 215.991 623.754 216.545H622.078C622.078 215.693 622.275 214.945 622.668 214.301C623.061 213.657 623.596 213.155 624.273 212.795C624.955 212.436 625.719 212.256 626.567 212.256C627.419 212.256 628.174 212.436 628.832 212.795C629.491 213.155 630.007 213.641 630.381 214.251C630.755 214.862 630.942 215.542 630.942 216.29C630.942 216.825 630.845 217.348 630.651 217.859C630.461 218.366 630.13 218.932 629.656 219.557C629.188 220.177 628.536 220.935 627.703 221.83L624.436 225.324V225.438H631.197V227H622.021ZM638.875 227.199C637.805 227.199 636.893 226.908 636.141 226.325C635.388 225.738 634.813 224.888 634.415 223.776C634.017 222.658 633.818 221.309 633.818 219.727C633.818 218.155 634.017 216.813 634.415 215.7C634.817 214.583 635.395 213.731 636.148 213.143C636.905 212.552 637.814 212.256 638.875 212.256C639.936 212.256 640.842 212.552 641.595 213.143C642.353 213.731 642.93 214.583 643.328 215.7C643.731 216.813 643.932 218.155 643.932 219.727C643.932 221.309 643.733 222.658 643.335 223.776C642.938 224.888 642.362 225.738 641.609 226.325C640.857 226.908 639.945 227.199 638.875 227.199ZM638.875 225.636C639.936 225.636 640.759 225.125 641.347 224.102C641.934 223.08 642.227 221.621 642.227 219.727C642.227 218.468 642.092 217.395 641.822 216.51C641.557 215.625 641.174 214.95 640.672 214.486C640.175 214.022 639.576 213.79 638.875 213.79C637.824 213.79 637.002 214.308 636.411 215.345C635.819 216.377 635.523 217.838 635.523 219.727C635.523 220.987 635.655 222.057 635.92 222.938C636.186 223.818 636.567 224.488 637.064 224.947C637.566 225.407 638.17 225.636 638.875 225.636ZM646.631 227V225.722L651.432 220.466C651.995 219.85 652.459 219.315 652.824 218.861C653.188 218.402 653.458 217.971 653.634 217.568C653.813 217.161 653.903 216.735 653.903 216.29C653.903 215.778 653.78 215.336 653.534 214.962C653.293 214.588 652.961 214.299 652.54 214.095C652.118 213.892 651.645 213.79 651.119 213.79C650.561 213.79 650.073 213.906 649.656 214.138C649.244 214.365 648.925 214.685 648.697 215.097C648.475 215.509 648.364 215.991 648.364 216.545H646.688C646.688 215.693 646.884 214.945 647.277 214.301C647.67 213.657 648.205 213.155 648.882 212.795C649.564 212.436 650.329 212.256 651.176 212.256C652.028 212.256 652.784 212.436 653.442 212.795C654.1 213.155 654.616 213.641 654.99 214.251C655.364 214.862 655.551 215.542 655.551 216.29C655.551 216.825 655.454 217.348 655.26 217.859C655.071 218.366 654.739 218.932 654.266 219.557C653.797 220.177 653.146 220.935 652.312 221.83L649.045 225.324V225.438H655.807V227H646.631ZM668.939 217C668.783 216.522 668.577 216.093 668.321 215.714C668.07 215.331 667.769 215.004 667.419 214.734C667.073 214.464 666.68 214.259 666.24 214.116C665.8 213.974 665.317 213.903 664.791 213.903C663.929 213.903 663.146 214.126 662.44 214.571C661.735 215.016 661.174 215.672 660.757 216.538C660.34 217.405 660.132 218.468 660.132 219.727C660.132 220.987 660.343 222.05 660.764 222.916C661.186 223.783 661.756 224.438 662.476 224.884C663.196 225.329 664.005 225.551 664.905 225.551C665.738 225.551 666.472 225.374 667.107 225.018C667.746 224.659 668.243 224.152 668.598 223.499C668.958 222.84 669.138 222.066 669.138 221.176L669.678 221.29H665.303V219.727H670.842V221.29C670.842 222.488 670.587 223.529 670.075 224.415C669.569 225.3 668.868 225.987 667.973 226.474C667.083 226.957 666.06 227.199 664.905 227.199C663.617 227.199 662.485 226.896 661.51 226.29C660.539 225.684 659.782 224.822 659.237 223.705C658.697 222.587 658.428 221.261 658.428 219.727C658.428 218.577 658.581 217.542 658.889 216.624C659.202 215.7 659.642 214.914 660.21 214.266C660.778 213.617 661.451 213.12 662.227 212.774C663.004 212.429 663.858 212.256 664.791 212.256C665.558 212.256 666.273 212.372 666.936 212.604C667.604 212.831 668.198 213.155 668.719 213.577C669.244 213.993 669.682 214.493 670.033 215.075C670.383 215.653 670.625 216.295 670.757 217H668.939Z" fill="black"/>
<path d="M702.605 665.744L717.153 663.502C722.929 662.612 728.132 667.099 728.1 672.944L728.038 684.127C728.006 689.838 722.979 694.23 717.315 693.495L703.146 691.656C698.571 691.062 695.084 687.267 694.879 682.659L694.562 675.557C694.345 670.712 697.812 666.483 702.605 665.744Z" fill="#D9D9D9" stroke="black"/>
<rect x="0.558628" y="0.409738" width="37.2459" height="4.57246" transform="matrix(0.985139 -0.171758 0.132117 0.991234 693.343 661.528)" fill="#D9D9D9" stroke="black"/>
<rect x="0.506994" y="-0.491615" width="27.2285" height="4.01579" rx="2.00789" transform="matrix(0.0141263 -0.9999 0.999861 0.0166701 693.128 692.488)" fill="#D9D9D9" stroke="black"/>
<rect x="0.460868" y="0.545598" width="37.6883" height="4.58421" transform="matrix(0.995579 0.0939253 -0.0738436 0.99727 695.653 690.363)" fill="#D9D9D9" stroke="black"/>
<rect x="742.299" y="642.805" width="43" height="68" transform="rotate(0.351102 742.299 642.805)" fill="#D9D9D9" stroke="black"/>
<path d="M771.55 700.778L771.609 702.623L756.9 697.752L756.842 695.934L771.208 690.13L771.268 691.975L759.169 696.712L759.172 696.826L771.55 700.778ZM765.849 700.278L765.61 692.839L767.172 692.789L767.411 700.228L765.849 700.278ZM771.144 688.121L769.866 688.162L764.459 683.532C763.826 682.988 763.276 682.542 762.81 682.192C762.34 681.842 761.9 681.586 761.492 681.424C761.08 681.257 760.651 681.181 760.206 681.195C759.695 681.212 759.256 681.349 758.89 681.607C758.524 681.86 758.246 682.201 758.056 682.629C757.866 683.056 757.78 683.533 757.796 684.058C757.814 684.617 757.946 685.1 758.191 685.509C758.432 685.914 758.761 686.223 759.18 686.437C759.599 686.646 760.085 686.742 760.639 686.724L760.693 688.399C759.841 688.427 759.087 688.254 758.431 687.882C757.775 687.51 757.256 686.991 756.874 686.326C756.493 685.656 756.289 684.898 756.261 684.05C756.234 683.199 756.39 682.438 756.728 681.769C757.067 681.099 757.535 680.568 758.134 680.175C758.732 679.781 759.405 679.572 760.153 679.548C760.688 679.531 761.214 679.611 761.731 679.789C762.244 679.962 762.82 680.275 763.46 680.728C764.095 681.177 764.873 681.804 765.794 682.608L769.391 685.761L769.505 685.757L769.288 679L770.85 678.949L771.144 688.121ZM770.802 671.269C770.837 672.339 770.575 673.259 770.017 674.03C769.454 674.802 768.623 675.404 767.524 675.837C766.42 676.271 765.077 676.513 763.497 676.563C761.925 676.614 760.577 676.458 759.453 676.096C758.323 675.73 757.452 675.18 756.841 674.446C756.226 673.708 755.901 672.809 755.867 671.749C755.833 670.689 756.099 669.773 756.667 669.001C757.229 668.225 758.063 667.621 759.167 667.187C760.266 666.749 761.601 666.505 763.172 666.455C764.753 666.404 766.108 666.56 767.238 666.921C768.363 667.283 769.23 667.831 769.841 668.564C770.448 669.298 770.768 670.2 770.802 671.269ZM769.241 671.32C769.207 670.259 768.669 669.452 767.628 668.898C766.587 668.344 765.12 668.098 763.227 668.158C761.968 668.199 760.901 668.368 760.024 668.666C759.148 668.96 758.486 669.365 758.038 669.881C757.59 670.393 757.378 670.999 757.4 671.699C757.434 672.75 757.978 673.554 759.034 674.113C760.084 674.671 761.554 674.92 763.442 674.86C764.701 674.819 765.766 674.652 766.638 674.359C767.51 674.066 768.167 673.663 768.61 673.152C769.053 672.635 769.263 672.025 769.241 671.32ZM770.399 658.691C770.408 659.287 770.314 659.887 770.115 660.49C769.917 661.094 769.567 661.65 769.067 662.158C768.563 662.667 767.873 663.085 766.997 663.412C766.117 663.738 765.005 663.923 763.661 663.966C762.374 664.008 761.229 663.923 760.228 663.714C759.222 663.505 758.37 663.181 757.674 662.744C756.973 662.307 756.435 661.77 756.059 661.133C755.683 660.492 755.482 659.761 755.456 658.943C755.43 658.129 755.57 657.399 755.876 656.755C756.177 656.106 756.61 655.571 757.175 655.15C757.739 654.729 758.396 654.447 759.144 654.305L759.2 656.037C758.552 656.219 758.02 656.549 757.604 657.026C757.189 657.504 756.993 658.126 757.018 658.893C757.054 660.019 757.572 660.891 758.572 661.507C759.573 662.12 760.958 662.4 762.728 662.348L762.724 662.234C762.314 661.982 761.96 661.678 761.665 661.323C761.364 660.963 761.129 660.563 760.958 660.123C760.788 659.684 760.695 659.215 760.679 658.718C760.652 657.885 760.836 657.117 761.23 656.412C761.62 655.708 762.172 655.136 762.887 654.697C763.598 654.257 764.422 654.022 765.359 653.992C766.258 653.963 767.088 654.138 767.849 654.516C768.605 654.894 769.214 655.441 769.678 656.156C770.136 656.866 770.377 657.711 770.399 658.691ZM768.837 658.741C768.818 658.145 768.652 657.615 768.338 657.151C768.025 656.682 767.613 656.319 767.102 656.061C766.592 655.798 766.029 655.676 765.414 655.696C764.813 655.715 764.27 655.867 763.787 656.153C763.299 656.434 762.915 656.813 762.637 657.291C762.358 657.764 762.229 658.299 762.248 658.895C762.262 659.345 762.365 659.761 762.558 660.143C762.745 660.526 762.998 660.859 763.315 661.142C763.631 661.421 763.991 661.637 764.394 661.79C764.792 661.943 765.209 662.012 765.644 661.998C766.222 661.98 766.757 661.828 767.25 661.542C767.743 661.251 768.135 660.864 768.428 660.381C768.72 659.893 768.856 659.347 768.837 658.741Z" fill="black"/>
<path d="M710.785 505.812L725.341 503.624C731.121 502.756 736.306 507.262 736.252 513.107L736.148 524.29C736.095 530.001 731.051 534.374 725.39 533.618L711.228 531.725C706.656 531.114 703.183 527.306 702.995 522.697L702.704 515.594C702.506 510.749 705.989 506.532 710.785 505.812Z" fill="#D9D9D9" stroke="black"/>
<rect x="0.557087" y="0.411831" width="37.2459" height="4.57246" transform="matrix(0.985777 -0.168061 0.128397 0.991723 698.53 502.529)" fill="#D9D9D9" stroke="black"/>
<rect x="0.508835" y="-0.489709" width="27.2285" height="4.01579" rx="2.00789" transform="matrix(0.0178777 -0.99984 0.999791 0.0204213 698.195 533.492)" fill="#D9D9D9" stroke="black"/>
<rect x="0.458818" y="0.547323" width="37.6883" height="4.58421" transform="matrix(0.99522 0.0976599 -0.0775846 0.996986 700.733 531.373)" fill="#D9D9D9" stroke="black"/>
<rect x="747.554" y="483.992" width="43" height="68" transform="rotate(0.566067 747.554 483.992)" fill="#D9D9D9" stroke="black"/>
<path d="M776.409 539.824L776.457 541.67L761.778 536.708L761.731 534.891L776.133 529.175L776.181 531.021L764.053 535.683L764.056 535.797L776.409 539.824ZM770.711 539.29L770.518 531.85L772.08 531.809L772.273 539.25L770.711 539.29ZM776.081 527.165L774.803 527.199L769.424 522.535C768.794 521.988 768.247 521.538 767.784 521.185C767.315 520.833 766.877 520.574 766.47 520.409C766.059 520.24 765.63 520.161 765.185 520.173C764.674 520.186 764.235 520.321 763.867 520.576C763.5 520.828 763.22 521.166 763.027 521.593C762.834 522.019 762.745 522.495 762.758 523.021C762.773 523.579 762.902 524.064 763.144 524.474C763.382 524.88 763.71 525.191 764.128 525.408C764.545 525.62 765.031 525.718 765.585 525.704L765.628 527.38C764.776 527.402 764.023 527.225 763.369 526.849C762.715 526.472 762.2 525.951 761.822 525.283C761.445 524.611 761.245 523.851 761.223 523.004C761.201 522.152 761.362 521.392 761.704 520.725C762.047 520.058 762.519 519.529 763.12 519.139C763.72 518.75 764.395 518.545 765.143 518.526C765.678 518.512 766.203 518.595 766.719 518.776C767.231 518.952 767.805 519.269 768.442 519.726C769.074 520.179 769.848 520.81 770.765 521.62L774.342 524.795L774.456 524.792L774.281 518.033L775.843 517.992L776.081 527.165ZM775.842 510.312C775.87 511.382 775.603 512.301 775.04 513.068C774.473 513.836 773.638 514.433 772.536 514.86C771.429 515.286 770.085 515.52 768.504 515.561C766.933 515.602 765.586 515.438 764.463 515.069C763.336 514.696 762.469 514.14 761.862 513.403C761.251 512.661 760.932 511.76 760.904 510.7C760.877 509.639 761.149 508.725 761.721 507.957C762.288 507.185 763.125 506.585 764.232 506.159C765.334 505.728 766.671 505.492 768.242 505.451C769.823 505.41 771.177 505.574 772.305 505.942C773.427 506.311 774.292 506.864 774.898 507.601C775.5 508.339 775.815 509.242 775.842 510.312ZM774.28 510.353C774.253 509.292 773.72 508.482 772.683 507.922C771.645 507.361 770.18 507.106 768.286 507.155C767.027 507.187 765.959 507.35 765.081 507.643C764.202 507.931 763.538 508.332 763.087 508.846C762.636 509.355 762.42 509.959 762.438 510.66C762.465 511.711 763.005 512.518 764.057 513.083C765.104 513.648 766.572 513.906 768.46 513.857C769.719 513.824 770.786 513.664 771.659 513.376C772.533 513.088 773.192 512.69 773.639 512.181C774.085 511.667 774.299 511.058 774.28 510.353ZM775.523 498.015C775.545 498.848 775.399 499.603 775.085 500.279C774.771 500.955 774.33 501.501 773.763 501.919C773.196 502.336 772.544 502.573 771.807 502.63L771.762 500.926C772.419 500.843 772.955 500.531 773.372 499.989C773.784 499.443 773.981 498.799 773.961 498.056C773.946 497.459 773.793 496.933 773.501 496.476C773.21 496.015 772.817 495.658 772.323 495.406C771.823 495.149 771.264 495.028 770.644 495.044C770.009 495.061 769.447 495.215 768.958 495.507C768.463 495.795 768.078 496.183 767.801 496.674C767.525 497.164 767.393 497.719 767.404 498.339C767.411 498.785 767.491 499.239 767.646 499.704C767.795 500.169 767.982 500.551 768.208 500.848L768.052 502.5L760.872 501.805L760.676 494.251L762.238 494.211L762.396 500.288L766.698 500.688L766.696 500.603C766.451 500.311 766.245 499.942 766.077 499.496C765.909 499.051 765.819 498.584 765.806 498.097C765.783 497.207 765.976 496.409 766.384 495.702C766.787 494.99 767.35 494.426 768.073 494.01C768.797 493.588 769.629 493.365 770.571 493.341C771.499 493.317 772.332 493.504 773.072 493.901C773.807 494.294 774.394 494.847 774.835 495.561C775.27 496.274 775.499 497.092 775.523 498.015Z" fill="black"/>
<path d="M710.785 373.812L725.341 371.624C731.121 370.756 736.306 375.262 736.252 381.107L736.148 392.29C736.095 398.001 731.051 402.374 725.39 401.618L711.228 399.725C706.656 399.114 703.183 395.306 702.995 390.697L702.704 383.594C702.506 378.749 705.989 374.532 710.785 373.812Z" fill="#D9D9D9" stroke="black"/>
<rect x="0.557087" y="0.411831" width="37.2459" height="4.57246" transform="matrix(0.985777 -0.168061 0.128397 0.991723 698.53 370.529)" fill="#D9D9D9" stroke="black"/>
<rect x="0.508835" y="-0.489709" width="27.2285" height="4.01579" rx="2.00789" transform="matrix(0.0178777 -0.99984 0.999791 0.0204213 698.195 401.492)" fill="#D9D9D9" stroke="black"/>
<rect x="0.458818" y="0.547323" width="37.6883" height="4.58421" transform="matrix(0.99522 0.0976599 -0.0775846 0.996986 700.733 399.373)" fill="#D9D9D9" stroke="black"/>
<rect x="747.554" y="351.992" width="43" height="68" transform="rotate(0.566067 747.554 351.992)" fill="#D9D9D9" stroke="black"/>
<path d="M776.55 408.777L776.609 410.623L761.9 405.751L761.842 403.934L776.208 398.129L776.268 399.975L764.169 404.712L764.172 404.825L776.55 408.777ZM770.849 408.278L770.61 400.839L772.172 400.788L772.411 408.228L770.849 408.278ZM776.144 396.12L774.866 396.161L769.459 391.531C768.826 390.988 768.276 390.541 767.81 390.191C767.34 389.842 766.9 389.586 766.492 389.424C766.08 389.257 765.651 389.181 765.206 389.195C764.695 389.211 764.256 389.348 763.89 389.607C763.524 389.86 763.246 390.2 763.056 390.628C762.866 391.056 762.78 391.532 762.796 392.058C762.814 392.616 762.946 393.1 763.191 393.509C763.432 393.913 763.761 394.222 764.18 394.436C764.599 394.646 765.085 394.741 765.639 394.724L765.693 396.399C764.841 396.426 764.087 396.254 763.431 395.882C762.775 395.509 762.256 394.991 761.874 394.326C761.493 393.656 761.289 392.897 761.261 392.05C761.234 391.198 761.39 390.438 761.728 389.768C762.067 389.099 762.535 388.568 763.134 388.174C763.732 387.781 764.405 387.572 765.153 387.548C765.688 387.531 766.214 387.611 766.731 387.789C767.244 387.962 767.82 388.275 768.46 388.728C769.095 389.177 769.873 389.803 770.794 390.607L774.391 393.761L774.505 393.757L774.288 386.999L775.85 386.949L776.144 396.12ZM775.802 379.269C775.837 380.338 775.575 381.259 775.017 382.03C774.454 382.801 773.623 383.403 772.524 383.837C771.42 384.27 770.077 384.512 768.497 384.563C766.925 384.613 765.577 384.457 764.453 384.096C763.323 383.729 762.452 383.179 761.841 382.446C761.226 381.707 760.901 380.808 760.867 379.748C760.833 378.688 761.099 377.772 761.667 377.001C762.229 376.225 763.063 375.62 764.167 375.187C765.266 374.749 766.601 374.505 768.172 374.454C769.753 374.404 771.108 374.559 772.238 374.921C773.363 375.283 774.23 375.83 774.841 376.564C775.448 377.298 775.768 378.199 775.802 379.269ZM774.241 379.319C774.207 378.259 773.669 377.452 772.628 376.898C771.587 376.344 770.12 376.097 768.227 376.158C766.968 376.198 765.901 376.368 765.024 376.666C764.148 376.959 763.486 377.364 763.038 377.881C762.59 378.392 762.378 378.999 762.4 379.699C762.434 380.75 762.978 381.554 764.034 382.112C765.084 382.671 766.554 382.92 768.442 382.859C769.701 382.819 770.766 382.652 771.638 382.359C772.51 382.065 773.167 381.663 773.61 381.151C774.053 380.635 774.263 380.024 774.241 379.319ZM772.384 371.96L770.936 372.006L760.623 365.942L760.589 364.891L762.832 364.819L762.855 365.529L770.648 370.111L770.762 370.108L770.486 361.504L772.047 361.454L772.384 371.96ZM775.146 365.021L771.725 365.131L771.05 365.153L760.608 365.488L760.554 363.812L775.092 363.346L775.146 365.021Z" fill="black"/>
<path d="M146.118 687.609L131.646 690.298C125.899 691.365 120.561 687.04 120.414 681.197L120.132 670.017C119.988 664.308 124.878 659.763 130.561 660.324L144.78 661.726C149.371 662.179 152.973 665.865 153.32 670.465L153.856 677.554C154.221 682.389 150.885 686.724 146.118 687.609Z" fill="#D9D9D9" stroke="black"/>
<rect x="-0.570962" y="-0.392368" width="37.2459" height="4.57246" transform="matrix(-0.979392 0.201967 -0.162531 -0.986703 154.268 690.975)" fill="#D9D9D9" stroke="black"/>
<rect x="-0.491638" y="0.506971" width="27.2285" height="4.01579" rx="2.00789" transform="matrix(0.0166238 0.999862 -0.999901 0.01408 155.783 661.571)" fill="#D9D9D9" stroke="black"/>
<rect x="-0.477425" y="-0.53117" width="37.6883" height="4.58421" transform="matrix(-0.997997 -0.0632703 0.0431461 -0.999069 151.419 661.653)" fill="#D9D9D9" stroke="black"/>
<rect x="107.148" y="711.758" width="43" height="68" transform="rotate(178.589 107.148 711.758)" fill="#D9D9D9" stroke="black"/>
<path d="M90.6903 700.406L90.7495 702.252L76.0402 697.38L75.9819 695.563L90.3487 689.758L90.4079 691.604L78.3092 696.341L78.3129 696.454L90.6903 700.406ZM84.9895 699.907L84.7508 692.467L86.3125 692.417L86.5512 699.857L84.9895 699.907ZM90.2842 687.749L89.0065 687.79L83.5996 683.16C82.9663 682.617 82.4166 682.17 81.9506 681.82C81.4799 681.471 81.0406 681.215 80.6327 681.052C80.22 680.886 79.7912 680.809 79.3463 680.824C78.8352 680.84 78.3967 680.977 78.0307 681.235C77.6646 681.489 77.3865 681.829 77.1966 682.257C77.0066 682.685 76.92 683.161 76.9369 683.687C76.9548 684.245 77.0864 684.729 77.3316 685.138C77.572 685.542 77.9017 685.851 78.3207 686.065C78.7395 686.274 79.2258 686.37 79.7795 686.352L79.8332 688.028C78.9814 688.055 78.2274 687.883 77.5712 687.51C76.915 687.138 76.3962 686.62 76.0148 685.954C75.6333 685.285 75.4289 684.526 75.4017 683.679C75.3744 682.827 75.53 682.066 75.8686 681.397C76.2072 680.728 76.6757 680.196 77.2742 679.803C77.8727 679.41 78.5458 679.201 79.2935 679.177C79.8282 679.16 80.3543 679.24 80.8716 679.418C81.3841 679.591 81.9602 679.904 82.6001 680.357C83.235 680.806 84.0131 681.432 84.9343 682.236L88.5315 685.389L88.6451 685.386L88.4283 678.628L89.99 678.578L90.2842 687.749ZM89.9426 670.898C89.9769 671.967 89.7151 672.888 89.1571 673.659C88.5945 674.43 87.7634 675.032 86.6641 675.466C85.56 675.899 84.2176 676.141 82.637 676.192C81.0658 676.242 79.7178 676.086 78.5929 675.724C77.4632 675.358 76.5928 674.808 75.9819 674.074C75.366 673.336 75.0411 672.437 75.0071 671.377C74.9731 670.317 75.2398 669.401 75.8072 668.63C76.3697 667.854 77.203 667.249 78.3071 666.816C79.4064 666.378 80.7415 666.134 82.3127 666.083C83.8933 666.033 85.2484 666.188 86.3781 666.55C87.5029 666.912 88.3708 667.459 88.9818 668.193C89.588 668.927 89.9083 669.828 89.9426 670.898ZM88.3809 670.948C88.3469 669.888 87.8094 669.081 86.7684 668.527C85.7273 667.973 84.2603 667.726 82.3674 667.787C81.1085 667.827 80.041 667.997 79.1647 668.295C78.2882 668.588 77.6261 668.993 77.1785 669.51C76.7306 670.021 76.5179 670.627 76.5404 671.328C76.5741 672.378 77.1186 673.183 78.174 673.741C79.2247 674.3 80.6941 674.549 82.5823 674.488C83.8412 674.448 84.9064 674.281 85.7782 673.988C86.6499 673.694 87.3073 673.292 87.7504 672.78C88.1934 672.264 88.4035 671.653 88.3809 670.948ZM89.5363 658.234C89.5664 659.171 89.4323 660.011 89.134 660.755C88.8356 661.494 88.407 662.088 87.8482 662.537C87.2845 662.982 86.6223 663.235 85.8616 663.298L85.8042 661.509C86.2715 661.456 86.6709 661.282 87.0026 660.987C87.3295 660.692 87.5778 660.312 87.7477 659.848C87.9175 659.383 87.9935 658.871 87.9756 658.312C87.9555 657.688 87.8289 657.138 87.5957 656.662C87.3626 656.186 87.0475 655.817 86.6507 655.555C86.2538 655.293 85.7998 655.17 85.2887 655.187C84.754 655.204 84.2873 655.352 83.8888 655.63C83.4856 655.908 83.1763 656.306 82.9608 656.825C82.7453 657.343 82.6494 657.972 82.6731 658.71L82.7104 659.874L81.1487 659.924L81.1114 658.76C81.0929 658.183 80.9725 657.68 80.7503 657.251C80.528 656.818 80.2235 656.484 79.8371 656.25C79.4504 656.011 79.0015 655.9 78.4904 655.916C77.9983 655.932 77.5735 656.055 77.2161 656.284C76.8587 656.514 76.5846 656.83 76.3938 657.234C76.2029 657.634 76.1161 658.101 76.1332 658.635C76.1493 659.137 76.2568 659.607 76.4556 660.046C76.6496 660.481 76.9238 660.832 77.2782 661.1C77.6279 661.368 78.0445 661.507 78.5279 661.515L78.5826 663.218C77.8197 663.214 77.1451 663.006 76.5587 662.594C75.9675 662.182 75.4999 661.633 75.1557 660.948C74.8115 660.258 74.6259 659.494 74.599 658.656C74.5702 657.757 74.7276 656.98 75.0714 656.325C75.4104 655.669 75.8701 655.16 76.4506 654.795C77.0311 654.431 77.6644 654.238 78.3506 654.216C79.1693 654.189 79.8742 654.382 80.4654 654.794C81.0564 655.202 81.4749 655.769 81.7209 656.495L81.8345 656.491C81.9564 655.568 82.3239 654.839 82.9367 654.303C83.5449 653.767 84.3103 653.484 85.2332 653.455C86.0235 653.429 86.7402 653.622 87.3835 654.032C88.0218 654.438 88.5327 655.005 88.916 655.731C89.2993 656.458 89.5061 657.292 89.5363 658.234Z" fill="black"/>
<path d="M144.143 539.559L129.67 542.247C123.924 543.314 118.586 538.989 118.438 533.146L118.156 521.966C118.012 516.257 122.903 511.712 128.586 512.273L142.805 513.676C147.396 514.129 150.998 517.814 151.345 522.414L151.881 529.503C152.246 534.339 148.91 538.673 144.143 539.559Z" fill="#D9D9D9" stroke="black"/>
<rect x="-0.570962" y="-0.392368" width="37.2459" height="4.57246" transform="matrix(-0.979392 0.201967 -0.162531 -0.986703 152.293 542.924)" fill="#D9D9D9" stroke="black"/>
<rect x="-0.491638" y="0.506971" width="27.2285" height="4.01579" rx="2.00789" transform="matrix(0.0166238 0.999862 -0.999901 0.01408 153.808 513.52)" fill="#D9D9D9" stroke="black"/>
<rect x="-0.477425" y="-0.53117" width="37.6883" height="4.58421" transform="matrix(-0.997997 -0.0632703 0.0431461 -0.999069 149.444 513.602)" fill="#D9D9D9" stroke="black"/>
<rect x="105.173" y="563.707" width="43" height="68" transform="rotate(178.589 105.173 563.707)" fill="#D9D9D9" stroke="black"/>
<path d="M88.6903 547.406L88.7495 549.252L74.0402 544.38L73.9819 542.563L88.3487 536.758L88.4079 538.604L76.3092 543.341L76.3129 543.454L88.6903 547.406ZM82.9895 546.907L82.7508 539.467L84.3125 539.417L84.5512 546.857L82.9895 546.907ZM88.2842 534.749L87.0065 534.79L81.5996 530.16C80.9663 529.617 80.4166 529.17 79.9506 528.82C79.4799 528.471 79.0406 528.215 78.6327 528.052C78.22 527.886 77.7912 527.809 77.3463 527.824C76.8352 527.84 76.3967 527.977 76.0307 528.235C75.6646 528.489 75.3865 528.829 75.1966 529.257C75.0066 529.685 74.92 530.161 74.9369 530.687C74.9548 531.245 75.0864 531.729 75.3316 532.138C75.572 532.542 75.9017 532.851 76.3207 533.065C76.7395 533.274 77.2258 533.37 77.7795 533.352L77.8332 535.028C76.9814 535.055 76.2274 534.883 75.5712 534.51C74.915 534.138 74.3962 533.62 74.0148 532.954C73.6333 532.285 73.4289 531.526 73.4017 530.679C73.3744 529.827 73.53 529.066 73.8686 528.397C74.2072 527.728 74.6757 527.196 75.2742 526.803C75.8727 526.41 76.5458 526.201 77.2935 526.177C77.8282 526.16 78.3543 526.24 78.8716 526.418C79.3841 526.591 79.9602 526.904 80.6001 527.357C81.235 527.806 82.0131 528.432 82.9343 529.236L86.5315 532.389L86.6451 532.386L86.4283 525.628L87.99 525.578L88.2842 534.749ZM87.9426 517.898C87.9769 518.967 87.7151 519.888 87.1571 520.659C86.5945 521.43 85.7634 522.032 84.6641 522.466C83.56 522.899 82.2176 523.141 80.637 523.192C79.0658 523.242 77.7178 523.086 76.5929 522.724C75.4632 522.358 74.5928 521.808 73.9819 521.074C73.366 520.336 73.0411 519.437 73.0071 518.377C72.9731 517.317 73.2398 516.401 73.8072 515.63C74.3697 514.854 75.203 514.249 76.3071 513.816C77.4064 513.378 78.7415 513.134 80.3127 513.083C81.8933 513.033 83.2484 513.188 84.3781 513.55C85.5029 513.912 86.3708 514.459 86.9818 515.193C87.588 515.927 87.9083 516.828 87.9426 517.898ZM86.3809 517.948C86.3469 516.888 85.8094 516.081 84.7684 515.527C83.7273 514.973 82.2603 514.726 80.3674 514.787C79.1085 514.827 78.041 514.997 77.1647 515.295C76.2882 515.588 75.6261 515.993 75.1785 516.51C74.7306 517.021 74.5179 517.627 74.5404 518.328C74.5741 519.378 75.1186 520.183 76.174 520.741C77.2247 521.3 78.6941 521.549 80.5823 521.488C81.8412 521.448 82.9064 521.281 83.7782 520.988C84.6499 520.694 85.3073 520.292 85.7504 519.78C86.1934 519.264 86.4035 518.653 86.3809 517.948ZM87.4952 510.153L86.2174 510.194L80.8105 505.563C80.1772 505.02 79.6276 504.573 79.1616 504.224C78.6908 503.874 78.2515 503.618 77.8437 503.456C77.4309 503.289 77.0021 503.213 76.5572 503.227C76.0461 503.243 75.6076 503.381 75.2416 503.639C74.8755 503.892 74.5975 504.233 74.4075 504.66C74.2175 505.088 74.131 505.564 74.1478 506.09C74.1657 506.648 74.2973 507.132 74.5425 507.541C74.7829 507.945 75.1126 508.255 75.5316 508.469C75.9505 508.678 76.4367 508.773 76.9904 508.756L77.0442 510.431C76.1923 510.458 75.4383 510.286 74.7821 509.914C74.1259 509.542 73.6071 509.023 73.2257 508.358C72.8442 507.688 72.6399 506.929 72.6127 506.082C72.5854 505.23 72.741 504.47 73.0795 503.8C73.4181 503.131 73.8866 502.6 74.4851 502.206C75.0836 501.813 75.7567 501.604 76.5044 501.58C77.0392 501.563 77.5652 501.643 78.0825 501.821C78.595 501.994 79.1711 502.307 79.811 502.76C80.446 503.209 81.224 503.835 82.1452 504.639L85.7425 507.793L85.856 507.789L85.6392 501.031L87.2009 500.981L87.4952 510.153Z" fill="black"/>
<path d="M144.143 405.559L129.671 408.247C123.924 409.314 118.586 404.989 118.439 399.146L118.157 387.966C118.013 382.257 122.903 377.712 128.586 378.273L142.805 379.676C147.396 380.129 150.998 383.814 151.346 388.414L151.881 395.503C152.246 400.339 148.91 404.673 144.143 405.559Z" fill="#D9D9D9" stroke="black"/>
<rect x="-0.570962" y="-0.392368" width="37.2459" height="4.57246" transform="matrix(-0.979392 0.201967 -0.162531 -0.986703 152.293 408.924)" fill="#D9D9D9" stroke="black"/>
<rect x="-0.491638" y="0.506971" width="27.2285" height="4.01579" rx="2.00789" transform="matrix(0.0166238 0.999862 -0.999901 0.01408 153.809 379.52)" fill="#D9D9D9" stroke="black"/>
<rect x="-0.477425" y="-0.53117" width="37.6883" height="4.58421" transform="matrix(-0.997997 -0.0632703 0.0431461 -0.999069 149.445 379.602)" fill="#D9D9D9" stroke="black"/>
<rect x="105.173" y="429.707" width="43" height="68" transform="rotate(178.589 105.173 429.707)" fill="#D9D9D9" stroke="black"/>

<path d="M88.6903 413.406L88.7495 415.252L74.0402 410.38L73.9819 408.563L88.3487 402.758L88.4079 404.604L76.3092 409.341L76.3129 409.454L88.6903 413.406ZM82.9895 412.907L82.7508 405.467L84.3125 405.417L84.5512 412.857L82.9895 412.907ZM88.2842 400.749L87.0065 400.79L81.5996 396.16C80.9663 395.617 80.4166 395.17 79.9506 394.82C79.4799 394.471 79.0406 394.215 78.6327 394.052C78.22 393.886 77.7912 393.809 77.3463 393.824C76.8352 393.84 76.3967 393.977 76.0307 394.235C75.6646 394.489 75.3865 394.829 75.1966 395.257C75.0066 395.685 74.92 396.161 74.9369 396.687C74.9548 397.245 75.0864 397.729 75.3316 398.138C75.572 398.542 75.9017 398.851 76.3207 399.065C76.7395 399.274 77.2258 399.37 77.7795 399.352L77.8332 401.028C76.9814 401.055 76.2274 400.883 75.5712 400.51C74.915 400.138 74.3962 399.62 74.0148 398.954C73.6333 398.285 73.4289 397.526 73.4017 396.679C73.3744 395.827 73.53 395.066 73.8686 394.397C74.2072 393.728 74.6757 393.196 75.2742 392.803C75.8727 392.41 76.5458 392.201 77.2935 392.177C77.8282 392.16 78.3543 392.24 78.8716 392.418C79.3841 392.591 79.9602 392.904 80.6001 393.357C81.235 393.806 82.0131 394.432 82.9343 395.236L86.5315 398.389L86.6451 398.386L86.4283 391.628L87.99 391.578L88.2842 400.749ZM87.9426 383.898C87.9769 384.967 87.7151 385.888 87.1571 386.659C86.5945 387.43 85.7634 388.032 84.6641 388.466C83.56 388.899 82.2176 389.141 80.637 389.192C79.0658 389.242 77.7178 389.086 76.5929 388.724C75.4632 388.358 74.5928 387.808 73.9819 387.074C73.366 386.336 73.0411 385.437 73.0071 384.377C72.9731 383.317 73.2398 382.401 73.8072 381.63C74.3697 380.854 75.203 380.249 76.3071 379.816C77.4064 379.378 78.7415 379.134 80.3127 379.083C81.8933 379.033 83.2484 379.188 84.3781 379.55C85.5029 379.912 86.3708 380.459 86.9818 381.193C87.588 381.927 87.9083 382.828 87.9426 383.898ZM86.3809 383.948C86.3469 382.888 85.8094 382.081 84.7684 381.527C83.7273 380.973 82.2603 380.726 80.3674 380.787C79.1085 380.827 78.041 380.997 77.1647 381.295C76.2882 381.588 75.6261 381.993 75.1785 382.51C74.7306 383.021 74.5179 383.627 74.5404 384.328C74.5741 385.378 75.1186 386.183 76.174 386.741C77.2247 387.3 78.6941 387.549 80.5823 387.488C81.8412 387.448 82.9064 387.281 83.7782 386.988C84.6499 386.694 85.3073 386.292 85.7504 385.78C86.1934 385.264 86.4035 384.653 86.3809 383.948ZM72.7932 371.508L87.3312 371.042L87.3877 372.802L74.6953 373.209L74.6981 373.294L77.1687 376.768L75.3798 376.825L72.8497 373.268L72.7932 371.508Z" fill="black"/>

<path d="M420.5 519.5V385L330.5 435L289.837 519.5H420.5Z" fill="#D9D9D9" stroke="black"/>
<path d="M349.358 470H347.511L352.852 455.455H354.67L360.011 470H358.165L353.818 457.756H353.705L349.358 470ZM350.04 464.318H357.483V465.881H350.04V464.318ZM362.021 470V468.722L366.822 463.466C367.386 462.85 367.85 462.315 368.214 461.861C368.579 461.402 368.849 460.971 369.024 460.568C369.204 460.161 369.294 459.735 369.294 459.29C369.294 458.778 369.171 458.336 368.925 457.962C368.683 457.588 368.352 457.299 367.93 457.095C367.509 456.892 367.036 456.79 366.51 456.79C365.951 456.79 365.464 456.906 365.047 457.138C364.635 457.365 364.315 457.685 364.088 458.097C363.866 458.509 363.754 458.991 363.754 459.545H362.078C362.078 458.693 362.275 457.945 362.668 457.301C363.061 456.657 363.596 456.155 364.273 455.795C364.955 455.436 365.719 455.256 366.567 455.256C367.419 455.256 368.174 455.436 368.832 455.795C369.491 456.155 370.007 456.641 370.381 457.251C370.755 457.862 370.942 458.542 370.942 459.29C370.942 459.825 370.845 460.348 370.651 460.859C370.461 461.366 370.13 461.932 369.656 462.557C369.188 463.177 368.536 463.935 367.703 464.83L364.436 468.324V468.438H371.197V470H362.021ZM378.875 470.199C377.805 470.199 376.893 469.908 376.141 469.325C375.388 468.738 374.813 467.888 374.415 466.776C374.017 465.658 373.818 464.309 373.818 462.727C373.818 461.155 374.017 459.813 374.415 458.7C374.817 457.583 375.395 456.731 376.148 456.143C376.905 455.552 377.814 455.256 378.875 455.256C379.936 455.256 380.842 455.552 381.595 456.143C382.353 456.731 382.93 457.583 383.328 458.7C383.731 459.813 383.932 461.155 383.932 462.727C383.932 464.309 383.733 465.658 383.335 466.776C382.938 467.888 382.362 468.738 381.609 469.325C380.857 469.908 379.945 470.199 378.875 470.199ZM378.875 468.636C379.936 468.636 380.759 468.125 381.347 467.102C381.934 466.08 382.227 464.621 382.227 462.727C382.227 461.468 382.092 460.395 381.822 459.51C381.557 458.625 381.174 457.95 380.672 457.486C380.175 457.022 379.576 456.79 378.875 456.79C377.824 456.79 377.002 457.308 376.411 458.345C375.819 459.377 375.523 460.838 375.523 462.727C375.523 463.987 375.655 465.057 375.92 465.938C376.186 466.818 376.567 467.488 377.064 467.947C377.566 468.407 378.17 468.636 378.875 468.636ZM391.744 455.455V470H389.983V457.301H389.898L386.347 459.659V457.869L389.983 455.455H391.744ZM400.672 470H396.183V455.455H400.871C402.282 455.455 403.489 455.746 404.493 456.328C405.497 456.906 406.266 457.737 406.801 458.821C407.336 459.901 407.604 461.193 407.604 462.699C407.604 464.214 407.334 465.518 406.794 466.612C406.254 467.701 405.468 468.539 404.436 469.126C403.404 469.709 402.149 470 400.672 470ZM397.945 468.438H400.558C401.761 468.438 402.758 468.205 403.548 467.741C404.339 467.277 404.929 466.617 405.317 465.76C405.705 464.903 405.899 463.883 405.899 462.699C405.899 461.525 405.707 460.514 405.324 459.666C404.94 458.814 404.367 458.161 403.605 457.706C402.843 457.247 401.893 457.017 400.757 457.017H397.945V468.438Z" fill="black"/>
<path d="M354.783 371.703L364.751 382.534C368.708 386.835 367.881 393.656 363.009 396.885L353.688 403.065C348.928 406.221 342.48 404.493 339.935 399.38L333.567 386.59C331.512 382.46 332.72 377.45 336.432 374.711L342.153 370.491C346.055 367.612 351.5 368.135 354.783 371.703Z" fill="#D9D9D9" stroke="black"/>
<rect x="-0.0289955" y="0.692177" width="37.2459" height="4.57246" transform="matrix(0.691517 0.72236 -0.749508 0.661995 353.741 361.9)" fill="#D9D9D9" stroke="black"/>
<rect x="0.690718" y="0.147094" width="27.2285" height="4.01579" rx="2.00789" transform="matrix(0.838187 -0.545383 0.543249 0.839571 326.793 378.298)" fill="#D9D9D9" stroke="black"/>
<rect x="-0.196282" y="0.686694" width="37.6883" height="4.58421" transform="matrix(0.476711 0.87906 -0.869275 0.494329 330.902 380.155)" fill="#D9D9D9" stroke="black"/>

<path d="M420.5 519.5V385.5L518.5 435.5L558 519.5H420.5Z" fill="#D9D9D9" stroke="black"/>
<path d="M448.358 468H446.511L451.852 453.455H453.67L459.011 468H457.165L452.818 455.756H452.705L448.358 468ZM449.04 462.318H456.483V463.881H449.04V462.318ZM461.021 468V466.722L465.822 461.466C466.386 460.85 466.85 460.315 467.214 459.861C467.579 459.402 467.849 458.971 468.024 458.568C468.204 458.161 468.294 457.735 468.294 457.29C468.294 456.778 468.171 456.336 467.925 455.962C467.683 455.588 467.352 455.299 466.93 455.095C466.509 454.892 466.036 454.79 465.51 454.79C464.951 454.79 464.464 454.906 464.047 455.138C463.635 455.365 463.315 455.685 463.088 456.097C462.866 456.509 462.754 456.991 462.754 457.545H461.078C461.078 456.693 461.275 455.945 461.668 455.301C462.061 454.657 462.596 454.155 463.273 453.795C463.955 453.436 464.719 453.256 465.567 453.256C466.419 453.256 467.174 453.436 467.832 453.795C468.491 454.155 469.007 454.641 469.381 455.251C469.755 455.862 469.942 456.542 469.942 457.29C469.942 457.825 469.845 458.348 469.651 458.859C469.461 459.366 469.13 459.932 468.656 460.557C468.188 461.177 467.536 461.935 466.703 462.83L463.436 466.324V466.438H470.197V468H461.021ZM477.875 468.199C476.805 468.199 475.893 467.908 475.141 467.325C474.388 466.738 473.813 465.888 473.415 464.776C473.017 463.658 472.818 462.309 472.818 460.727C472.818 459.155 473.017 457.813 473.415 456.7C473.817 455.583 474.395 454.731 475.148 454.143C475.905 453.552 476.814 453.256 477.875 453.256C478.936 453.256 479.842 453.552 480.595 454.143C481.353 454.731 481.93 455.583 482.328 456.7C482.731 457.813 482.932 459.155 482.932 460.727C482.932 462.309 482.733 463.658 482.335 464.776C481.938 465.888 481.362 466.738 480.609 467.325C479.857 467.908 478.945 468.199 477.875 468.199ZM477.875 466.636C478.936 466.636 479.759 466.125 480.347 465.102C480.934 464.08 481.227 462.621 481.227 460.727C481.227 459.468 481.092 458.395 480.822 457.51C480.557 456.625 480.174 455.95 479.672 455.486C479.175 455.022 478.576 454.79 477.875 454.79C476.824 454.79 476.002 455.308 475.411 456.345C474.819 457.377 474.523 458.838 474.523 460.727C474.523 461.987 474.655 463.057 474.92 463.938C475.186 464.818 475.567 465.488 476.064 465.947C476.566 466.407 477.17 466.636 477.875 466.636ZM485.29 465.017V463.568L491.682 453.455H492.733V455.699H492.023L487.193 463.341V463.455H495.801V465.017H485.29ZM492.136 468V464.577V463.902V453.455H493.812V468H492.136ZM503.207 468H498.718V453.455H503.406C504.817 453.455 506.024 453.746 507.028 454.328C508.032 454.906 508.801 455.737 509.336 456.821C509.871 457.901 510.139 459.193 510.139 460.699C510.139 462.214 509.869 463.518 509.329 464.612C508.789 465.701 508.003 466.539 506.971 467.126C505.939 467.709 504.684 468 503.207 468ZM500.48 466.438H503.093C504.296 466.438 505.293 466.205 506.083 465.741C506.874 465.277 507.464 464.617 507.852 463.76C508.24 462.903 508.434 461.883 508.434 460.699C508.434 459.525 508.243 458.514 507.859 457.666C507.475 456.814 506.903 456.161 506.14 455.706C505.378 455.247 504.429 455.017 503.292 455.017H500.48V466.438Z" fill="black"/>
<path d="M581.719 467.623L569.935 476.444C565.256 479.946 558.554 478.433 555.834 473.26L550.629 463.361C547.971 458.307 550.342 452.066 555.686 450.051L569.055 445.01C573.372 443.383 578.234 445.092 580.583 449.062L584.203 455.18C586.672 459.354 585.602 464.717 581.719 467.623Z" fill="#D9D9D9" stroke="black"/>
<rect x="-0.685693" y="-0.0988691" width="37.2459" height="4.57246" transform="matrix(-0.78861 0.614894 -0.582777 -0.812632 590.598 467.339)" fill="#D9D9D9" stroke="black"/>
<rect x="-0.216214" y="0.672294" width="27.2285" height="4.01579" rx="2.00789" transform="matrix(0.457793 0.889059 -0.890221 0.455529 578.872 439.676)" fill="#D9D9D9" stroke="black"/>
<rect x="-0.663315" y="-0.264743" width="37.6883" height="4.58421" transform="matrix(-0.922776 0.385338 -0.403855 -0.914823 574.911 442.318)" fill="#D9D9D9" stroke="black"/>

<path d="M330 608L290 519.5H420.5V658L330 608Z" fill="#D9D9D9" stroke="black"/>
<path d="M349.358 572H347.511L352.852 557.455H354.67L360.011 572H358.165L353.818 559.756H353.705L349.358 572ZM350.04 566.318H357.483V567.881H350.04V566.318ZM362.021 572V570.722L366.822 565.466C367.386 564.85 367.85 564.315 368.214 563.861C368.579 563.402 368.849 562.971 369.024 562.568C369.204 562.161 369.294 561.735 369.294 561.29C369.294 560.778 369.171 560.336 368.925 559.962C368.683 559.588 368.352 559.299 367.93 559.095C367.509 558.892 367.036 558.79 366.51 558.79C365.951 558.79 365.464 558.906 365.047 559.138C364.635 559.365 364.315 559.685 364.088 560.097C363.866 560.509 363.754 560.991 363.754 561.545H362.078C362.078 560.693 362.275 559.945 362.668 559.301C363.061 558.657 363.596 558.155 364.273 557.795C364.955 557.436 365.719 557.256 366.567 557.256C367.419 557.256 368.174 557.436 368.832 557.795C369.491 558.155 370.007 558.641 370.381 559.251C370.755 559.862 370.942 560.542 370.942 561.29C370.942 561.825 370.845 562.348 370.651 562.859C370.461 563.366 370.13 563.932 369.656 564.557C369.188 565.177 368.536 565.935 367.703 566.83L364.436 570.324V570.438H371.197V572H362.021ZM378.875 572.199C377.805 572.199 376.893 571.908 376.141 571.325C375.388 570.738 374.813 569.888 374.415 568.776C374.017 567.658 373.818 566.309 373.818 564.727C373.818 563.155 374.017 561.813 374.415 560.7C374.817 559.583 375.395 558.731 376.148 558.143C376.905 557.552 377.814 557.256 378.875 557.256C379.936 557.256 380.842 557.552 381.595 558.143C382.353 558.731 382.93 559.583 383.328 560.7C383.731 561.813 383.932 563.155 383.932 564.727C383.932 566.309 383.733 567.658 383.335 568.776C382.938 569.888 382.362 570.738 381.609 571.325C380.857 571.908 379.945 572.199 378.875 572.199ZM378.875 570.636C379.936 570.636 380.759 570.125 381.347 569.102C381.934 568.08 382.227 566.621 382.227 564.727C382.227 563.468 382.092 562.395 381.822 561.51C381.557 560.625 381.174 559.95 380.672 559.486C380.175 559.022 379.576 558.79 378.875 558.79C377.824 558.79 377.002 559.308 376.411 560.345C375.819 561.377 375.523 562.838 375.523 564.727C375.523 565.987 375.655 567.057 375.92 567.938C376.186 568.818 376.567 569.488 377.064 569.947C377.566 570.407 378.17 570.636 378.875 570.636ZM386.631 572V570.722L391.432 565.466C391.995 564.85 392.459 564.315 392.824 563.861C393.188 563.402 393.458 562.971 393.634 562.568C393.813 562.161 393.903 561.735 393.903 561.29C393.903 560.778 393.78 560.336 393.534 559.962C393.293 559.588 392.961 559.299 392.54 559.095C392.118 558.892 391.645 558.79 391.119 558.79C390.561 558.79 390.073 558.906 389.656 559.138C389.244 559.365 388.925 559.685 388.697 560.097C388.475 560.509 388.364 560.991 388.364 561.545H386.688C386.688 560.693 386.884 559.945 387.277 559.301C387.67 558.657 388.205 558.155 388.882 557.795C389.564 557.436 390.329 557.256 391.176 557.256C392.028 557.256 392.784 557.436 393.442 557.795C394.1 558.155 394.616 558.641 394.99 559.251C395.364 559.862 395.551 560.542 395.551 561.29C395.551 561.825 395.454 562.348 395.26 562.859C395.071 563.366 394.739 563.932 394.266 564.557C393.797 565.177 393.146 565.935 392.312 566.83L389.045 570.324V570.438H395.807V572H386.631ZM403.484 572H398.996V557.455H403.683C405.094 557.455 406.302 557.746 407.305 558.328C408.309 558.906 409.079 559.737 409.614 560.821C410.149 561.901 410.416 563.193 410.416 564.699C410.416 566.214 410.146 567.518 409.607 568.612C409.067 569.701 408.281 570.539 407.249 571.126C406.216 571.709 404.962 572 403.484 572ZM400.757 570.438H403.371C404.573 570.438 405.57 570.205 406.361 569.741C407.152 569.277 407.741 568.617 408.129 567.76C408.518 566.903 408.712 565.883 408.712 564.699C408.712 563.525 408.52 562.514 408.136 561.666C407.753 560.814 407.18 560.161 406.418 559.706C405.655 559.247 404.706 559.017 403.57 559.017H400.757V570.438Z" fill="black"/>
<path d="M265.006 568.332L277.219 560.116C282.068 556.854 288.686 558.703 291.142 564.006L295.842 574.154C298.242 579.336 295.56 585.45 290.121 587.193L276.515 591.554C272.122 592.962 267.352 591.011 265.206 586.927L261.899 580.634C259.643 576.342 260.982 571.039 265.006 568.332Z" fill="#D9D9D9" stroke="black"/>
<rect x="0.679846" y="0.133267" width="37.2459" height="4.57246" transform="matrix(0.818568 -0.574409 0.541123 0.840943 254.88 568.758)" fill="#D9D9D9" stroke="black"/>
<rect x="0.249788" y="-0.660556" width="27.2285" height="4.01579" rx="2.00789" transform="matrix(-0.41245 -0.91098 0.912027 -0.410131 267.85 596.264)" fill="#D9D9D9" stroke="black"/>
<rect x="0.649145" y="0.297804" width="37.6883" height="4.58421" transform="matrix(0.941006 -0.338389 0.357283 0.933996 269.095 593.866)" fill="#D9D9D9" stroke="black"/>

<path d="M420.5 519.5V657.5L518.5 609L558 519.5H420.5Z" fill="#D9D9D9" stroke="black"/>
<path d="M448.358 573H446.511L451.852 558.455H453.67L459.011 573H457.165L452.818 560.756H452.705L448.358 573ZM449.04 567.318H456.483V568.881H449.04V567.318ZM461.021 573V571.722L465.822 566.466C466.386 565.85 466.85 565.315 467.214 564.861C467.579 564.402 467.849 563.971 468.024 563.568C468.204 563.161 468.294 562.735 468.294 562.29C468.294 561.778 468.171 561.336 467.925 560.962C467.683 560.588 467.352 560.299 466.93 560.095C466.509 559.892 466.036 559.79 465.51 559.79C464.951 559.79 464.464 559.906 464.047 560.138C463.635 560.365 463.315 560.685 463.088 561.097C462.866 561.509 462.754 561.991 462.754 562.545H461.078C461.078 561.693 461.275 560.945 461.668 560.301C462.061 559.657 462.596 559.155 463.273 558.795C463.955 558.436 464.719 558.256 465.567 558.256C466.419 558.256 467.174 558.436 467.832 558.795C468.491 559.155 469.007 559.641 469.381 560.251C469.755 560.862 469.942 561.542 469.942 562.29C469.942 562.825 469.845 563.348 469.651 563.859C469.461 564.366 469.13 564.932 468.656 565.557C468.188 566.177 467.536 566.935 466.703 567.83L463.436 571.324V571.438H470.197V573H461.021ZM477.875 573.199C476.805 573.199 475.893 572.908 475.141 572.325C474.388 571.738 473.813 570.888 473.415 569.776C473.017 568.658 472.818 567.309 472.818 565.727C472.818 564.155 473.017 562.813 473.415 561.7C473.817 560.583 474.395 559.731 475.148 559.143C475.905 558.552 476.814 558.256 477.875 558.256C478.936 558.256 479.842 558.552 480.595 559.143C481.353 559.731 481.93 560.583 482.328 561.7C482.731 562.813 482.932 564.155 482.932 565.727C482.932 567.309 482.733 568.658 482.335 569.776C481.938 570.888 481.362 571.738 480.609 572.325C479.857 572.908 478.945 573.199 477.875 573.199ZM477.875 571.636C478.936 571.636 479.759 571.125 480.347 570.102C480.934 569.08 481.227 567.621 481.227 565.727C481.227 564.468 481.092 563.395 480.822 562.51C480.557 561.625 480.174 560.95 479.672 560.486C479.175 560.022 478.576 559.79 477.875 559.79C476.824 559.79 476.002 560.308 475.411 561.345C474.819 562.377 474.523 563.838 474.523 565.727C474.523 566.987 474.655 568.057 474.92 568.938C475.186 569.818 475.567 570.488 476.064 570.947C476.566 571.407 477.17 571.636 477.875 571.636ZM490.545 573.199C489.608 573.199 488.772 573.038 488.038 572.716C487.309 572.394 486.729 571.946 486.298 571.374C485.872 570.796 485.64 570.126 485.602 569.364H487.392C487.43 569.832 487.591 570.237 487.875 570.578C488.159 570.914 488.531 571.175 488.99 571.359C489.449 571.544 489.958 571.636 490.517 571.636C491.142 571.636 491.696 571.527 492.179 571.31C492.662 571.092 493.041 570.789 493.315 570.401C493.59 570.012 493.727 569.562 493.727 569.051C493.727 568.516 493.595 568.045 493.33 567.638C493.064 567.226 492.676 566.904 492.165 566.672C491.653 566.44 491.028 566.324 490.29 566.324H489.125V564.761H490.29C490.867 564.761 491.374 564.657 491.81 564.449C492.25 564.241 492.593 563.947 492.839 563.568C493.09 563.189 493.216 562.744 493.216 562.233C493.216 561.741 493.107 561.312 492.889 560.947C492.671 560.583 492.364 560.299 491.966 560.095C491.573 559.892 491.109 559.79 490.574 559.79C490.072 559.79 489.598 559.882 489.153 560.067C488.713 560.247 488.353 560.509 488.074 560.855C487.795 561.196 487.643 561.608 487.619 562.091H485.915C485.943 561.329 486.173 560.661 486.604 560.088C487.035 559.51 487.598 559.061 488.294 558.739C488.995 558.417 489.764 558.256 490.602 558.256C491.502 558.256 492.274 558.438 492.918 558.803C493.562 559.162 494.056 559.638 494.402 560.23C494.748 560.822 494.92 561.461 494.92 562.148C494.92 562.967 494.705 563.665 494.274 564.243C493.848 564.821 493.268 565.221 492.534 565.443V565.557C493.453 565.708 494.17 566.099 494.686 566.729C495.202 567.354 495.46 568.128 495.46 569.051C495.46 569.842 495.245 570.552 494.814 571.182C494.388 571.807 493.805 572.299 493.067 572.659C492.328 573.019 491.488 573.199 490.545 573.199ZM503.109 573H498.621V558.455H503.308C504.719 558.455 505.927 558.746 506.93 559.328C507.934 559.906 508.704 560.737 509.239 561.821C509.774 562.901 510.041 564.193 510.041 565.699C510.041 567.214 509.771 568.518 509.232 569.612C508.692 570.701 507.906 571.539 506.874 572.126C505.841 572.709 504.587 573 503.109 573ZM500.382 571.438H502.996C504.198 571.438 505.195 571.205 505.986 570.741C506.777 570.277 507.366 569.617 507.754 568.76C508.143 567.903 508.337 566.883 508.337 565.699C508.337 564.525 508.145 563.514 507.761 562.666C507.378 561.814 506.805 561.161 506.043 560.706C505.28 560.247 504.331 560.017 503.195 560.017H500.382V571.438Z" fill="black"/>
<path d="M488.574 670.384L479.205 659.031C475.485 654.523 476.679 647.757 481.717 644.795L491.358 639.127C496.282 636.232 502.628 638.305 504.893 643.548L510.561 656.663C512.391 660.898 510.915 665.835 507.06 668.37L501.12 672.275C497.068 674.939 491.66 674.124 488.574 670.384Z" fill="#D9D9D9" stroke="black"/>
<rect x="0.0662841" y="-0.689606" width="37.2459" height="4.57246" transform="matrix(-0.651552 -0.758604 0.784121 -0.620609 490.231 679.443)" fill="#D9D9D9" stroke="black"/>
<rect x="-0.681779" y="-0.184132" width="27.2285" height="4.01579" rx="2.00789" transform="matrix(-0.866381 0.499384 -0.497178 -0.867648 515.525 665.706)" fill="#D9D9D9" stroke="black"/>
<rect x="0.233032" y="-0.675109" width="37.6883" height="4.58421" transform="matrix(-0.428607 -0.903491 0.89467 -0.446727 514.279 663.011)" fill="#D9D9D9" stroke="black"/>

<rect x="22.5" y="319.5" width="816" height="20" fill="#D9D9D9" stroke="black"/>
<rect x="25.5" y="87.5" width="816" height="20" fill="#D9D9D9" stroke="black"/>
<rect x="72.5" y="288.5" width="180" height="20" transform="rotate(-90 72.5 288.5)" fill="#D9D9D9" stroke="black"/>
<rect x="776.5" y="281.5" width="173" height="20" transform="rotate(-90 776.5 281.5)" fill="#D9D9D9" stroke="black"/>
<rect x="498.5" y="318.5" width="210" height="20" transform="rotate(-90 498.5 318.5)" fill="#D9D9D9" stroke="black"/>
<line x1="420.5" y1="386" x2="420.544" y2="659" stroke="black"/>
<line x1="289" y1="519.5" x2="557" y2="519.5" stroke="black"/>
</svg>
