<svg width="884" height="798" viewBox="0 0 884 798" fill="none" xmlns="http://www.w3.org/2000/svg">
<rect x="1.5" y="1.49951" width="881" height="795" fill="white" stroke="black" stroke-width="3"/>
<path d="M139.938 182.663L154.473 180.341C160.245 179.419 165.472 183.877 165.472 189.722V200.905C165.472 206.616 160.469 211.037 154.802 210.333L140.623 208.572C136.045 208.003 132.537 204.228 132.305 199.62L131.949 192.521C131.706 187.677 135.15 183.428 139.938 182.663Z" fill="#D9D9D9" stroke="black"/>
<rect x="0.560887" y="0.40664" width="37.2459" height="4.57246" transform="matrix(0.984173 -0.177208 0.1376 0.990488 130.034 179.878)" fill="#D9D9D9" stroke="black"/>
<rect x="0.504265" y="-0.494413" width="27.2285" height="4.01579" rx="2.00789" transform="matrix(0.00859242 -0.999963 0.999938 0.0111364 129.994 210.832)" fill="#D9D9D9" stroke="black"/>
<rect x="0.46388" y="0.543039" width="37.6883" height="4.58421" transform="matrix(0.996084 0.0884141 -0.0683233 0.997663 132.502 208.699)" fill="#D9D9D9" stroke="black"/>
<path d="M140.938 250.933L155.473 248.611C161.245 247.689 166.472 252.147 166.472 257.992V269.175C166.472 274.886 161.469 279.307 155.802 278.603L141.623 276.842C137.045 276.273 133.537 272.498 133.305 267.89L132.949 260.791C132.706 255.947 136.15 251.698 140.938 250.933Z" fill="#D9D9D9" stroke="black"/>
<rect x="0.560887" y="0.40664" width="37.2459" height="4.57246" transform="matrix(0.984173 -0.177208 0.1376 0.990488 128.034 247.881)" fill="#D9D9D9" stroke="black"/>
<rect x="0.504265" y="-0.494413" width="27.2285" height="4.01579" rx="2.00789" transform="matrix(0.00859242 -0.999963 0.999938 0.0111364 127.994 278.835)" fill="#D9D9D9" stroke="black"/>
<rect x="0.46388" y="0.543039" width="37.6883" height="4.58421" transform="matrix(0.996084 0.0884141 -0.0683233 0.997663 130.502 276.701)" fill="#D9D9D9" stroke="black"/>
<path d="M427.119 207.054L412.542 209.098C406.754 209.909 401.612 205.352 401.724 199.508L401.939 188.327C402.048 182.616 407.135 178.293 412.788 179.105L426.931 181.138C431.497 181.794 434.932 185.636 435.075 190.247L435.295 197.352C435.445 202.199 431.921 206.381 427.119 207.054Z" fill="#D9D9D9" stroke="black"/>
<rect x="-0.552991" y="-0.417314" width="37.2459" height="4.57246" transform="matrix(-0.987389 0.158314 -0.118593 -0.992943 436.893 210.722)" fill="#D9D9D9" stroke="black"/>
<rect x="-0.513648" y="0.484659" width="27.2285" height="4.01579" rx="2.00789" transform="matrix(-0.0277546 0.999615 -0.999541 -0.0302976 439.673 181.462)" fill="#D9D9D9" stroke="black"/>
<rect x="-0.453388" y="-0.551829" width="37.6883" height="4.58421" transform="matrix(-0.994207 -0.107487 0.0874305 -0.996171 435.358 181.312)" fill="#D9D9D9" stroke="black"/>
<path d="M260.988 125.35L263.196 139.903C264.073 145.681 259.574 150.874 253.729 150.828L242.546 150.74C236.835 150.695 232.454 145.658 233.203 139.996L235.075 125.831C235.679 121.258 239.482 117.78 244.091 117.584L251.193 117.284C256.038 117.078 260.26 120.555 260.988 125.35Z" fill="#D9D9D9" stroke="black"/>
<rect x="-0.41102" y="0.557685" width="37.2459" height="4.57246" transform="matrix(0.169494 0.985531 -0.991535 0.129839 265.487 115.268)" fill="#D9D9D9" stroke="black"/>
<rect x="0.490449" y="0.508122" width="27.2285" height="4.01579" rx="2.00789" transform="matrix(0.999865 0.0164237 -0.0189674 0.99982 234.251 113.046)" fill="#D9D9D9" stroke="black"/>
<rect x="-0.546655" y="0.459613" width="37.6883" height="4.58421" transform="matrix(-0.0962126 0.995361 -0.997098 -0.0761347 236.152 117.572)" fill="#D9D9D9" stroke="black"/>
<path d="M334.988 126.35L337.196 140.903C338.073 146.682 333.574 151.874 327.729 151.828L316.546 151.741C310.835 151.696 306.454 146.658 307.203 140.996L309.075 126.832C309.679 122.258 313.482 118.78 318.091 118.585L325.193 118.284C330.038 118.079 334.26 121.556 334.988 126.35Z" fill="#D9D9D9" stroke="black"/>
<rect x="-0.41102" y="0.557685" width="37.2459" height="4.57246" transform="matrix(0.169494 0.985531 -0.991535 0.129839 339.487 116.269)" fill="#D9D9D9" stroke="black"/>
<rect x="0.490449" y="0.508122" width="27.2285" height="4.01579" rx="2.00789" transform="matrix(0.999865 0.0164237 -0.0189674 0.99982 308.251 114.046)" fill="#D9D9D9" stroke="black"/>
<rect x="-0.546655" y="0.459613" width="37.6883" height="4.58421" transform="matrix(-0.0962126 0.995361 -0.997098 -0.0761347 310.152 118.572)" fill="#D9D9D9" stroke="black"/>
<path d="M422.119 269.054L407.542 271.098C401.754 271.909 396.612 267.352 396.724 261.508L396.939 250.327C397.048 244.616 402.135 240.293 407.788 241.105L421.931 243.138C426.497 243.794 429.932 247.636 430.075 252.247L430.295 259.352C430.445 264.199 426.921 268.381 422.119 269.054Z" fill="#D9D9D9" stroke="black"/>
<rect x="-0.552991" y="-0.417314" width="37.2459" height="4.57246" transform="matrix(-0.987389 0.158314 -0.118593 -0.992943 433.893 271.722)" fill="#D9D9D9" stroke="black"/>
<rect x="-0.513648" y="0.484659" width="27.2285" height="4.01579" rx="2.00789" transform="matrix(-0.0277546 0.999615 -0.999541 -0.0302976 436.673 242.462)" fill="#D9D9D9" stroke="black"/>
<rect x="-0.453388" y="-0.551829" width="37.6883" height="4.58421" transform="matrix(-0.994207 -0.107487 0.0874305 -0.996171 432.358 242.312)" fill="#D9D9D9" stroke="black"/>
<rect x="186.5" y="173.497" width="193" height="101" fill="#D9D9D9" stroke="black"/>
<path d="M273.705 223C273.548 222.522 273.342 222.093 273.087 221.714C272.836 221.331 272.535 221.004 272.185 220.734C271.839 220.464 271.446 220.259 271.006 220.116C270.565 219.974 270.082 219.903 269.557 219.903C268.695 219.903 267.911 220.126 267.206 220.571C266.5 221.016 265.939 221.672 265.523 222.538C265.106 223.405 264.898 224.468 264.898 225.727C264.898 226.987 265.108 228.05 265.53 228.916C265.951 229.783 266.522 230.438 267.241 230.884C267.961 231.329 268.771 231.551 269.67 231.551C270.504 231.551 271.238 231.374 271.872 231.018C272.511 230.659 273.009 230.152 273.364 229.499C273.723 228.84 273.903 228.066 273.903 227.176L274.443 227.29H270.068V225.727H275.608V227.29C275.608 228.488 275.352 229.529 274.841 230.415C274.334 231.3 273.634 231.987 272.739 232.474C271.848 232.957 270.826 233.199 269.67 233.199C268.383 233.199 267.251 232.896 266.276 232.29C265.305 231.684 264.547 230.822 264.003 229.705C263.463 228.587 263.193 227.261 263.193 225.727C263.193 224.577 263.347 223.542 263.655 222.624C263.967 221.7 264.408 220.914 264.976 220.266C265.544 219.617 266.216 219.12 266.993 218.774C267.769 218.429 268.624 218.256 269.557 218.256C270.324 218.256 271.039 218.372 271.702 218.604C272.369 218.831 272.964 219.155 273.484 219.577C274.01 219.993 274.448 220.493 274.798 221.075C275.149 221.653 275.39 222.295 275.523 223H273.705ZM283.483 218.455V233H281.721V220.301H281.636L278.085 222.659V220.869L281.721 218.455H283.483Z" fill="black"/>
<path d="M551.938 179.666L566.473 177.344C572.245 176.422 577.472 180.88 577.472 186.725V197.908C577.472 203.619 572.469 208.04 566.802 207.336L552.623 205.575C548.045 205.006 544.537 201.231 544.305 196.623L543.949 189.523C543.706 184.68 547.15 180.431 551.938 179.666Z" fill="#D9D9D9" stroke="black"/>
<rect x="0.560887" y="0.40664" width="37.2459" height="4.57246" transform="matrix(0.984173 -0.177208 0.1376 0.990488 539.034 175.881)" fill="#D9D9D9" stroke="black"/>
<rect x="0.504265" y="-0.494413" width="27.2285" height="4.01579" rx="2.00789" transform="matrix(0.00859242 -0.999963 0.999938 0.0111364 538.994 206.835)" fill="#D9D9D9" stroke="black"/>
<rect x="0.46388" y="0.543039" width="37.6883" height="4.58421" transform="matrix(0.996084 0.0884141 -0.0683233 0.997663 541.502 204.701)" fill="#D9D9D9" stroke="black"/>
<path d="M550.938 241.666L565.473 239.344C571.245 238.422 576.472 242.88 576.472 248.725V259.908C576.472 265.619 571.469 270.04 565.802 269.336L551.623 267.575C547.045 267.006 543.537 263.231 543.305 258.623L542.949 251.523C542.706 246.68 546.15 242.431 550.938 241.666Z" fill="#D9D9D9" stroke="black"/>
<rect x="0.560887" y="0.40664" width="37.2459" height="4.57246" transform="matrix(0.984173 -0.177208 0.1376 0.990488 539.034 238.614)" fill="#D9D9D9" stroke="black"/>
<rect x="0.504265" y="-0.494413" width="27.2285" height="4.01579" rx="2.00789" transform="matrix(0.00859242 -0.999963 0.999938 0.0111364 538.994 269.568)" fill="#D9D9D9" stroke="black"/>
<rect x="0.46388" y="0.543039" width="37.6883" height="4.58421" transform="matrix(0.996084 0.0884141 -0.0683233 0.997663 541.502 267.434)" fill="#D9D9D9" stroke="black"/>
<path d="M727.119 204.054L712.542 206.098C706.754 206.909 701.612 202.352 701.724 196.508L701.939 185.327C702.048 179.616 707.135 175.293 712.788 176.105L726.931 178.138C731.497 178.794 734.932 182.636 735.075 187.247L735.295 194.352C735.445 199.199 731.921 203.381 727.119 204.054Z" fill="#D9D9D9" stroke="black"/>
<rect x="-0.552991" y="-0.417314" width="37.2459" height="4.57246" transform="matrix(-0.987389 0.158314 -0.118593 -0.992943 737.893 207.722)" fill="#D9D9D9" stroke="black"/>
<rect x="-0.513648" y="0.484659" width="27.2285" height="4.01579" rx="2.00789" transform="matrix(-0.0277546 0.999615 -0.999541 -0.0302976 740.673 178.462)" fill="#D9D9D9" stroke="black"/>
<rect x="-0.453388" y="-0.551829" width="37.6883" height="4.58421" transform="matrix(-0.994207 -0.107487 0.0874305 -0.996171 736.358 178.312)" fill="#D9D9D9" stroke="black"/>
<path d="M725.119 265.054L710.542 267.098C704.754 267.909 699.612 263.352 699.724 257.508L699.939 246.327C700.048 240.616 705.135 236.293 710.788 237.105L724.931 239.138C729.497 239.794 732.932 243.636 733.075 248.247L733.295 255.352C733.445 260.199 729.921 264.381 725.119 265.054Z" fill="#D9D9D9" stroke="black"/>
<rect x="-0.552991" y="-0.417314" width="37.2459" height="4.57246" transform="matrix(-0.987389 0.158314 -0.118593 -0.992943 734.893 268.722)" fill="#D9D9D9" stroke="black"/>
<rect x="-0.513648" y="0.484659" width="27.2285" height="4.01579" rx="2.00789" transform="matrix(-0.0277546 0.999615 -0.999541 -0.0302976 737.673 239.462)" fill="#D9D9D9" stroke="black"/>
<rect x="-0.453388" y="-0.551829" width="37.6883" height="4.58421" transform="matrix(-0.994207 -0.107487 0.0874305 -0.996171 733.358 239.312)" fill="#D9D9D9" stroke="black"/>
<rect x="599.5" y="170.233" width="81" height="101" fill="#D9D9D9" stroke="black"/>
<path d="M636.705 218C636.548 217.522 636.342 217.093 636.087 216.714C635.836 216.331 635.535 216.004 635.185 215.734C634.839 215.464 634.446 215.259 634.006 215.116C633.565 214.974 633.082 214.903 632.557 214.903C631.695 214.903 630.911 215.126 630.206 215.571C629.5 216.016 628.939 216.672 628.523 217.538C628.106 218.405 627.898 219.468 627.898 220.727C627.898 221.987 628.108 223.05 628.53 223.916C628.951 224.783 629.522 225.438 630.241 225.884C630.961 226.329 631.771 226.551 632.67 226.551C633.504 226.551 634.238 226.374 634.872 226.018C635.511 225.659 636.009 225.152 636.364 224.499C636.723 223.84 636.903 223.066 636.903 222.176L637.443 222.29H633.068V220.727H638.608V222.29C638.608 223.488 638.352 224.529 637.841 225.415C637.334 226.3 636.634 226.987 635.739 227.474C634.848 227.957 633.826 228.199 632.67 228.199C631.383 228.199 630.251 227.896 629.276 227.29C628.305 226.684 627.547 225.822 627.003 224.705C626.463 223.587 626.193 222.261 626.193 220.727C626.193 219.577 626.347 218.542 626.655 217.624C626.967 216.7 627.408 215.914 627.976 215.266C628.544 214.617 629.216 214.12 629.993 213.774C630.769 213.429 631.624 213.256 632.557 213.256C633.324 213.256 634.039 213.372 634.702 213.604C635.369 213.831 635.964 214.155 636.484 214.577C637.01 214.993 637.448 215.493 637.798 216.075C638.149 216.653 638.39 217.295 638.523 218H636.705ZM641.369 228V226.722L646.17 221.466C646.734 220.85 647.198 220.315 647.562 219.861C647.927 219.402 648.197 218.971 648.372 218.568C648.552 218.161 648.642 217.735 648.642 217.29C648.642 216.778 648.519 216.336 648.272 215.962C648.031 215.588 647.699 215.299 647.278 215.095C646.857 214.892 646.383 214.79 645.858 214.79C645.299 214.79 644.811 214.906 644.395 215.138C643.983 215.365 643.663 215.685 643.436 216.097C643.213 216.509 643.102 216.991 643.102 217.545H641.426C641.426 216.693 641.622 215.945 642.015 215.301C642.408 214.657 642.943 214.155 643.62 213.795C644.302 213.436 645.067 213.256 645.914 213.256C646.767 213.256 647.522 213.436 648.18 213.795C648.838 214.155 649.354 214.641 649.728 215.251C650.102 215.862 650.289 216.542 650.289 217.29C650.289 217.825 650.192 218.348 649.998 218.859C649.809 219.366 649.477 219.932 649.004 220.557C648.535 221.177 647.884 221.935 647.051 222.83L643.784 226.324V226.438H650.545V228H641.369Z" fill="black"/>
<path d="M710.785 505.812L725.341 503.624C731.121 502.756 736.306 507.262 736.252 513.107L736.148 524.29C736.095 530.001 731.051 534.374 725.39 533.618L711.228 531.725C706.656 531.114 703.183 527.306 702.995 522.697L702.704 515.594C702.506 510.749 705.989 506.532 710.785 505.812Z" fill="#D9D9D9" stroke="black"/>
<rect x="0.557087" y="0.411831" width="37.2459" height="4.57246" transform="matrix(0.985777 -0.168061 0.128397 0.991723 698.53 502.529)" fill="#D9D9D9" stroke="black"/>
<rect x="0.508835" y="-0.489709" width="27.2285" height="4.01579" rx="2.00789" transform="matrix(0.0178777 -0.99984 0.999791 0.0204213 698.195 533.492)" fill="#D9D9D9" stroke="black"/>
<rect x="0.458818" y="0.547323" width="37.6883" height="4.58421" transform="matrix(0.99522 0.0976599 -0.0775846 0.996986 700.733 531.373)" fill="#D9D9D9" stroke="black"/>
<rect x="747.554" y="483.992" width="43" height="68" transform="rotate(0.566067 747.554 483.992)" fill="#D9D9D9" stroke="black"/>
<path d="M710.785 373.812L725.341 371.624C731.121 370.756 736.306 375.262 736.252 381.107L736.148 392.29C736.095 398.001 731.051 402.374 725.39 401.618L711.228 399.725C706.656 399.114 703.183 395.306 702.995 390.697L702.704 383.594C702.506 378.749 705.989 374.532 710.785 373.812Z" fill="#D9D9D9" stroke="black"/>
<rect x="0.557087" y="0.411831" width="37.2459" height="4.57246" transform="matrix(0.985777 -0.168061 0.128397 0.991723 698.53 370.529)" fill="#D9D9D9" stroke="black"/>
<rect x="0.508835" y="-0.489709" width="27.2285" height="4.01579" rx="2.00789" transform="matrix(0.0178777 -0.99984 0.999791 0.0204213 698.195 401.492)" fill="#D9D9D9" stroke="black"/>
<rect x="0.458818" y="0.547323" width="37.6883" height="4.58421" transform="matrix(0.99522 0.0976599 -0.0775846 0.996986 700.733 399.373)" fill="#D9D9D9" stroke="black"/>
<rect x="747.554" y="351.992" width="43" height="68" transform="rotate(0.566067 747.554 351.992)" fill="#D9D9D9" stroke="black"/>
<path d="M146.118 687.609L131.646 690.298C125.899 691.365 120.561 687.04 120.414 681.197L120.132 670.017C119.988 664.308 124.878 659.763 130.561 660.324L144.78 661.726C149.371 662.179 152.973 665.865 153.32 670.465L153.856 677.554C154.221 682.389 150.885 686.724 146.118 687.609Z" fill="#D9D9D9" stroke="black"/>
<rect x="-0.570962" y="-0.392368" width="37.2459" height="4.57246" transform="matrix(-0.979392 0.201967 -0.162531 -0.986703 154.268 690.975)" fill="#D9D9D9" stroke="black"/>
<rect x="-0.491638" y="0.506971" width="27.2285" height="4.01579" rx="2.00789" transform="matrix(0.0166238 0.999862 -0.999901 0.01408 155.783 661.571)" fill="#D9D9D9" stroke="black"/>
<rect x="-0.477425" y="-0.53117" width="37.6883" height="4.58421" transform="matrix(-0.997997 -0.0632703 0.0431461 -0.999069 151.419 661.653)" fill="#D9D9D9" stroke="black"/>
<rect x="107.148" y="711.758" width="43" height="68" transform="rotate(178.589 107.148 711.758)" fill="#D9D9D9" stroke="black"/>
<path d="M144.143 539.559L129.67 542.247C123.924 543.314 118.586 538.989 118.438 533.146L118.156 521.966C118.012 516.257 122.903 511.712 128.586 512.273L142.805 513.676C147.396 514.129 150.998 517.814 151.345 522.414L151.881 529.503C152.246 534.339 148.91 538.673 144.143 539.559Z" fill="#D9D9D9" stroke="black"/>
<rect x="-0.570962" y="-0.392368" width="37.2459" height="4.57246" transform="matrix(-0.979392 0.201967 -0.162531 -0.986703 152.293 542.924)" fill="#D9D9D9" stroke="black"/>
<rect x="-0.491638" y="0.506971" width="27.2285" height="4.01579" rx="2.00789" transform="matrix(0.0166238 0.999862 -0.999901 0.01408 153.808 513.52)" fill="#D9D9D9" stroke="black"/>
<rect x="-0.477425" y="-0.53117" width="37.6883" height="4.58421" transform="matrix(-0.997997 -0.0632703 0.0431461 -0.999069 149.444 513.602)" fill="#D9D9D9" stroke="black"/>
<rect x="105.173" y="563.707" width="43" height="68" transform="rotate(178.589 105.173 563.707)" fill="#D9D9D9" stroke="black"/>
<path d="M144.143 405.559L129.67 408.247C123.924 409.314 118.586 404.989 118.438 399.146L118.156 387.966C118.012 382.257 122.903 377.712 128.586 378.273L142.805 379.676C147.396 380.129 150.998 383.814 151.345 388.414L151.881 395.503C152.246 400.339 148.91 404.673 144.143 405.559Z" fill="#D9D9D9" stroke="black"/>
<rect x="-0.570962" y="-0.392368" width="37.2459" height="4.57246" transform="matrix(-0.979392 0.201967 -0.162531 -0.986703 152.293 408.924)" fill="#D9D9D9" stroke="black"/>
<rect x="-0.491638" y="0.506971" width="27.2285" height="4.01579" rx="2.00789" transform="matrix(0.0166238 0.999862 -0.999901 0.01408 153.808 379.52)" fill="#D9D9D9" stroke="black"/>
<rect x="-0.477425" y="-0.53117" width="37.6883" height="4.58421" transform="matrix(-0.997997 -0.0632703 0.0431461 -0.999069 149.444 379.602)" fill="#D9D9D9" stroke="black"/>
<rect x="105.173" y="429.707" width="43" height="68" transform="rotate(178.589 105.173 429.707)" fill="#D9D9D9" stroke="black"/>
<path d="M702.605 665.744L717.153 663.502C722.929 662.612 728.132 667.099 728.1 672.944L728.038 684.127C728.006 689.838 722.979 694.23 717.315 693.495L703.146 691.656C698.571 691.062 695.084 687.267 694.879 682.659L694.562 675.557C694.345 670.712 697.812 666.483 702.605 665.744Z" fill="#D9D9D9" stroke="black"/>
<rect x="0.558628" y="0.409738" width="37.2459" height="4.57246" transform="matrix(0.985139 -0.171758 0.132117 0.991234 693.343 661.528)" fill="#D9D9D9" stroke="black"/>
<rect x="0.506994" y="-0.491615" width="27.2285" height="4.01579" rx="2.00789" transform="matrix(0.0141263 -0.9999 0.999861 0.0166701 693.128 692.488)" fill="#D9D9D9" stroke="black"/>
<rect x="0.460868" y="0.545598" width="37.6883" height="4.58421" transform="matrix(0.995579 0.0939253 -0.0738436 0.99727 695.653 690.363)" fill="#D9D9D9" stroke="black"/>
<rect x="742.299" y="642.805" width="43" height="68" transform="rotate(0.351102 742.299 642.805)" fill="#D9D9D9" stroke="black"/>
<path d="M331.065 434.978L419.342 385.718C420.072 385.311 420.957 385.296 421.7 385.677L517.868 434.981C518.357 435.232 518.749 435.636 518.985 436.131L557.955 517.968C558.269 518.627 558.279 519.391 557.982 520.058L518.979 607.816C518.744 608.344 518.333 608.775 517.817 609.035L421.682 657.346C420.948 657.715 420.08 657.7 419.359 657.306L331.116 609.04C330.642 608.781 330.265 608.375 330.041 607.883L290.042 520.08C289.732 519.4 289.743 518.618 290.07 517.947L330.037 436.064C330.261 435.606 330.619 435.226 331.065 434.978Z" fill="#D9D9D9" stroke="black"/>
<path d="M265.006 568.332L277.219 560.116C282.068 556.854 288.686 558.703 291.142 564.006L295.842 574.154C298.242 579.336 295.56 585.45 290.121 587.193L276.515 591.554C272.122 592.962 267.352 591.011 265.206 586.927L261.899 580.634C259.643 576.342 260.982 571.039 265.006 568.332Z" fill="#D9D9D9" stroke="black"/>
<rect x="0.679846" y="0.133267" width="37.2459" height="4.57246" transform="matrix(0.818568 -0.574409 0.541123 0.840943 254.88 568.758)" fill="#D9D9D9" stroke="black"/>
<rect x="0.249788" y="-0.660556" width="27.2285" height="4.01579" rx="2.00789" transform="matrix(-0.41245 -0.91098 0.912027 -0.410131 267.85 596.264)" fill="#D9D9D9" stroke="black"/>
<rect x="0.649145" y="0.297804" width="37.6883" height="4.58421" transform="matrix(0.941006 -0.338389 0.357283 0.933996 269.095 593.866)" fill="#D9D9D9" stroke="black"/>
<path d="M354.783 371.703L364.751 382.534C368.708 386.835 367.881 393.656 363.009 396.885L353.688 403.065C348.928 406.221 342.48 404.493 339.935 399.38L333.567 386.59C331.512 382.46 332.72 377.45 336.432 374.711L342.153 370.491C346.055 367.612 351.5 368.135 354.783 371.703Z" fill="#D9D9D9" stroke="black"/>
<rect x="-0.0289955" y="0.692177" width="37.2459" height="4.57246" transform="matrix(0.691517 0.72236 -0.749508 0.661995 353.741 361.9)" fill="#D9D9D9" stroke="black"/>
<rect x="0.690718" y="0.147094" width="27.2285" height="4.01579" rx="2.00789" transform="matrix(0.838187 -0.545383 0.543249 0.839571 326.793 378.298)" fill="#D9D9D9" stroke="black"/>
<rect x="-0.196282" y="0.686694" width="37.6883" height="4.58421" transform="matrix(0.476711 0.87906 -0.869275 0.494329 330.902 380.155)" fill="#D9D9D9" stroke="black"/>
<path d="M581.719 467.623L569.935 476.444C565.256 479.946 558.554 478.433 555.834 473.26L550.629 463.361C547.971 458.307 550.342 452.066 555.686 450.051L569.055 445.01C573.372 443.383 578.234 445.092 580.583 449.062L584.203 455.18C586.672 459.354 585.602 464.717 581.719 467.623Z" fill="#D9D9D9" stroke="black"/>
<rect x="-0.685693" y="-0.0988691" width="37.2459" height="4.57246" transform="matrix(-0.78861 0.614894 -0.582777 -0.812632 590.598 467.339)" fill="#D9D9D9" stroke="black"/>
<rect x="-0.216214" y="0.672294" width="27.2285" height="4.01579" rx="2.00789" transform="matrix(0.457793 0.889059 -0.890221 0.455529 578.872 439.676)" fill="#D9D9D9" stroke="black"/>
<rect x="-0.663315" y="-0.264743" width="37.6883" height="4.58421" transform="matrix(-0.922776 0.385338 -0.403855 -0.914823 574.911 442.318)" fill="#D9D9D9" stroke="black"/>
<path d="M488.574 670.384L479.205 659.031C475.485 654.523 476.679 647.757 481.717 644.795L491.358 639.127C496.282 636.232 502.628 638.305 504.893 643.548L510.561 656.663C512.391 660.898 510.915 665.835 507.06 668.37L501.12 672.275C497.068 674.939 491.66 674.124 488.574 670.384Z" fill="#D9D9D9" stroke="black"/>
<rect x="0.0662841" y="-0.689606" width="37.2459" height="4.57246" transform="matrix(-0.651552 -0.758604 0.784121 -0.620609 490.231 679.443)" fill="#D9D9D9" stroke="black"/>
<rect x="-0.681779" y="-0.184132" width="27.2285" height="4.01579" rx="2.00789" transform="matrix(-0.866381 0.499384 -0.497178 -0.867648 515.525 665.706)" fill="#D9D9D9" stroke="black"/>
<rect x="0.233032" y="-0.675109" width="37.6883" height="4.58421" transform="matrix(-0.428607 -0.903491 0.89467 -0.446727 514.279 663.011)" fill="#D9D9D9" stroke="black"/>
<rect x="22.5" y="319.5" width="816" height="20" fill="#D9D9D9" stroke="black"/>
<rect x="72.5" y="288.5" width="173" height="20" transform="rotate(-90 72.5 288.5)" fill="#D9D9D9" stroke="black"/>
<rect x="776.5" y="281.5" width="173" height="20" transform="rotate(-90 776.5 281.5)" fill="#D9D9D9" stroke="black"/>
<rect x="498.5" y="318.5" width="206" height="20" transform="rotate(-90 498.5 318.5)" fill="#D9D9D9" stroke="black"/>
<line x1="420.5" y1="386" x2="420.544" y2="659" stroke="black"/>
<line x1="289" y1="519.5" x2="557" y2="519.5" stroke="black"/>
</svg>
