<svg width="884" height="798" viewBox="0 0 884 798" fill="none" xmlns="http://www.w3.org/2000/svg">
<rect x="1.5" y="1.5" width="881" height="795" fill="white" stroke="black" stroke-width="3"/>
<path d="M71.7873 510.134L84.7134 517.176C89.8459 519.972 91.2604 526.695 87.6896 531.322L80.8571 540.176C77.3679 544.697 70.7064 545.14 66.6495 541.12L56.5004 531.063C53.2235 527.816 52.7529 522.684 55.3848 518.895L59.4403 513.057C62.2068 509.074 67.5289 507.814 71.7873 510.134Z" stroke="black"/>
<rect x="0.195601" y="0.664598" width="37.2459" height="4.57246" transform="matrix(0.887405 0.46099 -0.496204 0.868206 64.1726 499.409)" stroke="black"/>
<rect x="0.701273" y="-0.0833318" width="27.2285" height="4.01579" rx="2.00789" transform="matrix(0.617729 -0.786391 0.784817 0.619728 44.3335 523.846)" stroke="black"/>
<rect x="0.035471" y="0.713315" width="37.6883" height="4.58421" transform="matrix(0.734553 0.678551 -0.663611 0.748078 48.4945 523.953)" stroke="black"/>
<path d="M67.3455 635.217L76.824 623.955C80.5876 619.484 87.4581 619.439 91.2798 623.861L98.5926 632.322C102.327 636.643 101.432 643.259 96.6838 646.432L84.8047 654.371C80.9692 656.935 75.8465 656.372 72.6588 653.038L67.7466 647.899C64.3957 644.394 64.2229 638.927 67.3455 635.217Z" stroke="black"/>
<rect x="0.690259" y="-0.0591013" width="37.2459" height="4.57246" transform="matrix(0.628738 -0.777617 0.75178 0.659415 55.5502 641.401)" stroke="black"/>
<rect x="0.0582273" y="-0.703802" width="27.2285" height="4.01579" rx="2.00789" transform="matrix(-0.647368 -0.762178 0.763822 -0.645427 75.3635 663.964)" stroke="black"/>
<rect x="0.706055" y="0.107528" width="37.6883" height="4.58421" transform="matrix(0.811438 -0.584439 0.600672 0.799495 76.0598 661.674)" stroke="black"/>
<path d="M44.9382 569.666L59.4735 567.344C65.2449 566.422 70.4724 570.88 70.4724 576.725V587.908C70.4724 593.619 65.4692 598.04 59.8016 597.336L45.6227 595.575C41.0446 595.006 37.5367 591.231 37.3055 586.623L36.9491 579.523C36.706 574.68 40.1497 570.431 44.9382 569.666Z" stroke="black"/>
<rect x="0.560887" y="0.40664" width="37.2459" height="4.57246" transform="matrix(0.984173 -0.177208 0.1376 0.990488 36.034 565.881)" stroke="black"/>
<rect x="0.504265" y="-0.494413" width="27.2285" height="4.01579" rx="2.00789" transform="matrix(0.00859242 -0.999963 0.999938 0.0111364 35.9943 596.835)" stroke="black"/>
<rect x="0.46388" y="0.543039" width="37.6883" height="4.58421" transform="matrix(0.996084 0.0884141 -0.0683233 0.997663 38.5023 594.701)" stroke="black"/>
<path d="M157.635 484.419L159.375 499.035C160.066 504.839 155.402 509.884 149.562 509.651L138.388 509.204C132.681 508.976 128.464 503.8 129.394 498.165L131.72 484.068C132.471 479.516 136.383 476.162 140.996 476.115L148.105 476.043C152.954 475.993 157.062 479.604 157.635 484.419Z" stroke="black"/>
<rect x="-0.428719" y="0.544197" width="37.2459" height="4.57246" transform="matrix(0.137756 0.990466 -0.995194 0.0979277 162.731 473.512)" stroke="black"/>
<rect x="0.473877" y="0.523611" width="27.2285" height="4.01579" rx="2.00789" transform="matrix(0.998822 0.0485268 -0.0510678 0.998695 131.613 470.254)" stroke="black"/>
<rect x="-0.561134" y="0.44182" width="37.6883" height="4.58421" transform="matrix(-0.12813 0.991757 -0.994138 -0.108118 133.33 474.865)" stroke="black"/>
<path d="M128.691 667.294L126.892 652.684C126.178 646.884 130.821 641.82 136.662 642.03L147.838 642.431C153.546 642.636 157.783 647.795 156.876 653.434L154.607 667.54C153.874 672.095 149.976 675.465 145.363 675.531L138.255 675.632C133.406 675.701 129.283 672.107 128.691 667.294Z" stroke="black"/>
<rect x="0.426524" y="-0.545919" width="37.2459" height="4.57246" transform="matrix(-0.141743 -0.989904 0.994791 -0.101934 125.843 678.956)" stroke="black"/>
<rect x="-0.475981" y="-0.521699" width="27.2285" height="4.01579" rx="2.00789" transform="matrix(-0.999009 -0.0445048 0.0470463 -0.998893 153.87 680.268)" stroke="black"/>
<rect x="0.559351" y="-0.444075" width="37.6883" height="4.58421" transform="matrix(0.124136 -0.992265 0.994565 0.104115 154.775 677.953)" stroke="black"/>
<path d="M227.241 521.193L219.207 533.527C216.017 538.424 209.203 539.307 204.87 535.384L196.58 527.878C192.347 524.044 192.428 517.369 196.754 513.64L207.576 504.311C211.07 501.299 216.223 501.233 219.794 504.154L225.296 508.655C229.049 511.725 229.888 517.13 227.241 521.193Z" stroke="black"/>
<rect x="-0.677897" y="0.142849" width="37.2459" height="4.57246" transform="matrix(-0.529201 0.848497 -0.826594 -0.562799 237.682 516.075)" stroke="black"/>
<rect x="0.0280479" y="0.705649" width="27.2285" height="4.01579" rx="2.00789" transform="matrix(0.735495 0.67753 -0.679399 0.733769 216.801 493.809)" stroke="black"/>
<rect x="-0.713899" y="-0.0206101" width="37.6883" height="4.58421" transform="matrix(-0.734097 0.679044 -0.6937 -0.720264 214.278 498.051)" stroke="black"/>
<path d="M206.383 653.775L195.131 644.286C190.663 640.518 190.624 633.647 195.05 629.83L203.519 622.525C207.843 618.795 214.458 619.697 217.627 624.448L225.555 636.335C228.114 640.173 227.547 645.295 224.209 648.479L219.065 653.387C215.557 656.734 210.09 656.902 206.383 653.775Z" stroke="black"/>
<rect x="-0.0584228" y="-0.690317" width="37.2459" height="4.57246" transform="matrix(-0.776999 -0.629502 0.660153 -0.751131 211.21 664.53)" stroke="black"/>
<rect x="-0.703745" y="-0.058919" width="27.2285" height="4.01579" rx="2.00789" transform="matrix(-0.762814 0.646618 -0.644676 -0.764456 233.792 646.67)" stroke="black"/>
<rect x="0.108222" y="-0.705949" width="37.6883" height="4.58421" transform="matrix(-0.583641 -0.812012 0.800085 -0.599886 231.971 644.013)" stroke="black"/>
<path d="M246.119 594.054L231.542 596.098C225.754 596.909 220.612 592.352 220.724 586.508L220.939 575.327C221.048 569.616 226.135 565.293 231.788 566.105L245.931 568.138C250.497 568.794 253.932 572.636 254.075 577.247L254.295 584.352C254.445 589.199 250.921 593.381 246.119 594.054Z" stroke="black"/>
<rect x="-0.552991" y="-0.417314" width="37.2459" height="4.57246" transform="matrix(-0.987389 0.158314 -0.118593 -0.992943 255.893 596.989)" stroke="black"/>
<rect x="-0.513648" y="0.484659" width="27.2285" height="4.01579" rx="2.00789" transform="matrix(-0.0277546 0.999615 -0.999541 -0.0302976 258.673 567.73)" stroke="black"/>
<rect x="-0.453388" y="-0.551829" width="37.6883" height="4.58421" transform="matrix(-0.994207 -0.107487 0.0874305 -0.996171 254.358 567.579)" stroke="black"/>
<path d="M213.5 577.5C213.5 611.14 183.107 638.5 145.5 638.5C107.893 638.5 77.5 611.14 77.5 577.5C77.5 543.86 107.893 516.5 145.5 516.5C183.107 516.5 213.5 543.86 213.5 577.5Z" stroke="black"/>
<path d="M118.358 582H116.511L121.852 567.455H123.67L129.011 582H127.165L122.818 569.756H122.705L118.358 582ZM119.04 576.318H126.483V577.881H119.04V576.318ZM135.936 582.199C134.999 582.199 134.163 582.038 133.429 581.716C132.7 581.394 132.12 580.946 131.689 580.374C131.263 579.796 131.031 579.126 130.993 578.364H132.783C132.821 578.832 132.982 579.237 133.266 579.578C133.55 579.914 133.921 580.175 134.381 580.359C134.84 580.544 135.349 580.636 135.908 580.636C136.533 580.636 137.087 580.527 137.57 580.31C138.053 580.092 138.431 579.789 138.706 579.401C138.981 579.012 139.118 578.562 139.118 578.051C139.118 577.516 138.985 577.045 138.72 576.638C138.455 576.226 138.067 575.904 137.555 575.672C137.044 575.44 136.419 575.324 135.68 575.324H134.516V573.761H135.68C136.258 573.761 136.765 573.657 137.2 573.449C137.641 573.241 137.984 572.947 138.23 572.568C138.481 572.189 138.607 571.744 138.607 571.233C138.607 570.741 138.498 570.312 138.28 569.947C138.062 569.583 137.754 569.299 137.357 569.095C136.964 568.892 136.5 568.79 135.964 568.79C135.463 568.79 134.989 568.882 134.544 569.067C134.104 569.247 133.744 569.509 133.464 569.855C133.185 570.196 133.034 570.608 133.01 571.091H131.305C131.334 570.329 131.563 569.661 131.994 569.088C132.425 568.51 132.989 568.061 133.685 567.739C134.385 567.417 135.155 567.256 135.993 567.256C136.893 567.256 137.664 567.438 138.308 567.803C138.952 568.162 139.447 568.638 139.793 569.23C140.138 569.822 140.311 570.461 140.311 571.148C140.311 571.967 140.096 572.665 139.665 573.243C139.239 573.821 138.659 574.221 137.925 574.443V574.557C138.843 574.708 139.561 575.099 140.077 575.729C140.593 576.354 140.851 577.128 140.851 578.051C140.851 578.842 140.635 579.552 140.205 580.182C139.778 580.807 139.196 581.299 138.457 581.659C137.719 582.019 136.878 582.199 135.936 582.199ZM148.869 567.455V582H147.108V569.301H147.023L143.472 571.659V569.869L147.108 567.455H148.869ZM157.797 582.199C156.727 582.199 155.815 581.908 155.062 581.325C154.31 580.738 153.734 579.888 153.337 578.776C152.939 577.658 152.74 576.309 152.74 574.727C152.74 573.155 152.939 571.813 153.337 570.7C153.739 569.583 154.317 568.731 155.07 568.143C155.827 567.552 156.736 567.256 157.797 567.256C158.857 567.256 159.764 567.552 160.517 568.143C161.275 568.731 161.852 569.583 162.25 570.7C162.652 571.813 162.854 573.155 162.854 574.727C162.854 576.309 162.655 577.658 162.257 578.776C161.859 579.888 161.284 580.738 160.531 581.325C159.778 581.908 158.867 582.199 157.797 582.199ZM157.797 580.636C158.857 580.636 159.681 580.125 160.268 579.102C160.856 578.08 161.149 576.621 161.149 574.727C161.149 573.468 161.014 572.395 160.744 571.51C160.479 570.625 160.096 569.95 159.594 569.486C159.097 569.022 158.498 568.79 157.797 568.79C156.746 568.79 155.924 569.308 155.332 570.345C154.741 571.377 154.445 572.838 154.445 574.727C154.445 575.987 154.577 577.057 154.842 577.938C155.107 578.818 155.489 579.488 155.986 579.947C156.488 580.407 157.091 580.636 157.797 580.636ZM175.751 572C175.595 571.522 175.389 571.093 175.134 570.714C174.883 570.331 174.582 570.004 174.232 569.734C173.886 569.464 173.493 569.259 173.053 569.116C172.612 568.974 172.129 568.903 171.604 568.903C170.742 568.903 169.958 569.126 169.253 569.571C168.547 570.016 167.986 570.672 167.57 571.538C167.153 572.405 166.945 573.468 166.945 574.727C166.945 575.987 167.155 577.05 167.577 577.916C167.998 578.783 168.569 579.438 169.288 579.884C170.008 580.329 170.818 580.551 171.717 580.551C172.551 580.551 173.285 580.374 173.919 580.018C174.558 579.659 175.055 579.152 175.411 578.499C175.77 577.84 175.95 577.066 175.95 576.176L176.49 576.29H172.115V574.727H177.655V576.29C177.655 577.488 177.399 578.529 176.888 579.415C176.381 580.3 175.68 580.987 174.786 581.474C173.895 581.957 172.873 582.199 171.717 582.199C170.429 582.199 169.298 581.896 168.322 581.29C167.352 580.684 166.594 579.822 166.05 578.705C165.51 577.587 165.24 576.261 165.24 574.727C165.24 573.577 165.394 572.542 165.702 571.624C166.014 570.7 166.455 569.914 167.023 569.266C167.591 568.617 168.263 568.12 169.04 567.774C169.816 567.429 170.671 567.256 171.604 567.256C172.371 567.256 173.086 567.372 173.749 567.604C174.416 567.831 175.01 568.155 175.531 568.577C176.057 568.993 176.495 569.493 176.845 570.075C177.196 570.653 177.437 571.295 177.57 572H175.751Z" fill="black"/>
<path d="M71.7873 95.1339L84.7134 102.176C89.8459 104.972 91.2604 111.695 87.6896 116.322L80.8571 125.176C77.3679 129.697 70.7064 130.14 66.6495 126.12L56.5004 116.063C53.2235 112.816 52.7529 107.684 55.3848 103.895L59.4403 98.0566C62.2068 94.0739 67.5289 92.8141 71.7873 95.1339Z" stroke="black"/>
<rect x="0.195601" y="0.664598" width="37.2459" height="4.57246" transform="matrix(0.887405 0.46099 -0.496204 0.868206 64.1726 84.409)" stroke="black"/>
<rect x="0.701273" y="-0.0833318" width="27.2285" height="4.01579" rx="2.00789" transform="matrix(0.617729 -0.786391 0.784817 0.619728 44.3335 108.846)" stroke="black"/>
<rect x="0.035471" y="0.713315" width="37.6883" height="4.58421" transform="matrix(0.734553 0.678551 -0.663611 0.748078 48.4945 108.953)" stroke="black"/>
<path d="M67.3455 220.217L76.824 208.955C80.5876 204.484 87.4581 204.439 91.2798 208.861L98.5926 217.322C102.327 221.643 101.432 228.259 96.6838 231.432L84.8047 239.371C80.9692 241.935 75.8465 241.372 72.6588 238.038L67.7466 232.899C64.3957 229.394 64.2229 223.927 67.3455 220.217Z" stroke="black"/>
<rect x="0.690259" y="-0.0591013" width="37.2459" height="4.57246" transform="matrix(0.628738 -0.777617 0.75178 0.659415 55.5502 226.401)" stroke="black"/>
<rect x="0.0582273" y="-0.703802" width="27.2285" height="4.01579" rx="2.00789" transform="matrix(-0.647368 -0.762178 0.763822 -0.645427 75.3635 248.964)" stroke="black"/>
<rect x="0.706055" y="0.107528" width="37.6883" height="4.58421" transform="matrix(0.811438 -0.584439 0.600672 0.799495 76.0598 246.674)" stroke="black"/>
<path d="M44.9382 154.666L59.4735 152.344C65.2449 151.422 70.4724 155.88 70.4724 161.725V172.908C70.4724 178.619 65.4692 183.04 59.8016 182.336L45.6227 180.575C41.0446 180.006 37.5367 176.231 37.3055 171.623L36.9491 164.523C36.706 159.68 40.1497 155.431 44.9382 154.666Z" stroke="black"/>
<rect x="0.560887" y="0.40664" width="37.2459" height="4.57246" transform="matrix(0.984173 -0.177208 0.1376 0.990488 36.034 150.881)" stroke="black"/>
<rect x="0.504265" y="-0.494413" width="27.2285" height="4.01579" rx="2.00789" transform="matrix(0.00859242 -0.999963 0.999938 0.0111364 35.9943 181.835)" stroke="black"/>
<rect x="0.46388" y="0.543039" width="37.6883" height="4.58421" transform="matrix(0.996084 0.0884141 -0.0683233 0.997663 38.5023 179.701)" stroke="black"/>
<path d="M157.635 69.419L159.375 84.0355C160.066 89.8391 155.402 94.8844 149.562 94.6509L138.388 94.2042C132.681 93.9761 128.464 88.8003 129.394 83.1653L131.72 69.0681C132.471 64.5164 136.383 61.1621 140.996 61.1151L148.105 61.0426C152.954 60.9931 157.062 64.6037 157.635 69.419Z" stroke="black"/>
<rect x="-0.428719" y="0.544197" width="37.2459" height="4.57246" transform="matrix(0.137756 0.990466 -0.995194 0.0979277 162.731 58.5117)" stroke="black"/>
<rect x="0.473877" y="0.523611" width="27.2285" height="4.01579" rx="2.00789" transform="matrix(0.998822 0.0485268 -0.0510678 0.998695 131.613 55.2536)" stroke="black"/>
<rect x="-0.561134" y="0.44182" width="37.6883" height="4.58421" transform="matrix(-0.12813 0.991757 -0.994138 -0.108118 133.33 59.8654)" stroke="black"/>
<path d="M128.691 252.294L126.892 237.684C126.178 231.884 130.821 226.82 136.662 227.03L147.838 227.431C153.546 227.636 157.783 232.795 156.876 238.434L154.607 252.54C153.874 257.095 149.976 260.465 145.363 260.531L138.255 260.632C133.406 260.701 129.283 257.107 128.691 252.294Z" stroke="black"/>
<rect x="0.426524" y="-0.545919" width="37.2459" height="4.57246" transform="matrix(-0.141743 -0.989904 0.994791 -0.101934 125.843 263.956)" stroke="black"/>
<rect x="-0.475981" y="-0.521699" width="27.2285" height="4.01579" rx="2.00789" transform="matrix(-0.999009 -0.0445048 0.0470463 -0.998893 153.87 265.268)" stroke="black"/>
<rect x="0.559351" y="-0.444075" width="37.6883" height="4.58421" transform="matrix(0.124136 -0.992265 0.994565 0.104115 154.775 262.953)" stroke="black"/>
<path d="M227.241 106.193L219.207 118.527C216.017 123.424 209.203 124.307 204.87 120.384L196.58 112.878C192.347 109.044 192.428 102.369 196.754 98.6398L207.576 89.3111C211.07 86.2991 216.223 86.2327 219.794 89.1537L225.296 93.6549C229.049 96.7254 229.888 102.13 227.241 106.193Z" stroke="black"/>
<rect x="-0.677897" y="0.142849" width="37.2459" height="4.57246" transform="matrix(-0.529201 0.848497 -0.826594 -0.562799 237.682 101.075)" stroke="black"/>
<rect x="0.0280479" y="0.705649" width="27.2285" height="4.01579" rx="2.00789" transform="matrix(0.735495 0.67753 -0.679399 0.733769 216.801 78.8085)" stroke="black"/>
<rect x="-0.713899" y="-0.0206101" width="37.6883" height="4.58421" transform="matrix(-0.734097 0.679044 -0.6937 -0.720264 214.278 83.0514)" stroke="black"/>
<path d="M206.383 238.775L195.131 229.286C190.663 225.518 190.624 218.647 195.05 214.83L203.519 207.525C207.843 203.795 214.458 204.697 217.627 209.448L225.555 221.335C228.114 225.173 227.547 230.295 224.209 233.479L219.065 238.387C215.557 241.734 210.09 241.902 206.383 238.775Z" stroke="black"/>
<rect x="-0.0584228" y="-0.690317" width="37.2459" height="4.57246" transform="matrix(-0.776999 -0.629502 0.660153 -0.751131 211.21 249.53)" stroke="black"/>
<rect x="-0.703745" y="-0.058919" width="27.2285" height="4.01579" rx="2.00789" transform="matrix(-0.762814 0.646618 -0.644676 -0.764456 233.792 231.67)" stroke="black"/>
<rect x="0.108222" y="-0.705949" width="37.6883" height="4.58421" transform="matrix(-0.583641 -0.812012 0.800085 -0.599886 231.971 229.013)" stroke="black"/>
<path d="M246.119 179.054L231.542 181.098C225.754 181.909 220.612 177.352 220.724 171.508L220.939 160.327C221.048 154.616 226.135 150.293 231.788 151.105L245.931 153.138C250.497 153.794 253.932 157.636 254.075 162.247L254.295 169.352C254.445 174.199 250.921 178.381 246.119 179.054Z" stroke="black"/>
<rect x="-0.552991" y="-0.417314" width="37.2459" height="4.57246" transform="matrix(-0.987389 0.158314 -0.118593 -0.992943 255.893 181.989)" stroke="black"/>
<rect x="-0.513648" y="0.484659" width="27.2285" height="4.01579" rx="2.00789" transform="matrix(-0.0277546 0.999615 -0.999541 -0.0302976 258.673 152.73)" stroke="black"/>
<rect x="-0.453388" y="-0.551829" width="37.6883" height="4.58421" transform="matrix(-0.994207 -0.107487 0.0874305 -0.996171 254.358 152.579)" stroke="black"/>
<path d="M213.5 162.5C213.5 196.14 183.107 223.5 145.5 223.5C107.893 223.5 77.5 196.14 77.5 162.5C77.5 128.86 107.893 101.5 145.5 101.5C183.107 101.5 213.5 128.86 213.5 162.5Z" stroke="black"/>
<path d="M117.358 166H115.511L120.852 151.455H122.67L128.011 166H126.165L121.818 153.756H121.705L117.358 166ZM118.04 160.318H125.483V161.881H118.04V160.318ZM134.936 166.199C133.999 166.199 133.163 166.038 132.429 165.716C131.7 165.394 131.12 164.946 130.689 164.374C130.263 163.796 130.031 163.126 129.993 162.364H131.783C131.821 162.832 131.982 163.237 132.266 163.578C132.55 163.914 132.921 164.175 133.381 164.359C133.84 164.544 134.349 164.636 134.908 164.636C135.533 164.636 136.087 164.527 136.57 164.31C137.053 164.092 137.431 163.789 137.706 163.401C137.981 163.012 138.118 162.562 138.118 162.051C138.118 161.516 137.985 161.045 137.72 160.638C137.455 160.226 137.067 159.904 136.555 159.672C136.044 159.44 135.419 159.324 134.68 159.324H133.516V157.761H134.68C135.258 157.761 135.765 157.657 136.2 157.449C136.641 157.241 136.984 156.947 137.23 156.568C137.481 156.189 137.607 155.744 137.607 155.233C137.607 154.741 137.498 154.312 137.28 153.947C137.062 153.583 136.754 153.299 136.357 153.095C135.964 152.892 135.5 152.79 134.964 152.79C134.463 152.79 133.989 152.882 133.544 153.067C133.104 153.247 132.744 153.509 132.464 153.855C132.185 154.196 132.034 154.608 132.01 155.091H130.305C130.334 154.329 130.563 153.661 130.994 153.088C131.425 152.51 131.989 152.061 132.685 151.739C133.385 151.417 134.155 151.256 134.993 151.256C135.893 151.256 136.664 151.438 137.308 151.803C137.952 152.162 138.447 152.638 138.793 153.23C139.138 153.822 139.311 154.461 139.311 155.148C139.311 155.967 139.096 156.665 138.665 157.243C138.239 157.821 137.659 158.221 136.925 158.443V158.557C137.843 158.708 138.561 159.099 139.077 159.729C139.593 160.354 139.851 161.128 139.851 162.051C139.851 162.842 139.635 163.552 139.205 164.182C138.778 164.807 138.196 165.299 137.457 165.659C136.719 166.019 135.878 166.199 134.936 166.199ZM147.5 166.199C146.43 166.199 145.518 165.908 144.766 165.325C144.013 164.738 143.438 163.888 143.04 162.776C142.642 161.658 142.443 160.309 142.443 158.727C142.443 157.155 142.642 155.813 143.04 154.7C143.442 153.583 144.02 152.731 144.773 152.143C145.53 151.552 146.439 151.256 147.5 151.256C148.561 151.256 149.467 151.552 150.22 152.143C150.978 152.731 151.555 153.583 151.953 154.7C152.356 155.813 152.557 157.155 152.557 158.727C152.557 160.309 152.358 161.658 151.96 162.776C151.562 163.888 150.987 164.738 150.234 165.325C149.482 165.908 148.57 166.199 147.5 166.199ZM147.5 164.636C148.561 164.636 149.384 164.125 149.972 163.102C150.559 162.08 150.852 160.621 150.852 158.727C150.852 157.468 150.717 156.395 150.447 155.51C150.182 154.625 149.799 153.95 149.297 153.486C148.8 153.022 148.201 152.79 147.5 152.79C146.449 152.79 145.627 153.308 145.036 154.345C144.444 155.377 144.148 156.838 144.148 158.727C144.148 159.987 144.28 161.057 144.545 161.938C144.811 162.818 145.192 163.488 145.689 163.947C146.191 164.407 146.795 164.636 147.5 164.636ZM159.886 151.256C160.483 151.26 161.08 151.374 161.676 151.597C162.273 151.819 162.817 152.188 163.31 152.705C163.802 153.216 164.197 153.914 164.496 154.8C164.794 155.685 164.943 156.795 164.943 158.131C164.943 159.423 164.82 160.571 164.574 161.575C164.332 162.574 163.982 163.417 163.523 164.104C163.068 164.79 162.514 165.311 161.861 165.666C161.212 166.021 160.478 166.199 159.659 166.199C158.845 166.199 158.118 166.038 157.479 165.716C156.844 165.389 156.323 164.937 155.916 164.359C155.514 163.777 155.256 163.102 155.142 162.335H156.875C157.031 163.003 157.341 163.554 157.805 163.99C158.274 164.421 158.892 164.636 159.659 164.636C160.781 164.636 161.667 164.146 162.315 163.166C162.969 162.186 163.295 160.801 163.295 159.011H163.182C162.917 159.409 162.602 159.752 162.237 160.041C161.873 160.33 161.468 160.553 161.023 160.709C160.578 160.865 160.104 160.943 159.602 160.943C158.769 160.943 158.004 160.737 157.308 160.325C156.617 159.909 156.063 159.338 155.646 158.614C155.234 157.884 155.028 157.051 155.028 156.114C155.028 155.223 155.227 154.409 155.625 153.67C156.027 152.927 156.591 152.335 157.315 151.895C158.045 151.455 158.902 151.241 159.886 151.256ZM159.886 152.818C159.29 152.818 158.752 152.967 158.274 153.266C157.801 153.559 157.424 153.957 157.145 154.459C156.87 154.956 156.733 155.508 156.733 156.114C156.733 156.72 156.866 157.271 157.131 157.768C157.401 158.261 157.768 158.654 158.232 158.947C158.7 159.236 159.233 159.381 159.83 159.381C160.279 159.381 160.698 159.293 161.087 159.118C161.475 158.938 161.813 158.694 162.102 158.386C162.396 158.074 162.625 157.721 162.791 157.328C162.957 156.93 163.04 156.516 163.04 156.085C163.04 155.517 162.902 154.984 162.628 154.487C162.358 153.99 161.984 153.588 161.506 153.28C161.032 152.972 160.492 152.818 159.886 152.818ZM177.935 156C177.779 155.522 177.573 155.093 177.317 154.714C177.066 154.331 176.766 154.004 176.415 153.734C176.069 153.464 175.676 153.259 175.236 153.116C174.796 152.974 174.313 152.903 173.787 152.903C172.926 152.903 172.142 153.126 171.436 153.571C170.731 154.016 170.17 154.672 169.753 155.538C169.337 156.405 169.128 157.468 169.128 158.727C169.128 159.987 169.339 161.05 169.76 161.916C170.182 162.783 170.752 163.438 171.472 163.884C172.192 164.329 173.001 164.551 173.901 164.551C174.734 164.551 175.468 164.374 176.103 164.018C176.742 163.659 177.239 163.152 177.594 162.499C177.954 161.84 178.134 161.066 178.134 160.176L178.674 160.29H174.299V158.727H179.838V160.29C179.838 161.488 179.583 162.529 179.071 163.415C178.565 164.3 177.864 164.987 176.969 165.474C176.079 165.957 175.056 166.199 173.901 166.199C172.613 166.199 171.481 165.896 170.506 165.29C169.535 164.684 168.778 163.822 168.233 162.705C167.694 161.587 167.424 160.261 167.424 158.727C167.424 157.577 167.578 156.542 167.885 155.624C168.198 154.7 168.638 153.914 169.206 153.266C169.775 152.617 170.447 152.12 171.223 151.774C172 151.429 172.855 151.256 173.787 151.256C174.554 151.256 175.269 151.372 175.932 151.604C176.6 151.831 177.194 152.155 177.715 152.577C178.24 152.993 178.678 153.493 179.029 154.075C179.379 154.653 179.621 155.295 179.753 156H177.935Z" fill="black"/>
<path d="M661.938 642.666L676.473 640.344C682.245 639.422 687.472 643.88 687.472 649.725V660.908C687.472 666.619 682.469 671.04 676.802 670.336L662.623 668.575C658.045 668.006 654.537 664.231 654.305 659.623L653.949 652.523C653.706 647.68 657.15 643.431 661.938 642.666Z" stroke="black"/>
<rect x="0.560887" y="0.40664" width="37.2459" height="4.57246" transform="matrix(0.984173 -0.177208 0.1376 0.990488 649.034 638.881)" stroke="black"/>
<rect x="0.504265" y="-0.494413" width="27.2285" height="4.01579" rx="2.00789" transform="matrix(0.00859242 -0.999963 0.999938 0.0111364 648.994 669.835)" stroke="black"/>
<rect x="0.46388" y="0.543039" width="37.6883" height="4.58421" transform="matrix(0.996084 0.0884141 -0.0683233 0.997663 651.502 667.701)" stroke="black"/>
<path d="M660.938 704.666L675.473 702.344C681.245 701.422 686.472 705.88 686.472 711.725V722.908C686.472 728.619 681.469 733.04 675.802 732.336L661.623 730.575C657.045 730.006 653.537 726.231 653.305 721.623L652.949 714.523C652.706 709.68 656.15 705.431 660.938 704.666Z" stroke="black"/>
<rect x="0.560887" y="0.40664" width="37.2459" height="4.57246" transform="matrix(0.984173 -0.177208 0.1376 0.990488 649.034 701.614)" stroke="black"/>
<rect x="0.504265" y="-0.494413" width="27.2285" height="4.01579" rx="2.00789" transform="matrix(0.00859242 -0.999963 0.999938 0.0111364 648.994 732.568)" stroke="black"/>
<rect x="0.46388" y="0.543039" width="37.6883" height="4.58421" transform="matrix(0.996084 0.0884141 -0.0683233 0.997663 651.502 730.434)" stroke="black"/>
<path d="M837.119 667.054L822.542 669.098C816.754 669.909 811.612 665.352 811.724 659.508L811.939 648.327C812.048 642.616 817.135 638.293 822.788 639.105L836.931 641.138C841.497 641.794 844.932 645.636 845.075 650.247L845.295 657.352C845.445 662.199 841.921 666.381 837.119 667.054Z" stroke="black"/>
<rect x="-0.552991" y="-0.417314" width="37.2459" height="4.57246" transform="matrix(-0.987389 0.158314 -0.118593 -0.992943 847.893 670.722)" stroke="black"/>
<rect x="-0.513648" y="0.484659" width="27.2285" height="4.01579" rx="2.00789" transform="matrix(-0.0277546 0.999615 -0.999541 -0.0302976 850.673 641.462)" stroke="black"/>
<rect x="-0.453388" y="-0.551829" width="37.6883" height="4.58421" transform="matrix(-0.994207 -0.107487 0.0874305 -0.996171 846.358 641.312)" stroke="black"/>
<path d="M835.119 728.054L820.542 730.098C814.754 730.909 809.612 726.352 809.724 720.508L809.939 709.327C810.048 703.616 815.135 699.293 820.788 700.105L834.931 702.138C839.497 702.794 842.932 706.636 843.075 711.247L843.295 718.352C843.445 723.199 839.921 727.381 835.119 728.054Z" stroke="black"/>
<rect x="-0.552991" y="-0.417314" width="37.2459" height="4.57246" transform="matrix(-0.987389 0.158314 -0.118593 -0.992943 844.893 731.722)" stroke="black"/>
<rect x="-0.513648" y="0.484659" width="27.2285" height="4.01579" rx="2.00789" transform="matrix(-0.0277546 0.999615 -0.999541 -0.0302976 847.673 702.462)" stroke="black"/>
<rect x="-0.453388" y="-0.551829" width="37.6883" height="4.58421" transform="matrix(-0.994207 -0.107487 0.0874305 -0.996171 843.358 702.312)" stroke="black"/>
<rect x="709.5" y="633.233" width="81" height="101" stroke="black"/>
<path d="M718.358 688H716.511L721.852 673.455H723.67L729.011 688H727.165L722.818 675.756H722.705L718.358 688ZM719.04 682.318H726.483V683.881H719.04V682.318ZM735.936 688.199C734.999 688.199 734.163 688.038 733.429 687.716C732.7 687.394 732.12 686.946 731.689 686.374C731.263 685.796 731.031 685.126 730.993 684.364H732.783C732.821 684.832 732.982 685.237 733.266 685.578C733.55 685.914 733.921 686.175 734.381 686.359C734.84 686.544 735.349 686.636 735.908 686.636C736.533 686.636 737.087 686.527 737.57 686.31C738.053 686.092 738.431 685.789 738.706 685.401C738.981 685.012 739.118 684.562 739.118 684.051C739.118 683.516 738.985 683.045 738.72 682.638C738.455 682.226 738.067 681.904 737.555 681.672C737.044 681.44 736.419 681.324 735.68 681.324H734.516V679.761H735.68C736.258 679.761 736.765 679.657 737.2 679.449C737.641 679.241 737.984 678.947 738.23 678.568C738.481 678.189 738.607 677.744 738.607 677.233C738.607 676.741 738.498 676.312 738.28 675.947C738.062 675.583 737.754 675.299 737.357 675.095C736.964 674.892 736.5 674.79 735.964 674.79C735.463 674.79 734.989 674.882 734.544 675.067C734.104 675.247 733.744 675.509 733.464 675.855C733.185 676.196 733.034 676.608 733.01 677.091H731.305C731.334 676.329 731.563 675.661 731.994 675.088C732.425 674.51 732.989 674.061 733.685 673.739C734.385 673.417 735.155 673.256 735.993 673.256C736.893 673.256 737.664 673.438 738.308 673.803C738.952 674.162 739.447 674.638 739.793 675.23C740.138 675.822 740.311 676.461 740.311 677.148C740.311 677.967 740.096 678.665 739.665 679.243C739.239 679.821 738.659 680.221 737.925 680.443V680.557C738.843 680.708 739.561 681.099 740.077 681.729C740.593 682.354 740.851 683.128 740.851 684.051C740.851 684.842 740.635 685.552 740.205 686.182C739.778 686.807 739.196 687.299 738.457 687.659C737.719 688.019 736.878 688.199 735.936 688.199ZM748.5 688.199C747.43 688.199 746.518 687.908 745.766 687.325C745.013 686.738 744.438 685.888 744.04 684.776C743.642 683.658 743.443 682.309 743.443 680.727C743.443 679.155 743.642 677.813 744.04 676.7C744.442 675.583 745.02 674.731 745.773 674.143C746.53 673.552 747.439 673.256 748.5 673.256C749.561 673.256 750.467 673.552 751.22 674.143C751.978 674.731 752.555 675.583 752.953 676.7C753.356 677.813 753.557 679.155 753.557 680.727C753.557 682.309 753.358 683.658 752.96 684.776C752.562 685.888 751.987 686.738 751.234 687.325C750.482 687.908 749.57 688.199 748.5 688.199ZM748.5 686.636C749.561 686.636 750.384 686.125 750.972 685.102C751.559 684.08 751.852 682.621 751.852 680.727C751.852 679.468 751.717 678.395 751.447 677.51C751.182 676.625 750.799 675.95 750.297 675.486C749.8 675.022 749.201 674.79 748.5 674.79C747.449 674.79 746.627 675.308 746.036 676.345C745.444 677.377 745.148 678.838 745.148 680.727C745.148 681.987 745.28 683.057 745.545 683.938C745.811 684.818 746.192 685.488 746.689 685.947C747.191 686.407 747.795 686.636 748.5 686.636ZM760.915 688.199C759.939 688.199 759.078 688.026 758.33 687.68C757.586 687.33 757.006 686.849 756.589 686.239C756.173 685.623 755.967 684.922 755.972 684.136C755.967 683.521 756.088 682.953 756.334 682.432C756.58 681.906 756.916 681.468 757.342 681.118C757.773 680.763 758.254 680.538 758.784 680.443V680.358C758.088 680.178 757.534 679.787 757.122 679.186C756.71 678.58 756.507 677.891 756.511 677.119C756.507 676.381 756.694 675.72 757.072 675.138C757.451 674.555 757.972 674.096 758.635 673.76C759.303 673.424 760.063 673.256 760.915 673.256C761.758 673.256 762.51 673.424 763.173 673.76C763.836 674.096 764.357 674.555 764.736 675.138C765.119 675.72 765.313 676.381 765.318 677.119C765.313 677.891 765.103 678.58 764.686 679.186C764.274 679.787 763.727 680.178 763.045 680.358V680.443C763.571 680.538 764.045 680.763 764.466 681.118C764.887 681.468 765.223 681.906 765.474 682.432C765.725 682.953 765.853 683.521 765.858 684.136C765.853 684.922 765.64 685.623 765.219 686.239C764.802 686.849 764.222 687.33 763.479 687.68C762.74 688.026 761.885 688.199 760.915 688.199ZM760.915 686.636C761.573 686.636 762.141 686.53 762.619 686.317C763.098 686.104 763.467 685.803 763.727 685.415C763.988 685.027 764.12 684.572 764.125 684.051C764.12 683.502 763.978 683.017 763.699 682.595C763.42 682.174 763.038 681.842 762.555 681.601C762.077 681.359 761.53 681.239 760.915 681.239C760.295 681.239 759.741 681.359 759.253 681.601C758.77 681.842 758.389 682.174 758.109 682.595C757.835 683.017 757.7 683.502 757.705 684.051C757.7 684.572 757.825 685.027 758.081 685.415C758.341 685.803 758.713 686.104 759.196 686.317C759.679 686.53 760.252 686.636 760.915 686.636ZM760.915 679.733C761.436 679.733 761.897 679.629 762.3 679.42C762.707 679.212 763.027 678.921 763.259 678.547C763.491 678.173 763.609 677.735 763.614 677.233C763.609 676.741 763.493 676.312 763.266 675.947C763.038 675.578 762.723 675.294 762.321 675.095C761.919 674.892 761.45 674.79 760.915 674.79C760.37 674.79 759.894 674.892 759.487 675.095C759.08 675.294 758.765 675.578 758.543 675.947C758.32 676.312 758.211 676.741 758.216 677.233C758.211 677.735 758.322 678.173 758.55 678.547C758.782 678.921 759.101 679.212 759.509 679.42C759.916 679.629 760.384 679.733 760.915 679.733ZM778.779 678C778.623 677.522 778.417 677.093 778.161 676.714C777.91 676.331 777.609 676.004 777.259 675.734C776.913 675.464 776.52 675.259 776.08 675.116C775.64 674.974 775.157 674.903 774.631 674.903C773.769 674.903 772.986 675.126 772.28 675.571C771.575 676.016 771.014 676.672 770.597 677.538C770.18 678.405 769.972 679.468 769.972 680.727C769.972 681.987 770.183 683.05 770.604 683.916C771.025 684.783 771.596 685.438 772.316 685.884C773.035 686.329 773.845 686.551 774.745 686.551C775.578 686.551 776.312 686.374 776.946 686.018C777.586 685.659 778.083 685.152 778.438 684.499C778.798 683.84 778.978 683.066 778.978 682.176L779.517 682.29H775.142V680.727H780.682V682.29C780.682 683.488 780.426 684.529 779.915 685.415C779.408 686.3 778.708 686.987 777.813 687.474C776.923 687.957 775.9 688.199 774.745 688.199C773.457 688.199 772.325 687.896 771.35 687.29C770.379 686.684 769.622 685.822 769.077 684.705C768.537 683.587 768.267 682.261 768.267 680.727C768.267 679.577 768.421 678.542 768.729 677.624C769.042 676.7 769.482 675.914 770.05 675.266C770.618 674.617 771.291 674.12 772.067 673.774C772.844 673.429 773.698 673.256 774.631 673.256C775.398 673.256 776.113 673.372 776.776 673.604C777.444 673.831 778.038 674.155 778.559 674.577C779.084 674.993 779.522 675.493 779.873 676.075C780.223 676.653 780.464 677.295 780.597 678H778.779Z" fill="black"/>
<path d="M649.938 460.666L664.473 458.344C670.245 457.422 675.472 461.88 675.472 467.725V478.908C675.472 484.619 670.469 489.04 664.802 488.336L650.623 486.575C646.045 486.006 642.537 482.231 642.305 477.623L641.949 470.523C641.706 465.68 645.15 461.431 649.938 460.666Z" stroke="black"/>
<rect x="0.560887" y="0.40664" width="37.2459" height="4.57246" transform="matrix(0.984173 -0.177208 0.1376 0.990488 640.034 457.881)" stroke="black"/>
<rect x="0.504265" y="-0.494413" width="27.2285" height="4.01579" rx="2.00789" transform="matrix(0.00859242 -0.999963 0.999938 0.0111364 639.994 488.835)" stroke="black"/>
<rect x="0.46388" y="0.543039" width="37.6883" height="4.58421" transform="matrix(0.996084 0.0884141 -0.0683233 0.997663 642.502 486.701)" stroke="black"/>
<path d="M652.938 523.666L667.473 521.344C673.245 520.422 678.472 524.88 678.472 530.725V541.908C678.472 547.619 673.469 552.04 667.802 551.336L653.623 549.575C649.045 549.006 645.537 545.231 645.305 540.623L644.949 533.523C644.706 528.68 648.15 524.431 652.938 523.666Z" stroke="black"/>
<rect x="0.560887" y="0.40664" width="37.2459" height="4.57246" transform="matrix(0.984173 -0.177208 0.1376 0.990488 640.034 520.614)" stroke="black"/>
<rect x="0.504265" y="-0.494413" width="27.2285" height="4.01579" rx="2.00789" transform="matrix(0.00859242 -0.999963 0.999938 0.0111364 639.994 551.568)" stroke="black"/>
<rect x="0.46388" y="0.543039" width="37.6883" height="4.58421" transform="matrix(0.996084 0.0884141 -0.0683233 0.997663 642.502 549.434)" stroke="black"/>
<path d="M829.119 486.054L814.542 488.097C808.754 488.909 803.612 484.351 803.724 478.507L803.939 467.326C804.048 461.616 809.135 457.292 814.788 458.105L828.931 460.137C833.497 460.793 836.932 464.635 837.075 469.246L837.295 476.352C837.445 481.199 833.921 485.381 829.119 486.054Z" stroke="black"/>
<rect x="-0.552991" y="-0.417314" width="37.2459" height="4.57246" transform="matrix(-0.987389 0.158314 -0.118593 -0.992943 838.893 489.721)" stroke="black"/>
<rect x="-0.513648" y="0.484659" width="27.2285" height="4.01579" rx="2.00789" transform="matrix(-0.0277546 0.999615 -0.999541 -0.0302976 841.673 460.462)" stroke="black"/>
<rect x="-0.453388" y="-0.551829" width="37.6883" height="4.58421" transform="matrix(-0.994207 -0.107487 0.0874305 -0.996171 837.358 460.311)" stroke="black"/>
<path d="M824.119 548.054L809.542 550.098C803.754 550.909 798.612 546.352 798.724 540.508L798.939 529.327C799.048 523.616 804.135 519.293 809.788 520.105L823.931 522.138C828.497 522.794 831.932 526.636 832.075 531.247L832.295 538.352C832.445 543.199 828.921 547.381 824.119 548.054Z" stroke="black"/>
<rect x="-0.552991" y="-0.417314" width="37.2459" height="4.57246" transform="matrix(-0.987389 0.158314 -0.118593 -0.992943 835.893 550.722)" stroke="black"/>
<rect x="-0.513648" y="0.484659" width="27.2285" height="4.01579" rx="2.00789" transform="matrix(-0.0277546 0.999615 -0.999541 -0.0302976 838.673 521.462)" stroke="black"/>
<rect x="-0.453388" y="-0.551829" width="37.6883" height="4.58421" transform="matrix(-0.994207 -0.107487 0.0874305 -0.996171 834.358 521.312)" stroke="black"/>
<rect x="700.5" y="452.233" width="81" height="101" stroke="black"/>
<path d="M709.358 507H707.511L712.852 492.455H714.67L720.011 507H718.165L713.818 494.756H713.705L709.358 507ZM710.04 501.318H717.483V502.881H710.04V501.318ZM726.936 507.199C725.999 507.199 725.163 507.038 724.429 506.716C723.7 506.394 723.12 505.946 722.689 505.374C722.263 504.796 722.031 504.126 721.993 503.364H723.783C723.821 503.832 723.982 504.237 724.266 504.578C724.55 504.914 724.921 505.175 725.381 505.359C725.84 505.544 726.349 505.636 726.908 505.636C727.533 505.636 728.087 505.527 728.57 505.31C729.053 505.092 729.431 504.789 729.706 504.401C729.981 504.012 730.118 503.562 730.118 503.051C730.118 502.516 729.985 502.045 729.72 501.638C729.455 501.226 729.067 500.904 728.555 500.672C728.044 500.44 727.419 500.324 726.68 500.324H725.516V498.761H726.68C727.258 498.761 727.765 498.657 728.2 498.449C728.641 498.241 728.984 497.947 729.23 497.568C729.481 497.189 729.607 496.744 729.607 496.233C729.607 495.741 729.498 495.312 729.28 494.947C729.062 494.583 728.754 494.299 728.357 494.095C727.964 493.892 727.5 493.79 726.964 493.79C726.463 493.79 725.989 493.882 725.544 494.067C725.104 494.247 724.744 494.509 724.464 494.855C724.185 495.196 724.034 495.608 724.01 496.091H722.305C722.334 495.329 722.563 494.661 722.994 494.088C723.425 493.51 723.989 493.061 724.685 492.739C725.385 492.417 726.155 492.256 726.993 492.256C727.893 492.256 728.664 492.438 729.308 492.803C729.952 493.162 730.447 493.638 730.793 494.23C731.138 494.822 731.311 495.461 731.311 496.148C731.311 496.967 731.096 497.665 730.665 498.243C730.239 498.821 729.659 499.221 728.925 499.443V499.557C729.843 499.708 730.561 500.099 731.077 500.729C731.593 501.354 731.851 502.128 731.851 503.051C731.851 503.842 731.635 504.552 731.205 505.182C730.778 505.807 730.196 506.299 729.457 506.659C728.719 507.019 727.878 507.199 726.936 507.199ZM739.5 507.199C738.43 507.199 737.518 506.908 736.766 506.325C736.013 505.738 735.438 504.888 735.04 503.776C734.642 502.658 734.443 501.309 734.443 499.727C734.443 498.155 734.642 496.813 735.04 495.7C735.442 494.583 736.02 493.731 736.773 493.143C737.53 492.552 738.439 492.256 739.5 492.256C740.561 492.256 741.467 492.552 742.22 493.143C742.978 493.731 743.555 494.583 743.953 495.7C744.356 496.813 744.557 498.155 744.557 499.727C744.557 501.309 744.358 502.658 743.96 503.776C743.562 504.888 742.987 505.738 742.234 506.325C741.482 506.908 740.57 507.199 739.5 507.199ZM739.5 505.636C740.561 505.636 741.384 505.125 741.972 504.102C742.559 503.08 742.852 501.621 742.852 499.727C742.852 498.468 742.717 497.395 742.447 496.51C742.182 495.625 741.799 494.95 741.297 494.486C740.8 494.022 740.201 493.79 739.5 493.79C738.449 493.79 737.627 494.308 737.036 495.345C736.444 496.377 736.148 497.838 736.148 499.727C736.148 500.987 736.28 502.057 736.545 502.938C736.811 503.818 737.192 504.488 737.689 504.947C738.191 505.407 738.795 505.636 739.5 505.636ZM747.32 507L753.825 494.131V494.017H746.325V492.455H755.643V494.102L749.166 507H747.32ZM768.49 497C768.333 496.522 768.127 496.093 767.872 495.714C767.621 495.331 767.32 495.004 766.97 494.734C766.624 494.464 766.231 494.259 765.791 494.116C765.35 493.974 764.868 493.903 764.342 493.903C763.48 493.903 762.697 494.126 761.991 494.571C761.286 495.016 760.725 495.672 760.308 496.538C759.891 497.405 759.683 498.468 759.683 499.727C759.683 500.987 759.894 502.05 760.315 502.916C760.736 503.783 761.307 504.438 762.027 504.884C762.746 505.329 763.556 505.551 764.456 505.551C765.289 505.551 766.023 505.374 766.657 505.018C767.297 504.659 767.794 504.152 768.149 503.499C768.509 502.84 768.689 502.066 768.689 501.176L769.228 501.29H764.853V499.727H770.393V501.29C770.393 502.488 770.137 503.529 769.626 504.415C769.119 505.3 768.419 505.987 767.524 506.474C766.634 506.957 765.611 507.199 764.456 507.199C763.168 507.199 762.036 506.896 761.061 506.29C760.09 505.684 759.333 504.822 758.788 503.705C758.248 502.587 757.978 501.261 757.978 499.727C757.978 498.577 758.132 497.542 758.44 496.624C758.752 495.7 759.193 494.914 759.761 494.266C760.329 493.617 761.002 493.12 761.778 492.774C762.555 492.429 763.409 492.256 764.342 492.256C765.109 492.256 765.824 492.372 766.487 492.604C767.154 492.831 767.749 493.155 768.27 493.577C768.795 493.993 769.233 494.493 769.583 495.075C769.934 495.653 770.175 496.295 770.308 497H768.49Z" fill="black"/>
<path d="M365.938 646.666L380.473 644.344C386.245 643.422 391.472 647.88 391.472 653.725V664.908C391.472 670.619 386.469 675.04 380.802 674.336L366.623 672.575C362.045 672.006 358.537 668.231 358.305 663.623L357.949 656.523C357.706 651.68 361.15 647.431 365.938 646.666Z" stroke="black"/>
<rect x="0.560887" y="0.40664" width="37.2459" height="4.57246" transform="matrix(0.984173 -0.177208 0.1376 0.990488 353.034 642.881)" stroke="black"/>
<rect x="0.504265" y="-0.494413" width="27.2285" height="4.01579" rx="2.00789" transform="matrix(0.00859242 -0.999963 0.999938 0.0111364 352.994 673.835)" stroke="black"/>
<rect x="0.46388" y="0.543039" width="37.6883" height="4.58421" transform="matrix(0.996084 0.0884141 -0.0683233 0.997663 355.502 671.701)" stroke="black"/>
<path d="M364.938 708.666L379.473 706.344C385.245 705.422 390.472 709.88 390.472 715.725V726.908C390.472 732.619 385.469 737.04 379.802 736.336L365.623 734.575C361.045 734.006 357.537 730.231 357.305 725.623L356.949 718.523C356.706 713.68 360.15 709.431 364.938 708.666Z" stroke="black"/>
<rect x="0.560887" y="0.40664" width="37.2459" height="4.57246" transform="matrix(0.984173 -0.177208 0.1376 0.990488 353.034 705.614)" stroke="black"/>
<rect x="0.504265" y="-0.494413" width="27.2285" height="4.01579" rx="2.00789" transform="matrix(0.00859242 -0.999963 0.999938 0.0111364 352.994 736.568)" stroke="black"/>
<rect x="0.46388" y="0.543039" width="37.6883" height="4.58421" transform="matrix(0.996084 0.0884141 -0.0683233 0.997663 355.502 734.434)" stroke="black"/>
<path d="M541.119 671.054L526.542 673.098C520.754 673.909 515.612 669.352 515.724 663.508L515.939 652.327C516.048 646.616 521.135 642.293 526.788 643.105L540.931 645.138C545.497 645.794 548.932 649.636 549.075 654.247L549.295 661.352C549.445 666.199 545.921 670.381 541.119 671.054Z" stroke="black"/>
<rect x="-0.552991" y="-0.417314" width="37.2459" height="4.57246" transform="matrix(-0.987389 0.158314 -0.118593 -0.992943 551.893 674.722)" stroke="black"/>
<rect x="-0.513648" y="0.484659" width="27.2285" height="4.01579" rx="2.00789" transform="matrix(-0.0277546 0.999615 -0.999541 -0.0302976 554.673 645.462)" stroke="black"/>
<rect x="-0.453388" y="-0.551829" width="37.6883" height="4.58421" transform="matrix(-0.994207 -0.107487 0.0874305 -0.996171 550.358 645.312)" stroke="black"/>
<path d="M539.119 732.054L524.542 734.098C518.754 734.909 513.612 730.352 513.724 724.508L513.939 713.327C514.048 707.616 519.135 703.293 524.788 704.105L538.931 706.138C543.497 706.794 546.932 710.636 547.075 715.247L547.295 722.352C547.445 727.199 543.921 731.381 539.119 732.054Z" stroke="black"/>
<rect x="-0.552991" y="-0.417314" width="37.2459" height="4.57246" transform="matrix(-0.987389 0.158314 -0.118593 -0.992943 548.893 735.722)" stroke="black"/>
<rect x="-0.513648" y="0.484659" width="27.2285" height="4.01579" rx="2.00789" transform="matrix(-0.0277546 0.999615 -0.999541 -0.0302976 551.673 706.462)" stroke="black"/>
<rect x="-0.453388" y="-0.551829" width="37.6883" height="4.58421" transform="matrix(-0.994207 -0.107487 0.0874305 -0.996171 547.358 706.312)" stroke="black"/>
<rect x="413.5" y="637.233" width="81" height="101" stroke="black"/>
<path d="M422.358 692H420.511L425.852 677.455H427.67L433.011 692H431.165L426.818 679.756H426.705L422.358 692ZM423.04 686.318H430.483V687.881H423.04V686.318ZM439.936 692.199C438.999 692.199 438.163 692.038 437.429 691.716C436.7 691.394 436.12 690.946 435.689 690.374C435.263 689.796 435.031 689.126 434.993 688.364H436.783C436.821 688.832 436.982 689.237 437.266 689.578C437.55 689.914 437.921 690.175 438.381 690.359C438.84 690.544 439.349 690.636 439.908 690.636C440.533 690.636 441.087 690.527 441.57 690.31C442.053 690.092 442.431 689.789 442.706 689.401C442.981 689.012 443.118 688.562 443.118 688.051C443.118 687.516 442.985 687.045 442.72 686.638C442.455 686.226 442.067 685.904 441.555 685.672C441.044 685.44 440.419 685.324 439.68 685.324H438.516V683.761H439.68C440.258 683.761 440.765 683.657 441.2 683.449C441.641 683.241 441.984 682.947 442.23 682.568C442.481 682.189 442.607 681.744 442.607 681.233C442.607 680.741 442.498 680.312 442.28 679.947C442.062 679.583 441.754 679.299 441.357 679.095C440.964 678.892 440.5 678.79 439.964 678.79C439.463 678.79 438.989 678.882 438.544 679.067C438.104 679.247 437.744 679.509 437.464 679.855C437.185 680.196 437.034 680.608 437.01 681.091H435.305C435.334 680.329 435.563 679.661 435.994 679.088C436.425 678.51 436.989 678.061 437.685 677.739C438.385 677.417 439.155 677.256 439.993 677.256C440.893 677.256 441.664 677.438 442.308 677.803C442.952 678.162 443.447 678.638 443.793 679.23C444.138 679.822 444.311 680.461 444.311 681.148C444.311 681.967 444.096 682.665 443.665 683.243C443.239 683.821 442.659 684.221 441.925 684.443V684.557C442.843 684.708 443.561 685.099 444.077 685.729C444.593 686.354 444.851 687.128 444.851 688.051C444.851 688.842 444.635 689.552 444.205 690.182C443.778 690.807 443.196 691.299 442.457 691.659C441.719 692.019 440.878 692.199 439.936 692.199ZM452.5 692.199C451.43 692.199 450.518 691.908 449.766 691.325C449.013 690.738 448.438 689.888 448.04 688.776C447.642 687.658 447.443 686.309 447.443 684.727C447.443 683.155 447.642 681.813 448.04 680.7C448.442 679.583 449.02 678.731 449.773 678.143C450.53 677.552 451.439 677.256 452.5 677.256C453.561 677.256 454.467 677.552 455.22 678.143C455.978 678.731 456.555 679.583 456.953 680.7C457.356 681.813 457.557 683.155 457.557 684.727C457.557 686.309 457.358 687.658 456.96 688.776C456.562 689.888 455.987 690.738 455.234 691.325C454.482 691.908 453.57 692.199 452.5 692.199ZM452.5 690.636C453.561 690.636 454.384 690.125 454.972 689.102C455.559 688.08 455.852 686.621 455.852 684.727C455.852 683.468 455.717 682.395 455.447 681.51C455.182 680.625 454.799 679.95 454.297 679.486C453.8 679.022 453.201 678.79 452.5 678.79C451.449 678.79 450.627 679.308 450.036 680.345C449.444 681.377 449.148 682.838 449.148 684.727C449.148 685.987 449.28 687.057 449.545 687.938C449.811 688.818 450.192 689.488 450.689 689.947C451.191 690.407 451.795 690.636 452.5 690.636ZM465.085 692.199C464.489 692.189 463.892 692.076 463.295 691.858C462.699 691.64 462.154 691.273 461.662 690.757C461.17 690.236 460.774 689.533 460.476 688.648C460.178 687.758 460.028 686.64 460.028 685.295C460.028 684.008 460.149 682.866 460.391 681.872C460.632 680.873 460.982 680.033 461.442 679.351C461.901 678.664 462.455 678.143 463.104 677.788C463.757 677.433 464.493 677.256 465.312 677.256C466.127 677.256 466.851 677.419 467.486 677.746C468.125 678.068 468.646 678.518 469.048 679.095C469.451 679.673 469.711 680.338 469.83 681.091H468.097C467.936 680.437 467.623 679.895 467.159 679.464C466.695 679.034 466.08 678.818 465.312 678.818C464.186 678.818 463.298 679.308 462.649 680.288C462.005 681.268 461.681 682.644 461.676 684.415H461.79C462.055 684.012 462.37 683.669 462.734 683.385C463.104 683.096 463.511 682.874 463.956 682.717C464.401 682.561 464.872 682.483 465.369 682.483C466.203 682.483 466.965 682.691 467.656 683.108C468.348 683.52 468.902 684.09 469.318 684.82C469.735 685.544 469.943 686.375 469.943 687.312C469.943 688.212 469.742 689.036 469.339 689.784C468.937 690.527 468.371 691.119 467.642 691.56C466.918 691.995 466.065 692.208 465.085 692.199ZM465.085 690.636C465.682 690.636 466.217 690.487 466.69 690.189C467.169 689.891 467.545 689.491 467.82 688.989C468.099 688.487 468.239 687.928 468.239 687.312C468.239 686.711 468.104 686.164 467.834 685.672C467.569 685.175 467.202 684.779 466.733 684.486C466.269 684.192 465.739 684.045 465.142 684.045C464.692 684.045 464.273 684.135 463.885 684.315C463.497 684.491 463.156 684.732 462.862 685.04C462.573 685.348 462.346 685.7 462.18 686.098C462.015 686.491 461.932 686.905 461.932 687.341C461.932 687.919 462.067 688.458 462.337 688.96C462.611 689.462 462.985 689.867 463.459 690.175C463.937 690.482 464.479 690.636 465.085 690.636ZM482.935 682C482.779 681.522 482.573 681.093 482.317 680.714C482.066 680.331 481.766 680.004 481.415 679.734C481.069 679.464 480.676 679.259 480.236 679.116C479.796 678.974 479.313 678.903 478.787 678.903C477.926 678.903 477.142 679.126 476.436 679.571C475.731 680.016 475.17 680.672 474.753 681.538C474.337 682.405 474.128 683.468 474.128 684.727C474.128 685.987 474.339 687.05 474.76 687.916C475.182 688.783 475.752 689.438 476.472 689.884C477.192 690.329 478.001 690.551 478.901 690.551C479.734 690.551 480.468 690.374 481.103 690.018C481.742 689.659 482.239 689.152 482.594 688.499C482.954 687.84 483.134 687.066 483.134 686.176L483.674 686.29H479.299V684.727H484.838V686.29C484.838 687.488 484.583 688.529 484.071 689.415C483.565 690.3 482.864 690.987 481.969 691.474C481.079 691.957 480.056 692.199 478.901 692.199C477.613 692.199 476.481 691.896 475.506 691.29C474.535 690.684 473.778 689.822 473.233 688.705C472.694 687.587 472.424 686.261 472.424 684.727C472.424 683.577 472.578 682.542 472.885 681.624C473.198 680.7 473.638 679.914 474.206 679.266C474.775 678.617 475.447 678.12 476.223 677.774C477 677.429 477.855 677.256 478.787 677.256C479.554 677.256 480.269 677.372 480.932 677.604C481.6 677.831 482.194 678.155 482.715 678.577C483.24 678.993 483.678 679.493 484.029 680.075C484.379 680.653 484.621 681.295 484.753 682H482.935Z" fill="black"/>
<path d="M362.938 456.666L377.473 454.344C383.245 453.422 388.472 457.88 388.472 463.725V474.908C388.472 480.619 383.469 485.04 377.802 484.336L363.623 482.575C359.045 482.006 355.537 478.231 355.305 473.623L354.949 466.523C354.706 461.68 358.15 457.431 362.938 456.666Z" stroke="black"/>
<rect x="0.560887" y="0.40664" width="37.2459" height="4.57246" transform="matrix(0.984173 -0.177208 0.1376 0.990488 353.034 453.881)" stroke="black"/>
<rect x="0.504265" y="-0.494413" width="27.2285" height="4.01579" rx="2.00789" transform="matrix(0.00859242 -0.999963 0.999938 0.0111364 352.994 484.835)" stroke="black"/>
<rect x="0.46388" y="0.543039" width="37.6883" height="4.58421" transform="matrix(0.996084 0.0884141 -0.0683233 0.997663 355.502 482.701)" stroke="black"/>
<path d="M365.938 519.666L380.473 517.344C386.245 516.422 391.472 520.88 391.472 526.725V537.908C391.472 543.619 386.469 548.04 380.802 547.336L366.623 545.575C362.045 545.006 358.537 541.231 358.305 536.623L357.949 529.523C357.706 524.68 361.15 520.431 365.938 519.666Z" stroke="black"/>
<rect x="0.560887" y="0.40664" width="37.2459" height="4.57246" transform="matrix(0.984173 -0.177208 0.1376 0.990488 353.034 516.614)" stroke="black"/>
<rect x="0.504265" y="-0.494413" width="27.2285" height="4.01579" rx="2.00789" transform="matrix(0.00859242 -0.999963 0.999938 0.0111364 352.994 547.568)" stroke="black"/>
<rect x="0.46388" y="0.543039" width="37.6883" height="4.58421" transform="matrix(0.996084 0.0884141 -0.0683233 0.997663 355.502 545.434)" stroke="black"/>
<path d="M542.119 482.054L527.542 484.097C521.754 484.909 516.612 480.351 516.724 474.507L516.939 463.326C517.048 457.616 522.135 453.292 527.788 454.105L541.931 456.137C546.497 456.793 549.932 460.635 550.075 465.246L550.295 472.352C550.445 477.199 546.921 481.381 542.119 482.054Z" stroke="black"/>
<rect x="-0.552991" y="-0.417314" width="37.2459" height="4.57246" transform="matrix(-0.987389 0.158314 -0.118593 -0.992943 551.893 485.721)" stroke="black"/>
<rect x="-0.513648" y="0.484659" width="27.2285" height="4.01579" rx="2.00789" transform="matrix(-0.0277546 0.999615 -0.999541 -0.0302976 554.673 456.462)" stroke="black"/>
<rect x="-0.453388" y="-0.551829" width="37.6883" height="4.58421" transform="matrix(-0.994207 -0.107487 0.0874305 -0.996171 550.358 456.311)" stroke="black"/>
<path d="M537.119 544.054L522.542 546.097C516.754 546.909 511.612 542.351 511.724 536.507L511.939 525.326C512.048 519.616 517.135 515.292 522.788 516.105L536.931 518.137C541.497 518.793 544.932 522.635 545.075 527.246L545.295 534.352C545.445 539.199 541.921 543.381 537.119 544.054Z" stroke="black"/>
<rect x="-0.552991" y="-0.417314" width="37.2459" height="4.57246" transform="matrix(-0.987389 0.158314 -0.118593 -0.992943 548.893 546.721)" stroke="black"/>
<rect x="-0.513648" y="0.484659" width="27.2285" height="4.01579" rx="2.00789" transform="matrix(-0.0277546 0.999615 -0.999541 -0.0302976 551.673 517.462)" stroke="black"/>
<rect x="-0.453388" y="-0.551829" width="37.6883" height="4.58421" transform="matrix(-0.994207 -0.107487 0.0874305 -0.996171 547.358 517.311)" stroke="black"/>
<rect x="413.5" y="448.233" width="81" height="101" stroke="black"/>
<path d="M422.358 503H420.511L425.852 488.455H427.67L433.011 503H431.165L426.818 490.756H426.705L422.358 503ZM423.04 497.318H430.483V498.881H423.04V497.318ZM439.936 503.199C438.999 503.199 438.163 503.038 437.429 502.716C436.7 502.394 436.12 501.946 435.689 501.374C435.263 500.796 435.031 500.126 434.993 499.364H436.783C436.821 499.832 436.982 500.237 437.266 500.578C437.55 500.914 437.921 501.175 438.381 501.359C438.84 501.544 439.349 501.636 439.908 501.636C440.533 501.636 441.087 501.527 441.57 501.31C442.053 501.092 442.431 500.789 442.706 500.401C442.981 500.012 443.118 499.562 443.118 499.051C443.118 498.516 442.985 498.045 442.72 497.638C442.455 497.226 442.067 496.904 441.555 496.672C441.044 496.44 440.419 496.324 439.68 496.324H438.516V494.761H439.68C440.258 494.761 440.765 494.657 441.2 494.449C441.641 494.241 441.984 493.947 442.23 493.568C442.481 493.189 442.607 492.744 442.607 492.233C442.607 491.741 442.498 491.312 442.28 490.947C442.062 490.583 441.754 490.299 441.357 490.095C440.964 489.892 440.5 489.79 439.964 489.79C439.463 489.79 438.989 489.882 438.544 490.067C438.104 490.247 437.744 490.509 437.464 490.855C437.185 491.196 437.034 491.608 437.01 492.091H435.305C435.334 491.329 435.563 490.661 435.994 490.088C436.425 489.51 436.989 489.061 437.685 488.739C438.385 488.417 439.155 488.256 439.993 488.256C440.893 488.256 441.664 488.438 442.308 488.803C442.952 489.162 443.447 489.638 443.793 490.23C444.138 490.822 444.311 491.461 444.311 492.148C444.311 492.967 444.096 493.665 443.665 494.243C443.239 494.821 442.659 495.221 441.925 495.443V495.557C442.843 495.708 443.561 496.099 444.077 496.729C444.593 497.354 444.851 498.128 444.851 499.051C444.851 499.842 444.635 500.552 444.205 501.182C443.778 501.807 443.196 502.299 442.457 502.659C441.719 503.019 440.878 503.199 439.936 503.199ZM452.5 503.199C451.43 503.199 450.518 502.908 449.766 502.325C449.013 501.738 448.438 500.888 448.04 499.776C447.642 498.658 447.443 497.309 447.443 495.727C447.443 494.155 447.642 492.813 448.04 491.7C448.442 490.583 449.02 489.731 449.773 489.143C450.53 488.552 451.439 488.256 452.5 488.256C453.561 488.256 454.467 488.552 455.22 489.143C455.978 489.731 456.555 490.583 456.953 491.7C457.356 492.813 457.557 494.155 457.557 495.727C457.557 497.309 457.358 498.658 456.96 499.776C456.562 500.888 455.987 501.738 455.234 502.325C454.482 502.908 453.57 503.199 452.5 503.199ZM452.5 501.636C453.561 501.636 454.384 501.125 454.972 500.102C455.559 499.08 455.852 497.621 455.852 495.727C455.852 494.468 455.717 493.395 455.447 492.51C455.182 491.625 454.799 490.95 454.297 490.486C453.8 490.022 453.201 489.79 452.5 489.79C451.449 489.79 450.627 490.308 450.036 491.345C449.444 492.377 449.148 493.838 449.148 495.727C449.148 496.987 449.28 498.057 449.545 498.938C449.811 499.818 450.192 500.488 450.689 500.947C451.191 501.407 451.795 501.636 452.5 501.636ZM464.801 503.199C463.968 503.199 463.217 503.033 462.55 502.702C461.882 502.37 461.347 501.916 460.945 501.338C460.542 500.76 460.322 500.102 460.284 499.364H461.989C462.055 500.022 462.353 500.566 462.884 500.997C463.419 501.423 464.058 501.636 464.801 501.636C465.398 501.636 465.928 501.497 466.392 501.217C466.861 500.938 467.228 500.554 467.493 500.067C467.763 499.574 467.898 499.018 467.898 498.398C467.898 497.763 467.758 497.197 467.479 496.7C467.204 496.198 466.825 495.803 466.342 495.514C465.859 495.225 465.308 495.079 464.688 495.074C464.242 495.069 463.786 495.138 463.317 495.28C462.848 495.417 462.462 495.595 462.159 495.812L460.511 495.614L461.392 488.455H468.949V490.017H462.869L462.358 494.307H462.443C462.741 494.07 463.116 493.874 463.565 493.717C464.015 493.561 464.484 493.483 464.972 493.483C465.862 493.483 466.655 493.696 467.351 494.122C468.052 494.544 468.601 495.121 468.999 495.855C469.401 496.589 469.602 497.427 469.602 498.369C469.602 499.297 469.394 500.126 468.977 500.855C468.565 501.58 467.997 502.152 467.273 502.574C466.548 502.991 465.724 503.199 464.801 503.199ZM482.623 493C482.466 492.522 482.26 492.093 482.005 491.714C481.754 491.331 481.453 491.004 481.103 490.734C480.757 490.464 480.364 490.259 479.924 490.116C479.483 489.974 479 489.903 478.475 489.903C477.613 489.903 476.829 490.126 476.124 490.571C475.418 491.016 474.857 491.672 474.441 492.538C474.024 493.405 473.816 494.468 473.816 495.727C473.816 496.987 474.026 498.05 474.448 498.916C474.869 499.783 475.44 500.438 476.159 500.884C476.879 501.329 477.689 501.551 478.588 501.551C479.422 501.551 480.156 501.374 480.79 501.018C481.429 500.659 481.926 500.152 482.282 499.499C482.641 498.84 482.821 498.066 482.821 497.176L483.361 497.29H478.986V495.727H484.526V497.29C484.526 498.488 484.27 499.529 483.759 500.415C483.252 501.3 482.551 501.987 481.657 502.474C480.766 502.957 479.744 503.199 478.588 503.199C477.301 503.199 476.169 502.896 475.194 502.29C474.223 501.684 473.465 500.822 472.921 499.705C472.381 498.587 472.111 497.261 472.111 495.727C472.111 494.577 472.265 493.542 472.573 492.624C472.885 491.7 473.326 490.914 473.894 490.266C474.462 489.617 475.134 489.12 475.911 488.774C476.687 488.429 477.542 488.256 478.475 488.256C479.242 488.256 479.957 488.372 480.62 488.604C481.287 488.831 481.882 489.155 482.402 489.577C482.928 489.993 483.366 490.493 483.716 491.075C484.067 491.653 484.308 492.295 484.441 493H482.623Z" fill="black"/>
<path d="M635.938 175.666L650.473 173.344C656.245 172.422 661.472 176.88 661.472 182.725V193.908C661.472 199.619 656.469 204.04 650.802 203.336L636.623 201.575C632.045 201.006 628.537 197.231 628.305 192.623L627.949 185.523C627.706 180.68 631.15 176.431 635.938 175.666Z" stroke="black"/>
<rect x="0.560887" y="0.40664" width="37.2459" height="4.57246" transform="matrix(0.984173 -0.177208 0.1376 0.990488 626.034 172.881)" stroke="black"/>
<rect x="0.504265" y="-0.494413" width="27.2285" height="4.01579" rx="2.00789" transform="matrix(0.00859242 -0.999963 0.999938 0.0111364 625.994 203.835)" stroke="black"/>
<rect x="0.46388" y="0.543039" width="37.6883" height="4.58421" transform="matrix(0.996084 0.0884141 -0.0683233 0.997663 628.502 201.701)" stroke="black"/>
<path d="M638.938 238.666L653.473 236.344C659.245 235.422 664.472 239.88 664.472 245.725V256.908C664.472 262.619 659.469 267.04 653.802 266.336L639.623 264.575C635.045 264.006 631.537 260.231 631.305 255.623L630.949 248.523C630.706 243.68 634.15 239.431 638.938 238.666Z" stroke="black"/>
<rect x="0.560887" y="0.40664" width="37.2459" height="4.57246" transform="matrix(0.984173 -0.177208 0.1376 0.990488 626.034 235.614)" stroke="black"/>
<rect x="0.504265" y="-0.494413" width="27.2285" height="4.01579" rx="2.00789" transform="matrix(0.00859242 -0.999963 0.999938 0.0111364 625.994 266.568)" stroke="black"/>
<rect x="0.46388" y="0.543039" width="37.6883" height="4.58421" transform="matrix(0.996084 0.0884141 -0.0683233 0.997663 628.502 264.434)" stroke="black"/>
<path d="M815.119 201.054L800.542 203.097C794.754 203.909 789.612 199.351 789.724 193.507L789.939 182.326C790.048 176.616 795.135 172.292 800.788 173.105L814.931 175.137C819.497 175.793 822.932 179.635 823.075 184.246L823.295 191.352C823.445 196.199 819.921 200.381 815.119 201.054Z" stroke="black"/>
<rect x="-0.552991" y="-0.417314" width="37.2459" height="4.57246" transform="matrix(-0.987389 0.158314 -0.118593 -0.992943 824.893 204.721)" stroke="black"/>
<rect x="-0.513648" y="0.484659" width="27.2285" height="4.01579" rx="2.00789" transform="matrix(-0.0277546 0.999615 -0.999541 -0.0302976 827.673 175.462)" stroke="black"/>
<rect x="-0.453388" y="-0.551829" width="37.6883" height="4.58421" transform="matrix(-0.994207 -0.107487 0.0874305 -0.996171 823.358 175.311)" stroke="black"/>
<path d="M810.119 263.054L795.542 265.097C789.754 265.909 784.612 261.351 784.724 255.507L784.939 244.326C785.048 238.616 790.135 234.292 795.788 235.105L809.931 237.137C814.497 237.793 817.932 241.635 818.075 246.246L818.295 253.352C818.445 258.199 814.921 262.381 810.119 263.054Z" stroke="black"/>
<rect x="-0.552991" y="-0.417314" width="37.2459" height="4.57246" transform="matrix(-0.987389 0.158314 -0.118593 -0.992943 821.893 265.721)" stroke="black"/>
<rect x="-0.513648" y="0.484659" width="27.2285" height="4.01579" rx="2.00789" transform="matrix(-0.0277546 0.999615 -0.999541 -0.0302976 824.673 236.462)" stroke="black"/>
<rect x="-0.453388" y="-0.551829" width="37.6883" height="4.58421" transform="matrix(-0.994207 -0.107487 0.0874305 -0.996171 820.358 236.311)" stroke="black"/>
<rect x="686.5" y="167.233" width="81" height="101" stroke="black"/>
<path d="M695.358 222H693.511L698.852 207.455H700.67L706.011 222H704.165L699.818 209.756H699.705L695.358 222ZM696.04 216.318H703.483V217.881H696.04V216.318ZM712.936 222.199C711.999 222.199 711.163 222.038 710.429 221.716C709.7 221.394 709.12 220.946 708.689 220.374C708.263 219.796 708.031 219.126 707.993 218.364H709.783C709.821 218.832 709.982 219.237 710.266 219.578C710.55 219.914 710.921 220.175 711.381 220.359C711.84 220.544 712.349 220.636 712.908 220.636C713.533 220.636 714.087 220.527 714.57 220.31C715.053 220.092 715.431 219.789 715.706 219.401C715.981 219.012 716.118 218.562 716.118 218.051C716.118 217.516 715.985 217.045 715.72 216.638C715.455 216.226 715.067 215.904 714.555 215.672C714.044 215.44 713.419 215.324 712.68 215.324H711.516V213.761H712.68C713.258 213.761 713.765 213.657 714.2 213.449C714.641 213.241 714.984 212.947 715.23 212.568C715.481 212.189 715.607 211.744 715.607 211.233C715.607 210.741 715.498 210.312 715.28 209.947C715.062 209.583 714.754 209.299 714.357 209.095C713.964 208.892 713.5 208.79 712.964 208.79C712.463 208.79 711.989 208.882 711.544 209.067C711.104 209.247 710.744 209.509 710.464 209.855C710.185 210.196 710.034 210.608 710.01 211.091H708.305C708.334 210.329 708.563 209.661 708.994 209.088C709.425 208.51 709.989 208.061 710.685 207.739C711.385 207.417 712.155 207.256 712.993 207.256C713.893 207.256 714.664 207.438 715.308 207.803C715.952 208.162 716.447 208.638 716.793 209.23C717.138 209.822 717.311 210.461 717.311 211.148C717.311 211.967 717.096 212.665 716.665 213.243C716.239 213.821 715.659 214.221 714.925 214.443V214.557C715.843 214.708 716.561 215.099 717.077 215.729C717.593 216.354 717.851 217.128 717.851 218.051C717.851 218.842 717.635 219.552 717.205 220.182C716.778 220.807 716.196 221.299 715.457 221.659C714.719 222.019 713.878 222.199 712.936 222.199ZM725.5 222.199C724.43 222.199 723.518 221.908 722.766 221.325C722.013 220.738 721.438 219.888 721.04 218.776C720.642 217.658 720.443 216.309 720.443 214.727C720.443 213.155 720.642 211.813 721.04 210.7C721.442 209.583 722.02 208.731 722.773 208.143C723.53 207.552 724.439 207.256 725.5 207.256C726.561 207.256 727.467 207.552 728.22 208.143C728.978 208.731 729.555 209.583 729.953 210.7C730.356 211.813 730.557 213.155 730.557 214.727C730.557 216.309 730.358 217.658 729.96 218.776C729.562 219.888 728.987 220.738 728.234 221.325C727.482 221.908 726.57 222.199 725.5 222.199ZM725.5 220.636C726.561 220.636 727.384 220.125 727.972 219.102C728.559 218.08 728.852 216.621 728.852 214.727C728.852 213.468 728.717 212.395 728.447 211.51C728.182 210.625 727.799 209.95 727.297 209.486C726.8 209.022 726.201 208.79 725.5 208.79C724.449 208.79 723.627 209.308 723.036 210.345C722.444 211.377 722.148 212.838 722.148 214.727C722.148 215.987 722.28 217.057 722.545 217.938C722.811 218.818 723.192 219.488 723.689 219.947C724.191 220.407 724.795 220.636 725.5 220.636ZM732.915 219.017V217.568L739.307 207.455H740.358V209.699H739.648L734.818 217.341V217.455H743.426V219.017H732.915ZM739.761 222V218.577V217.902V207.455H741.438V222H739.761ZM756.287 212C756.13 211.522 755.924 211.093 755.669 210.714C755.418 210.331 755.117 210.004 754.767 209.734C754.421 209.464 754.028 209.259 753.588 209.116C753.147 208.974 752.664 208.903 752.139 208.903C751.277 208.903 750.493 209.126 749.788 209.571C749.083 210.016 748.521 210.672 748.105 211.538C747.688 212.405 747.48 213.468 747.48 214.727C747.48 215.987 747.69 217.05 748.112 217.916C748.533 218.783 749.104 219.438 749.824 219.884C750.543 220.329 751.353 220.551 752.252 220.551C753.086 220.551 753.82 220.374 754.454 220.018C755.093 219.659 755.591 219.152 755.946 218.499C756.306 217.84 756.485 217.066 756.485 216.176L757.025 216.29H752.65V214.727H758.19V216.29C758.19 217.488 757.934 218.529 757.423 219.415C756.916 220.3 756.216 220.987 755.321 221.474C754.431 221.957 753.408 222.199 752.252 222.199C750.965 222.199 749.833 221.896 748.858 221.29C747.887 220.684 747.129 219.822 746.585 218.705C746.045 217.587 745.775 216.261 745.775 214.727C745.775 213.577 745.929 212.542 746.237 211.624C746.549 210.7 746.99 209.914 747.558 209.266C748.126 208.617 748.798 208.12 749.575 207.774C750.351 207.429 751.206 207.256 752.139 207.256C752.906 207.256 753.621 207.372 754.284 207.604C754.951 207.831 755.546 208.155 756.066 208.577C756.592 208.993 757.03 209.493 757.38 210.075C757.731 210.653 757.972 211.295 758.105 212H756.287Z" fill="black"/>
<path d="M634.938 32.6662L649.473 30.3437C655.245 29.4215 660.472 33.88 660.472 39.7247V50.9081C660.472 56.6193 655.469 61.0396 649.802 60.3357L635.623 58.5747C631.045 58.0061 627.537 54.2308 627.305 49.6234L626.949 42.5234C626.706 37.6802 630.15 33.4313 634.938 32.6662Z" stroke="black"/>
<rect x="0.560887" y="0.40664" width="37.2459" height="4.57246" transform="matrix(0.984173 -0.177208 0.1376 0.990488 625.034 29.8806)" stroke="black"/>
<rect x="0.504265" y="-0.494413" width="27.2285" height="4.01579" rx="2.00789" transform="matrix(0.00859242 -0.999963 0.999938 0.0111364 624.994 60.8352)" stroke="black"/>
<rect x="0.46388" y="0.543039" width="37.6883" height="4.58421" transform="matrix(0.996084 0.0884141 -0.0683233 0.997663 627.502 58.7015)" stroke="black"/>
<path d="M637.938 95.6662L652.473 93.3437C658.245 92.4215 663.472 96.88 663.472 102.725V113.908C663.472 119.619 658.469 124.04 652.802 123.336L638.623 121.575C634.045 121.006 630.537 117.231 630.305 112.623L629.949 105.523C629.706 100.68 633.15 96.4313 637.938 95.6662Z" stroke="black"/>
<rect x="0.560887" y="0.40664" width="37.2459" height="4.57246" transform="matrix(0.984173 -0.177208 0.1376 0.990488 625.034 92.6135)" stroke="black"/>
<rect x="0.504265" y="-0.494413" width="27.2285" height="4.01579" rx="2.00789" transform="matrix(0.00859242 -0.999963 0.999938 0.0111364 624.994 123.568)" stroke="black"/>
<rect x="0.46388" y="0.543039" width="37.6883" height="4.58421" transform="matrix(0.996084 0.0884141 -0.0683233 0.997663 627.502 121.434)" stroke="black"/>
<path d="M814.119 58.054L799.542 60.0975C793.754 60.9089 788.612 56.351 788.724 50.5074L788.939 39.3261C789.048 33.6159 794.135 29.2924 799.788 30.1048L813.931 32.1371C818.497 32.7933 821.932 36.6352 822.075 41.2462L822.295 48.3517C822.445 53.1986 818.921 57.3807 814.119 58.054Z" stroke="black"/>
<rect x="-0.552991" y="-0.417314" width="37.2459" height="4.57246" transform="matrix(-0.987389 0.158314 -0.118593 -0.992943 823.893 61.7212)" stroke="black"/>
<rect x="-0.513648" y="0.484659" width="27.2285" height="4.01579" rx="2.00789" transform="matrix(-0.0277546 0.999615 -0.999541 -0.0302976 826.673 32.462)" stroke="black"/>
<rect x="-0.453388" y="-0.551829" width="37.6883" height="4.58421" transform="matrix(-0.994207 -0.107487 0.0874305 -0.996171 822.358 32.3111)" stroke="black"/>
<path d="M809.119 120.054L794.542 122.097C788.754 122.909 783.612 118.351 783.724 112.507L783.939 101.326C784.048 95.6159 789.135 91.2924 794.788 92.1048L808.931 94.1371C813.497 94.7933 816.932 98.6352 817.075 103.246L817.295 110.352C817.445 115.199 813.921 119.381 809.119 120.054Z" stroke="black"/>
<rect x="-0.552991" y="-0.417314" width="37.2459" height="4.57246" transform="matrix(-0.987389 0.158314 -0.118593 -0.992943 820.893 122.721)" stroke="black"/>
<rect x="-0.513648" y="0.484659" width="27.2285" height="4.01579" rx="2.00789" transform="matrix(-0.0277546 0.999615 -0.999541 -0.0302976 823.673 93.462)" stroke="black"/>
<rect x="-0.453388" y="-0.551829" width="37.6883" height="4.58421" transform="matrix(-0.994207 -0.107487 0.0874305 -0.996171 819.358 93.3111)" stroke="black"/>
<rect x="685.5" y="24.2329" width="81" height="101" stroke="black"/>
<path d="M694.358 79H692.511L697.852 64.4545H699.67L705.011 79H703.165L698.818 66.7557H698.705L694.358 79ZM695.04 73.3182H702.483V74.8807H695.04V73.3182ZM711.936 79.1989C710.999 79.1989 710.163 79.0379 709.429 78.7159C708.7 78.3939 708.12 77.9465 707.689 77.3736C707.263 76.7959 707.031 76.1259 706.993 75.3636H708.783C708.821 75.8324 708.982 76.2372 709.266 76.5781C709.55 76.9143 709.921 77.1747 710.381 77.3594C710.84 77.544 711.349 77.6364 711.908 77.6364C712.533 77.6364 713.087 77.5275 713.57 77.3097C714.053 77.0919 714.431 76.7888 714.706 76.4006C714.981 76.0123 715.118 75.5625 715.118 75.0511C715.118 74.5161 714.985 74.045 714.72 73.6378C714.455 73.2259 714.067 72.9039 713.555 72.6719C713.044 72.4399 712.419 72.3239 711.68 72.3239H710.516V70.7614H711.68C712.258 70.7614 712.765 70.6572 713.2 70.4489C713.641 70.2405 713.984 69.947 714.23 69.5682C714.481 69.1894 714.607 68.7443 714.607 68.233C714.607 67.7405 714.498 67.312 714.28 66.9474C714.062 66.5829 713.754 66.2988 713.357 66.0952C712.964 65.8916 712.5 65.7898 711.964 65.7898C711.463 65.7898 710.989 65.8821 710.544 66.0668C710.104 66.2467 709.744 66.5095 709.464 66.8551C709.185 67.196 709.034 67.608 709.01 68.0909H707.305C707.334 67.3286 707.563 66.661 707.994 66.0881C708.425 65.5104 708.989 65.0606 709.685 64.7386C710.385 64.4167 711.155 64.2557 711.993 64.2557C712.893 64.2557 713.664 64.438 714.308 64.8026C714.952 65.1624 715.447 65.6383 715.793 66.2301C716.138 66.822 716.311 67.4612 716.311 68.1477C716.311 68.9669 716.096 69.6652 715.665 70.2429C715.239 70.8205 714.659 71.2206 713.925 71.4432V71.5568C714.843 71.7083 715.561 72.099 716.077 72.7287C716.593 73.3537 716.851 74.1278 716.851 75.0511C716.851 75.8419 716.635 76.5521 716.205 77.1818C715.778 77.8068 715.196 78.2992 714.457 78.6591C713.719 79.0189 712.878 79.1989 711.936 79.1989ZM724.5 79.1989C723.43 79.1989 722.518 78.9077 721.766 78.3253C721.013 77.7382 720.438 76.8883 720.04 75.7756C719.642 74.6581 719.443 73.3087 719.443 71.7273C719.443 70.1553 719.642 68.813 720.04 67.7003C720.442 66.5829 721.02 65.7306 721.773 65.1435C722.53 64.5516 723.439 64.2557 724.5 64.2557C725.561 64.2557 726.467 64.5516 727.22 65.1435C727.978 65.7306 728.555 66.5829 728.953 67.7003C729.356 68.813 729.557 70.1553 729.557 71.7273C729.557 73.3087 729.358 74.6581 728.96 75.7756C728.562 76.8883 727.987 77.7382 727.234 78.3253C726.482 78.9077 725.57 79.1989 724.5 79.1989ZM724.5 77.6364C725.561 77.6364 726.384 77.125 726.972 76.1023C727.559 75.0795 727.852 73.6212 727.852 71.7273C727.852 70.4678 727.717 69.3954 727.447 68.5099C727.182 67.6245 726.799 66.9498 726.297 66.4858C725.8 66.0218 725.201 65.7898 724.5 65.7898C723.449 65.7898 722.627 66.3082 722.036 67.3452C721.444 68.3774 721.148 69.8381 721.148 71.7273C721.148 72.9867 721.28 74.0568 721.545 74.9375C721.811 75.8182 722.192 76.4882 722.689 76.9474C723.191 77.4067 723.795 77.6364 724.5 77.6364ZM737.17 79.1989C736.233 79.1989 735.397 79.0379 734.663 78.7159C733.934 78.3939 733.354 77.9465 732.923 77.3736C732.497 76.7959 732.265 76.1259 732.227 75.3636H734.017C734.055 75.8324 734.216 76.2372 734.5 76.5781C734.784 76.9143 735.156 77.1747 735.615 77.3594C736.074 77.544 736.583 77.6364 737.142 77.6364C737.767 77.6364 738.321 77.5275 738.804 77.3097C739.287 77.0919 739.666 76.7888 739.94 76.4006C740.215 76.0123 740.352 75.5625 740.352 75.0511C740.352 74.5161 740.22 74.045 739.955 73.6378C739.689 73.2259 739.301 72.9039 738.79 72.6719C738.278 72.4399 737.653 72.3239 736.915 72.3239H735.75V70.7614H736.915C737.492 70.7614 737.999 70.6572 738.435 70.4489C738.875 70.2405 739.218 69.947 739.464 69.5682C739.715 69.1894 739.841 68.7443 739.841 68.233C739.841 67.7405 739.732 67.312 739.514 66.9474C739.296 66.5829 738.989 66.2988 738.591 66.0952C738.198 65.8916 737.734 65.7898 737.199 65.7898C736.697 65.7898 736.223 65.8821 735.778 66.0668C735.338 66.2467 734.978 66.5095 734.699 66.8551C734.42 67.196 734.268 67.608 734.244 68.0909H732.54C732.568 67.3286 732.798 66.661 733.229 66.0881C733.66 65.5104 734.223 65.0606 734.919 64.7386C735.62 64.4167 736.389 64.2557 737.227 64.2557C738.127 64.2557 738.899 64.438 739.543 64.8026C740.187 65.1624 740.681 65.6383 741.027 66.2301C741.373 66.822 741.545 67.4612 741.545 68.1477C741.545 68.9669 741.33 69.6652 740.899 70.2429C740.473 70.8205 739.893 71.2206 739.159 71.4432V71.5568C740.078 71.7083 740.795 72.099 741.311 72.7287C741.827 73.3537 742.085 74.1278 742.085 75.0511C742.085 75.8419 741.87 76.5521 741.439 77.1818C741.013 77.8068 740.43 78.2992 739.692 78.6591C738.953 79.0189 738.113 79.1989 737.17 79.1989ZM755.189 69C755.033 68.5218 754.827 68.0933 754.571 67.7145C754.32 67.331 754.019 67.0043 753.669 66.7344C753.323 66.4645 752.93 66.2585 752.49 66.1165C752.05 65.9744 751.567 65.9034 751.041 65.9034C750.179 65.9034 749.396 66.1259 748.69 66.571C747.985 67.0161 747.424 67.6719 747.007 68.5384C746.59 69.4048 746.382 70.4678 746.382 71.7273C746.382 72.9867 746.593 74.0497 747.014 74.9162C747.436 75.7827 748.006 76.4384 748.726 76.8835C749.446 77.3286 750.255 77.5511 751.155 77.5511C751.988 77.5511 752.722 77.3736 753.357 77.0185C753.996 76.6586 754.493 76.152 754.848 75.4986C755.208 74.8404 755.388 74.0663 755.388 73.1761L755.928 73.2898H751.553V71.7273H757.092V73.2898C757.092 74.4877 756.837 75.5294 756.325 76.4148C755.819 77.3002 755.118 77.9867 754.223 78.4744C753.333 78.9574 752.31 79.1989 751.155 79.1989C749.867 79.1989 748.735 78.8958 747.76 78.2898C746.789 77.6837 746.032 76.822 745.487 75.7045C744.947 74.5871 744.678 73.2614 744.678 71.7273C744.678 70.5767 744.831 69.5421 745.139 68.6236C745.452 67.7003 745.892 66.9143 746.46 66.2656C747.028 65.617 747.701 65.1198 748.477 64.7741C749.254 64.4285 750.108 64.2557 751.041 64.2557C751.808 64.2557 752.523 64.3717 753.186 64.6037C753.854 64.831 754.448 65.1553 754.969 65.5767C755.494 65.9934 755.932 66.4929 756.283 67.0753C756.633 67.6529 756.875 68.2945 757.007 69H755.189Z" fill="black"/>
<path d="M366.938 181.666L381.473 179.344C387.245 178.422 392.472 182.88 392.472 188.725V199.908C392.472 205.619 387.469 210.04 381.802 209.336L367.623 207.575C363.045 207.006 359.537 203.231 359.305 198.623L358.949 191.523C358.706 186.68 362.15 182.431 366.938 181.666Z" stroke="black"/>
<rect x="0.560887" y="0.40664" width="37.2459" height="4.57246" transform="matrix(0.984173 -0.177208 0.1376 0.990488 357.034 178.881)" stroke="black"/>
<rect x="0.504265" y="-0.494413" width="27.2285" height="4.01579" rx="2.00789" transform="matrix(0.00859242 -0.999963 0.999938 0.0111364 356.994 209.835)" stroke="black"/>
<rect x="0.46388" y="0.543039" width="37.6883" height="4.58421" transform="matrix(0.996084 0.0884141 -0.0683233 0.997663 359.502 207.701)" stroke="black"/>
<path d="M369.938 244.666L384.473 242.344C390.245 241.422 395.472 245.88 395.472 251.725V262.908C395.472 268.619 390.469 273.04 384.802 272.336L370.623 270.575C366.045 270.006 362.537 266.231 362.305 261.623L361.949 254.523C361.706 249.68 365.15 245.431 369.938 244.666Z" stroke="black"/>
<rect x="0.560887" y="0.40664" width="37.2459" height="4.57246" transform="matrix(0.984173 -0.177208 0.1376 0.990488 357.034 241.614)" stroke="black"/>
<rect x="0.504265" y="-0.494413" width="27.2285" height="4.01579" rx="2.00789" transform="matrix(0.00859242 -0.999963 0.999938 0.0111364 356.994 272.568)" stroke="black"/>
<rect x="0.46388" y="0.543039" width="37.6883" height="4.58421" transform="matrix(0.996084 0.0884141 -0.0683233 0.997663 359.502 270.434)" stroke="black"/>
<path d="M546.119 207.054L531.542 209.097C525.754 209.909 520.612 205.351 520.724 199.507L520.939 188.326C521.048 182.616 526.135 178.292 531.788 179.105L545.931 181.137C550.497 181.793 553.932 185.635 554.075 190.246L554.295 197.352C554.445 202.199 550.921 206.381 546.119 207.054Z" stroke="black"/>
<rect x="-0.552991" y="-0.417314" width="37.2459" height="4.57246" transform="matrix(-0.987389 0.158314 -0.118593 -0.992943 555.893 210.721)" stroke="black"/>
<rect x="-0.513648" y="0.484659" width="27.2285" height="4.01579" rx="2.00789" transform="matrix(-0.0277546 0.999615 -0.999541 -0.0302976 558.673 181.462)" stroke="black"/>
<rect x="-0.453388" y="-0.551829" width="37.6883" height="4.58421" transform="matrix(-0.994207 -0.107487 0.0874305 -0.996171 554.358 181.311)" stroke="black"/>
<path d="M541.119 269.054L526.542 271.097C520.754 271.909 515.612 267.351 515.724 261.507L515.939 250.326C516.048 244.616 521.135 240.292 526.788 241.105L540.931 243.137C545.497 243.793 548.932 247.635 549.075 252.246L549.295 259.352C549.445 264.199 545.921 268.381 541.119 269.054Z" stroke="black"/>
<rect x="-0.552991" y="-0.417314" width="37.2459" height="4.57246" transform="matrix(-0.987389 0.158314 -0.118593 -0.992943 552.893 271.721)" stroke="black"/>
<rect x="-0.513648" y="0.484659" width="27.2285" height="4.01579" rx="2.00789" transform="matrix(-0.0277546 0.999615 -0.999541 -0.0302976 555.673 242.462)" stroke="black"/>
<rect x="-0.453388" y="-0.551829" width="37.6883" height="4.58421" transform="matrix(-0.994207 -0.107487 0.0874305 -0.996171 551.358 242.311)" stroke="black"/>
<rect x="417.5" y="173.233" width="81" height="101" stroke="black"/>
<path d="M426.358 228H424.511L429.852 213.455H431.67L437.011 228H435.165L430.818 215.756H430.705L426.358 228ZM427.04 222.318H434.483V223.881H427.04V222.318ZM443.936 228.199C442.999 228.199 442.163 228.038 441.429 227.716C440.7 227.394 440.12 226.946 439.689 226.374C439.263 225.796 439.031 225.126 438.993 224.364H440.783C440.821 224.832 440.982 225.237 441.266 225.578C441.55 225.914 441.921 226.175 442.381 226.359C442.84 226.544 443.349 226.636 443.908 226.636C444.533 226.636 445.087 226.527 445.57 226.31C446.053 226.092 446.431 225.789 446.706 225.401C446.981 225.012 447.118 224.562 447.118 224.051C447.118 223.516 446.985 223.045 446.72 222.638C446.455 222.226 446.067 221.904 445.555 221.672C445.044 221.44 444.419 221.324 443.68 221.324H442.516V219.761H443.68C444.258 219.761 444.765 219.657 445.2 219.449C445.641 219.241 445.984 218.947 446.23 218.568C446.481 218.189 446.607 217.744 446.607 217.233C446.607 216.741 446.498 216.312 446.28 215.947C446.062 215.583 445.754 215.299 445.357 215.095C444.964 214.892 444.5 214.79 443.964 214.79C443.463 214.79 442.989 214.882 442.544 215.067C442.104 215.247 441.744 215.509 441.464 215.855C441.185 216.196 441.034 216.608 441.01 217.091H439.305C439.334 216.329 439.563 215.661 439.994 215.088C440.425 214.51 440.989 214.061 441.685 213.739C442.385 213.417 443.155 213.256 443.993 213.256C444.893 213.256 445.664 213.438 446.308 213.803C446.952 214.162 447.447 214.638 447.793 215.23C448.138 215.822 448.311 216.461 448.311 217.148C448.311 217.967 448.096 218.665 447.665 219.243C447.239 219.821 446.659 220.221 445.925 220.443V220.557C446.843 220.708 447.561 221.099 448.077 221.729C448.593 222.354 448.851 223.128 448.851 224.051C448.851 224.842 448.635 225.552 448.205 226.182C447.778 226.807 447.196 227.299 446.457 227.659C445.719 228.019 444.878 228.199 443.936 228.199ZM456.5 228.199C455.43 228.199 454.518 227.908 453.766 227.325C453.013 226.738 452.438 225.888 452.04 224.776C451.642 223.658 451.443 222.309 451.443 220.727C451.443 219.155 451.642 217.813 452.04 216.7C452.442 215.583 453.02 214.731 453.773 214.143C454.53 213.552 455.439 213.256 456.5 213.256C457.561 213.256 458.467 213.552 459.22 214.143C459.978 214.731 460.555 215.583 460.953 216.7C461.356 217.813 461.557 219.155 461.557 220.727C461.557 222.309 461.358 223.658 460.96 224.776C460.562 225.888 459.987 226.738 459.234 227.325C458.482 227.908 457.57 228.199 456.5 228.199ZM456.5 226.636C457.561 226.636 458.384 226.125 458.972 225.102C459.559 224.08 459.852 222.621 459.852 220.727C459.852 219.468 459.717 218.395 459.447 217.51C459.182 216.625 458.799 215.95 458.297 215.486C457.8 215.022 457.201 214.79 456.5 214.79C455.449 214.79 454.627 215.308 454.036 216.345C453.444 217.377 453.148 218.838 453.148 220.727C453.148 221.987 453.28 223.057 453.545 223.938C453.811 224.818 454.192 225.488 454.689 225.947C455.191 226.407 455.795 226.636 456.5 226.636ZM464.256 228V226.722L469.057 221.466C469.62 220.85 470.084 220.315 470.449 219.861C470.813 219.402 471.083 218.971 471.259 218.568C471.438 218.161 471.528 217.735 471.528 217.29C471.528 216.778 471.405 216.336 471.159 215.962C470.918 215.588 470.586 215.299 470.165 215.095C469.743 214.892 469.27 214.79 468.744 214.79C468.186 214.79 467.698 214.906 467.281 215.138C466.869 215.365 466.55 215.685 466.322 216.097C466.1 216.509 465.989 216.991 465.989 217.545H464.312C464.312 216.693 464.509 215.945 464.902 215.301C465.295 214.657 465.83 214.155 466.507 213.795C467.189 213.436 467.954 213.256 468.801 213.256C469.653 213.256 470.409 213.436 471.067 213.795C471.725 214.155 472.241 214.641 472.615 215.251C472.989 215.862 473.176 216.542 473.176 217.29C473.176 217.825 473.079 218.348 472.885 218.859C472.696 219.366 472.364 219.932 471.891 220.557C471.422 221.177 470.771 221.935 469.938 222.83L466.67 226.324V226.438H473.432V228H464.256ZM486.564 218C486.408 217.522 486.202 217.093 485.946 216.714C485.695 216.331 485.394 216.004 485.044 215.734C484.698 215.464 484.305 215.259 483.865 215.116C483.425 214.974 482.942 214.903 482.416 214.903C481.554 214.903 480.771 215.126 480.065 215.571C479.36 216.016 478.799 216.672 478.382 217.538C477.965 218.405 477.757 219.468 477.757 220.727C477.757 221.987 477.968 223.05 478.389 223.916C478.811 224.783 479.381 225.438 480.101 225.884C480.821 226.329 481.63 226.551 482.53 226.551C483.363 226.551 484.097 226.374 484.732 226.018C485.371 225.659 485.868 225.152 486.223 224.499C486.583 223.84 486.763 223.066 486.763 222.176L487.303 222.29H482.928V220.727H488.467V222.29C488.467 223.488 488.212 224.529 487.7 225.415C487.194 226.3 486.493 226.987 485.598 227.474C484.708 227.957 483.685 228.199 482.53 228.199C481.242 228.199 480.11 227.896 479.135 227.29C478.164 226.684 477.407 225.822 476.862 224.705C476.322 223.587 476.053 222.261 476.053 220.727C476.053 219.577 476.206 218.542 476.514 217.624C476.827 216.7 477.267 215.914 477.835 215.266C478.403 214.617 479.076 214.12 479.852 213.774C480.629 213.429 481.483 213.256 482.416 213.256C483.183 213.256 483.898 213.372 484.561 213.604C485.229 213.831 485.823 214.155 486.344 214.577C486.869 214.993 487.307 215.493 487.658 216.075C488.008 216.653 488.25 217.295 488.382 218H486.564Z" fill="black"/>
<path d="M362.938 34.6662L377.473 32.3437C383.245 31.4215 388.472 35.88 388.472 41.7247V52.9081C388.472 58.6193 383.469 63.0396 377.802 62.3357L363.623 60.5747C359.045 60.0061 355.537 56.2308 355.305 51.6234L354.949 44.5234C354.706 39.6802 358.15 35.4313 362.938 34.6662Z" stroke="black"/>
<rect x="0.560887" y="0.40664" width="37.2459" height="4.57246" transform="matrix(0.984173 -0.177208 0.1376 0.990488 353.034 31.8806)" stroke="black"/>
<rect x="0.504265" y="-0.494413" width="27.2285" height="4.01579" rx="2.00789" transform="matrix(0.00859242 -0.999963 0.999938 0.0111364 352.994 62.8352)" stroke="black"/>
<rect x="0.46388" y="0.543039" width="37.6883" height="4.58421" transform="matrix(0.996084 0.0884141 -0.0683233 0.997663 355.502 60.7015)" stroke="black"/>
<path d="M365.938 97.6662L380.473 95.3437C386.245 94.4215 391.472 98.88 391.472 104.725V115.908C391.472 121.619 386.469 126.04 380.802 125.336L366.623 123.575C362.045 123.006 358.537 119.231 358.305 114.623L357.949 107.523C357.706 102.68 361.15 98.4313 365.938 97.6662Z" stroke="black"/>
<rect x="0.560887" y="0.40664" width="37.2459" height="4.57246" transform="matrix(0.984173 -0.177208 0.1376 0.990488 353.034 94.6135)" stroke="black"/>
<rect x="0.504265" y="-0.494413" width="27.2285" height="4.01579" rx="2.00789" transform="matrix(0.00859242 -0.999963 0.999938 0.0111364 352.994 125.568)" stroke="black"/>
<rect x="0.46388" y="0.543039" width="37.6883" height="4.58421" transform="matrix(0.996084 0.0884141 -0.0683233 0.997663 355.502 123.434)" stroke="black"/>
<path d="M542.119 60.054L527.542 62.0975C521.754 62.9089 516.612 58.351 516.724 52.5074L516.939 41.3261C517.048 35.6159 522.135 31.2924 527.788 32.1048L541.931 34.1371C546.497 34.7933 549.932 38.6352 550.075 43.2462L550.295 50.3517C550.445 55.1986 546.921 59.3807 542.119 60.054Z" stroke="black"/>
<rect x="-0.552991" y="-0.417314" width="37.2459" height="4.57246" transform="matrix(-0.987389 0.158314 -0.118593 -0.992943 551.893 63.7212)" stroke="black"/>
<rect x="-0.513648" y="0.484659" width="27.2285" height="4.01579" rx="2.00789" transform="matrix(-0.0277546 0.999615 -0.999541 -0.0302976 554.673 34.462)" stroke="black"/>
<rect x="-0.453388" y="-0.551829" width="37.6883" height="4.58421" transform="matrix(-0.994207 -0.107487 0.0874305 -0.996171 550.358 34.3111)" stroke="black"/>
<path d="M537.119 122.054L522.542 124.097C516.754 124.909 511.612 120.351 511.724 114.507L511.939 103.326C512.048 97.6159 517.135 93.2924 522.788 94.1048L536.931 96.1371C541.497 96.7933 544.932 100.635 545.075 105.246L545.295 112.352C545.445 117.199 541.921 121.381 537.119 122.054Z" stroke="black"/>
<rect x="-0.552991" y="-0.417314" width="37.2459" height="4.57246" transform="matrix(-0.987389 0.158314 -0.118593 -0.992943 548.893 124.721)" stroke="black"/>
<rect x="-0.513648" y="0.484659" width="27.2285" height="4.01579" rx="2.00789" transform="matrix(-0.0277546 0.999615 -0.999541 -0.0302976 551.673 95.462)" stroke="black"/>
<rect x="-0.453388" y="-0.551829" width="37.6883" height="4.58421" transform="matrix(-0.994207 -0.107487 0.0874305 -0.996171 547.358 95.3111)" stroke="black"/>
<rect x="413.5" y="26.2329" width="81" height="101" stroke="black"/>
<path d="M422.358 81H420.511L425.852 66.4545H427.67L433.011 81H431.165L426.818 68.7557H426.705L422.358 81ZM423.04 75.3182H430.483V76.8807H423.04V75.3182ZM439.936 81.1989C438.999 81.1989 438.163 81.0379 437.429 80.7159C436.7 80.3939 436.12 79.9465 435.689 79.3736C435.263 78.7959 435.031 78.1259 434.993 77.3636H436.783C436.821 77.8324 436.982 78.2372 437.266 78.5781C437.55 78.9143 437.921 79.1747 438.381 79.3594C438.84 79.544 439.349 79.6364 439.908 79.6364C440.533 79.6364 441.087 79.5275 441.57 79.3097C442.053 79.0919 442.431 78.7888 442.706 78.4006C442.981 78.0123 443.118 77.5625 443.118 77.0511C443.118 76.5161 442.985 76.045 442.72 75.6378C442.455 75.2259 442.067 74.9039 441.555 74.6719C441.044 74.4399 440.419 74.3239 439.68 74.3239H438.516V72.7614H439.68C440.258 72.7614 440.765 72.6572 441.2 72.4489C441.641 72.2405 441.984 71.947 442.23 71.5682C442.481 71.1894 442.607 70.7443 442.607 70.233C442.607 69.7405 442.498 69.312 442.28 68.9474C442.062 68.5829 441.754 68.2988 441.357 68.0952C440.964 67.8916 440.5 67.7898 439.964 67.7898C439.463 67.7898 438.989 67.8821 438.544 68.0668C438.104 68.2467 437.744 68.5095 437.464 68.8551C437.185 69.196 437.034 69.608 437.01 70.0909H435.305C435.334 69.3286 435.563 68.661 435.994 68.0881C436.425 67.5104 436.989 67.0606 437.685 66.7386C438.385 66.4167 439.155 66.2557 439.993 66.2557C440.893 66.2557 441.664 66.438 442.308 66.8026C442.952 67.1624 443.447 67.6383 443.793 68.2301C444.138 68.822 444.311 69.4612 444.311 70.1477C444.311 70.9669 444.096 71.6652 443.665 72.2429C443.239 72.8205 442.659 73.2206 441.925 73.4432V73.5568C442.843 73.7083 443.561 74.099 444.077 74.7287C444.593 75.3537 444.851 76.1278 444.851 77.0511C444.851 77.8419 444.635 78.5521 444.205 79.1818C443.778 79.8068 443.196 80.2992 442.457 80.6591C441.719 81.0189 440.878 81.1989 439.936 81.1989ZM452.5 81.1989C451.43 81.1989 450.518 80.9077 449.766 80.3253C449.013 79.7382 448.438 78.8883 448.04 77.7756C447.642 76.6581 447.443 75.3087 447.443 73.7273C447.443 72.1553 447.642 70.813 448.04 69.7003C448.442 68.5829 449.02 67.7306 449.773 67.1435C450.53 66.5516 451.439 66.2557 452.5 66.2557C453.561 66.2557 454.467 66.5516 455.22 67.1435C455.978 67.7306 456.555 68.5829 456.953 69.7003C457.356 70.813 457.557 72.1553 457.557 73.7273C457.557 75.3087 457.358 76.6581 456.96 77.7756C456.562 78.8883 455.987 79.7382 455.234 80.3253C454.482 80.9077 453.57 81.1989 452.5 81.1989ZM452.5 79.6364C453.561 79.6364 454.384 79.125 454.972 78.1023C455.559 77.0795 455.852 75.6212 455.852 73.7273C455.852 72.4678 455.717 71.3954 455.447 70.5099C455.182 69.6245 454.799 68.9498 454.297 68.4858C453.8 68.0218 453.201 67.7898 452.5 67.7898C451.449 67.7898 450.627 68.3082 450.036 69.3452C449.444 70.3774 449.148 71.8381 449.148 73.7273C449.148 74.9867 449.28 76.0568 449.545 76.9375C449.811 77.8182 450.192 78.4882 450.689 78.9474C451.191 79.4067 451.795 79.6364 452.5 79.6364ZM465.369 66.4545V81H463.608V68.3011H463.523L459.972 70.6591V68.8693L463.608 66.4545H465.369ZM479.751 71C479.595 70.5218 479.389 70.0933 479.134 69.7145C478.883 69.331 478.582 69.0043 478.232 68.7344C477.886 68.4645 477.493 68.2585 477.053 68.1165C476.612 67.9744 476.129 67.9034 475.604 67.9034C474.742 67.9034 473.958 68.1259 473.253 68.571C472.547 69.0161 471.986 69.6719 471.57 70.5384C471.153 71.4048 470.945 72.4678 470.945 73.7273C470.945 74.9867 471.155 76.0497 471.577 76.9162C471.998 77.7827 472.569 78.4384 473.288 78.8835C474.008 79.3286 474.818 79.5511 475.717 79.5511C476.551 79.5511 477.285 79.3736 477.919 79.0185C478.558 78.6586 479.055 78.152 479.411 77.4986C479.77 76.8404 479.95 76.0663 479.95 75.1761L480.49 75.2898H476.115V73.7273H481.655V75.2898C481.655 76.4877 481.399 77.5294 480.888 78.4148C480.381 79.3002 479.68 79.9867 478.786 80.4744C477.895 80.9574 476.873 81.1989 475.717 81.1989C474.429 81.1989 473.298 80.8958 472.322 80.2898C471.352 79.6837 470.594 78.822 470.05 77.7045C469.51 76.5871 469.24 75.2614 469.24 73.7273C469.24 72.5767 469.394 71.5421 469.702 70.6236C470.014 69.7003 470.455 68.9143 471.023 68.2656C471.591 67.617 472.263 67.1198 473.04 66.7741C473.816 66.4285 474.671 66.2557 475.604 66.2557C476.371 66.2557 477.086 66.3717 477.749 66.6037C478.416 66.831 479.01 67.1553 479.531 67.5767C480.057 67.9934 480.495 68.4929 480.845 69.0753C481.196 69.6529 481.437 70.2945 481.57 71H479.751Z" fill="black"/>
<path d="M2.5 352.5H302.5V372.5H2.5V352.5Z" fill="#D9D9D9" stroke="black"/>
<rect x="280.503" y="797.229" width="386.691" height="20" transform="rotate(-89.6425 280.503 797.229)" fill="#D9D9D9" stroke="black"/>
<rect x="282.983" y="295.272" width="288.774" height="20" transform="rotate(-89.6425 282.983 295.272)" fill="#D9D9D9" stroke="black"/>
</svg>
