<svg width="891" height="700" viewBox="0 0 891 700" fill="none" xmlns="http://www.w3.org/2000/svg">
<rect x="1.5" y="1.5" width="888" height="697" fill="white" stroke="black" stroke-width="3"/>
<path d="M101.682 369.052L99.3508 354.518C98.4251 348.747 102.881 343.517 108.725 343.513L119.909 343.507C125.62 343.503 130.043 348.504 129.343 354.172L127.59 368.352C127.024 372.93 123.251 376.44 118.644 376.674L111.544 377.035C106.701 377.281 102.45 373.84 101.682 369.052Z" stroke="black"/>
<rect x="0.406307" y="-0.561128" width="37.2459" height="4.57246" transform="matrix(-0.177792 -0.984068 0.990406 -0.138188 98.4571 381.056)" stroke="black"/>
<rect x="-0.494713" y="-0.503972" width="27.2285" height="4.01579" rx="2.00789" transform="matrix(-0.999968 -0.00799875 0.0105428 -0.999944 127.482 381.345)" stroke="black"/>
<rect x="0.542763" y="-0.464203" width="37.6883" height="4.58421" transform="matrix(0.0878228 -0.996136 0.997704 0.067731 127.343 379.003)" stroke="black"/>
<rect x="78.5" y="332.5" width="43" height="68" transform="rotate(-90 78.5 332.5)" stroke="black"/>
<path d="M89.358 320H87.5114L92.8523 305.455H94.6705L100.011 320H98.1648L93.8182 307.756H93.7045L89.358 320ZM90.0398 314.318H97.483V315.881H90.0398V314.318ZM106.451 305.455V320H104.69V307.301H104.605L101.054 309.659V307.869L104.69 305.455H106.451ZM115.379 320.199C114.309 320.199 113.397 319.908 112.645 319.325C111.892 318.738 111.316 317.888 110.919 316.776C110.521 315.658 110.322 314.309 110.322 312.727C110.322 311.155 110.521 309.813 110.919 308.7C111.321 307.583 111.899 306.731 112.652 306.143C113.409 305.552 114.318 305.256 115.379 305.256C116.44 305.256 117.346 305.552 118.099 306.143C118.857 306.731 119.434 307.583 119.832 308.7C120.234 309.813 120.436 311.155 120.436 312.727C120.436 314.309 120.237 315.658 119.839 316.776C119.441 317.888 118.866 318.738 118.113 319.325C117.36 319.908 116.449 320.199 115.379 320.199ZM115.379 318.636C116.44 318.636 117.263 318.125 117.85 317.102C118.438 316.08 118.731 314.621 118.731 312.727C118.731 311.468 118.596 310.395 118.326 309.51C118.061 308.625 117.678 307.95 117.176 307.486C116.679 307.022 116.08 306.79 115.379 306.79C114.328 306.79 113.506 307.308 112.914 308.345C112.323 309.377 112.027 310.838 112.027 312.727C112.027 313.987 112.159 315.057 112.424 315.938C112.69 316.818 113.071 317.488 113.568 317.947C114.07 318.407 114.673 318.636 115.379 318.636ZM128.248 305.455V320H126.487V307.301H126.402L122.85 309.659V307.869L126.487 305.455H128.248Z" fill="black"/>
<path d="M100.682 507.052L98.3508 492.518C97.4251 486.747 101.881 481.517 107.725 481.513L118.909 481.507C124.62 481.503 129.043 486.504 128.343 492.172L126.59 506.352C126.024 510.93 122.251 514.44 117.644 514.674L110.544 515.035C105.701 515.281 101.45 511.84 100.682 507.052Z" stroke="black"/>
<rect x="0.406307" y="-0.561128" width="37.2459" height="4.57246" transform="matrix(-0.177792 -0.984068 0.990406 -0.138188 98.4571 519.056)" stroke="black"/>
<rect x="-0.494713" y="-0.503972" width="27.2285" height="4.01579" rx="2.00789" transform="matrix(-0.999968 -0.00799875 0.0105428 -0.999944 127.482 519.345)" stroke="black"/>
<rect x="0.542763" y="-0.464203" width="37.6883" height="4.58421" transform="matrix(0.0878228 -0.996136 0.997704 0.067731 127.343 517.003)" stroke="black"/>
<rect x="78.5" y="470.5" width="43" height="68" transform="rotate(-90 78.5 470.5)" stroke="black"/>
<path d="M90.358 458H88.5114L93.8523 443.455H95.6705L101.011 458H99.1648L94.8182 445.756H94.7045L90.358 458ZM91.0398 452.318H98.483V453.881H91.0398V452.318ZM107.451 443.455V458H105.69V445.301H105.605L102.054 447.659V445.869L105.69 443.455H107.451ZM116.379 458.199C115.309 458.199 114.397 457.908 113.645 457.325C112.892 456.738 112.316 455.888 111.919 454.776C111.521 453.658 111.322 452.309 111.322 450.727C111.322 449.155 111.521 447.813 111.919 446.7C112.321 445.583 112.899 444.731 113.652 444.143C114.409 443.552 115.318 443.256 116.379 443.256C117.44 443.256 118.346 443.552 119.099 444.143C119.857 444.731 120.434 445.583 120.832 446.7C121.234 447.813 121.436 449.155 121.436 450.727C121.436 452.309 121.237 453.658 120.839 454.776C120.441 455.888 119.866 456.738 119.113 457.325C118.36 457.908 117.449 458.199 116.379 458.199ZM116.379 456.636C117.44 456.636 118.263 456.125 118.85 455.102C119.438 454.08 119.731 452.621 119.731 450.727C119.731 449.468 119.596 448.395 119.326 447.51C119.061 446.625 118.678 445.95 118.176 445.486C117.679 445.022 117.08 444.79 116.379 444.79C115.328 444.79 114.506 445.308 113.914 446.345C113.323 447.377 113.027 448.838 113.027 450.727C113.027 451.987 113.159 453.057 113.424 453.938C113.69 454.818 114.071 455.488 114.568 455.947C115.07 456.407 115.673 456.636 116.379 456.636ZM124.135 458V456.722L128.936 451.466C129.499 450.85 129.963 450.315 130.328 449.861C130.692 449.402 130.962 448.971 131.137 448.568C131.317 448.161 131.407 447.735 131.407 447.29C131.407 446.778 131.284 446.336 131.038 445.962C130.797 445.588 130.465 445.299 130.044 445.095C129.622 444.892 129.149 444.79 128.623 444.79C128.065 444.79 127.577 444.906 127.16 445.138C126.748 445.365 126.429 445.685 126.201 446.097C125.979 446.509 125.868 446.991 125.868 447.545H124.191C124.191 446.693 124.388 445.945 124.781 445.301C125.174 444.657 125.709 444.155 126.386 443.795C127.068 443.436 127.833 443.256 128.68 443.256C129.532 443.256 130.288 443.436 130.946 443.795C131.604 444.155 132.12 444.641 132.494 445.251C132.868 445.862 133.055 446.542 133.055 447.29C133.055 447.825 132.958 448.348 132.764 448.859C132.574 449.366 132.243 449.932 131.77 450.557C131.301 451.177 130.65 451.935 129.816 452.83L126.549 456.324V456.438H133.311V458H124.135Z" fill="black"/>
<path d="M101.681 636.052L99.3503 621.518C98.4247 615.747 102.88 610.517 108.725 610.514L119.908 610.507C125.619 610.504 130.043 615.504 129.342 621.172L127.589 635.352C127.024 639.931 123.25 643.441 118.643 643.675L111.543 644.035C106.7 644.281 102.449 640.84 101.681 636.052Z" stroke="black"/>
<rect x="0.406307" y="-0.561128" width="37.2459" height="4.57246" transform="matrix(-0.177792 -0.984068 0.990406 -0.138188 98.4571 645.056)" stroke="black"/>
<rect x="-0.494713" y="-0.503972" width="27.2285" height="4.01579" rx="2.00789" transform="matrix(-0.999968 -0.00799875 0.0105428 -0.999944 127.482 645.345)" stroke="black"/>
<rect x="0.542763" y="-0.464203" width="37.6883" height="4.58421" transform="matrix(0.0878228 -0.996136 0.997704 0.067731 127.343 643.003)" stroke="black"/>
<rect x="78.5" y="596.5" width="43" height="68" transform="rotate(-90 78.5 596.5)" stroke="black"/>
<path d="M89.358 584H87.5114L92.8523 569.455H94.6705L100.011 584H98.1648L93.8182 571.756H93.7045L89.358 584ZM90.0398 578.318H97.483V579.881H90.0398V578.318ZM106.451 569.455V584H104.69V571.301H104.605L101.054 573.659V571.869L104.69 569.455H106.451ZM115.379 584.199C114.309 584.199 113.397 583.908 112.645 583.325C111.892 582.738 111.316 581.888 110.919 580.776C110.521 579.658 110.322 578.309 110.322 576.727C110.322 575.155 110.521 573.813 110.919 572.7C111.321 571.583 111.899 570.731 112.652 570.143C113.409 569.552 114.318 569.256 115.379 569.256C116.44 569.256 117.346 569.552 118.099 570.143C118.857 570.731 119.434 571.583 119.832 572.7C120.234 573.813 120.436 575.155 120.436 576.727C120.436 578.309 120.237 579.658 119.839 580.776C119.441 581.888 118.866 582.738 118.113 583.325C117.36 583.908 116.449 584.199 115.379 584.199ZM115.379 582.636C116.44 582.636 117.263 582.125 117.85 581.102C118.438 580.08 118.731 578.621 118.731 576.727C118.731 575.468 118.596 574.395 118.326 573.51C118.061 572.625 117.678 571.95 117.176 571.486C116.679 571.022 116.08 570.79 115.379 570.79C114.328 570.79 113.506 571.308 112.914 572.345C112.323 573.377 112.027 574.838 112.027 576.727C112.027 577.987 112.159 579.057 112.424 579.938C112.69 580.818 113.071 581.488 113.568 581.947C114.07 582.407 114.673 582.636 115.379 582.636ZM128.049 584.199C127.112 584.199 126.276 584.038 125.542 583.716C124.813 583.394 124.233 582.946 123.802 582.374C123.376 581.796 123.144 581.126 123.106 580.364H124.896C124.934 580.832 125.095 581.237 125.379 581.578C125.663 581.914 126.035 582.175 126.494 582.359C126.953 582.544 127.462 582.636 128.021 582.636C128.646 582.636 129.2 582.527 129.683 582.31C130.166 582.092 130.545 581.789 130.819 581.401C131.094 581.012 131.231 580.562 131.231 580.051C131.231 579.516 131.099 579.045 130.833 578.638C130.568 578.226 130.18 577.904 129.669 577.672C129.157 577.44 128.532 577.324 127.794 577.324H126.629V575.761H127.794C128.371 575.761 128.878 575.657 129.314 575.449C129.754 575.241 130.097 574.947 130.343 574.568C130.594 574.189 130.72 573.744 130.72 573.233C130.72 572.741 130.611 572.312 130.393 571.947C130.175 571.583 129.868 571.299 129.47 571.095C129.077 570.892 128.613 570.79 128.078 570.79C127.576 570.79 127.102 570.882 126.657 571.067C126.217 571.247 125.857 571.509 125.578 571.855C125.298 572.196 125.147 572.608 125.123 573.091H123.419C123.447 572.329 123.677 571.661 124.108 571.088C124.538 570.51 125.102 570.061 125.798 569.739C126.499 569.417 127.268 569.256 128.106 569.256C129.006 569.256 129.778 569.438 130.422 569.803C131.065 570.162 131.56 570.638 131.906 571.23C132.252 571.822 132.424 572.461 132.424 573.148C132.424 573.967 132.209 574.665 131.778 575.243C131.352 575.821 130.772 576.221 130.038 576.443V576.557C130.957 576.708 131.674 577.099 132.19 577.729C132.706 578.354 132.964 579.128 132.964 580.051C132.964 580.842 132.749 581.552 132.318 582.182C131.892 582.807 131.309 583.299 130.571 583.659C129.832 584.019 128.992 584.199 128.049 584.199Z" fill="black"/>
<path d="M260.682 366.052L258.351 351.518C257.425 345.747 261.881 340.517 267.725 340.513L278.909 340.507C284.62 340.503 289.043 345.504 288.343 351.172L286.59 365.352C286.024 369.93 282.251 373.44 277.644 373.674L270.544 374.035C265.701 374.281 261.45 370.84 260.682 366.052Z" stroke="black"/>
<rect x="0.406307" y="-0.561128" width="37.2459" height="4.57246" transform="matrix(-0.177792 -0.984068 0.990406 -0.138188 258.457 378.056)" stroke="black"/>
<rect x="-0.494713" y="-0.503972" width="27.2285" height="4.01579" rx="2.00789" transform="matrix(-0.999968 -0.00799875 0.0105428 -0.999944 287.482 378.345)" stroke="black"/>
<rect x="0.542763" y="-0.464203" width="37.6883" height="4.58421" transform="matrix(0.0878228 -0.996136 0.997704 0.067731 287.343 376.003)" stroke="black"/>
<rect x="238.5" y="329.5" width="43" height="68" transform="rotate(-90 238.5 329.5)" stroke="black"/>
<path d="M249.358 317H247.511L252.852 302.455H254.67L260.011 317H258.165L253.818 304.756H253.705L249.358 317ZM250.04 311.318H257.483V312.881H250.04V311.318ZM266.451 302.455V317H264.69V304.301H264.605L261.054 306.659V304.869L264.69 302.455H266.451ZM275.379 317.199C274.309 317.199 273.397 316.908 272.645 316.325C271.892 315.738 271.316 314.888 270.919 313.776C270.521 312.658 270.322 311.309 270.322 309.727C270.322 308.155 270.521 306.813 270.919 305.7C271.321 304.583 271.899 303.731 272.652 303.143C273.409 302.552 274.318 302.256 275.379 302.256C276.44 302.256 277.346 302.552 278.099 303.143C278.857 303.731 279.434 304.583 279.832 305.7C280.234 306.813 280.436 308.155 280.436 309.727C280.436 311.309 280.237 312.658 279.839 313.776C279.441 314.888 278.866 315.738 278.113 316.325C277.36 316.908 276.449 317.199 275.379 317.199ZM275.379 315.636C276.44 315.636 277.263 315.125 277.85 314.102C278.438 313.08 278.731 311.621 278.731 309.727C278.731 308.468 278.596 307.395 278.326 306.51C278.061 305.625 277.678 304.95 277.176 304.486C276.679 304.022 276.08 303.79 275.379 303.79C274.328 303.79 273.506 304.308 272.914 305.345C272.323 306.377 272.027 307.838 272.027 309.727C272.027 310.987 272.159 312.057 272.424 312.938C272.69 313.818 273.071 314.488 273.568 314.947C274.07 315.407 274.673 315.636 275.379 315.636ZM282.794 314.017V312.568L289.186 302.455H290.237V304.699H289.527L284.697 312.341V312.455H293.305V314.017H282.794ZM289.64 317V313.577V312.902V302.455H291.316V317H289.64Z" fill="black"/>
<path d="M260.682 505.052L258.351 490.518C257.425 484.747 261.881 479.517 267.725 479.513L278.909 479.507C284.62 479.503 289.043 484.504 288.343 490.172L286.59 504.352C286.024 508.93 282.251 512.44 277.644 512.674L270.544 513.035C265.701 513.281 261.45 509.84 260.682 505.052Z" stroke="black"/>
<rect x="0.406307" y="-0.561128" width="37.2459" height="4.57246" transform="matrix(-0.177792 -0.984068 0.990406 -0.138188 258.457 516.056)" stroke="black"/>
<rect x="-0.494713" y="-0.503972" width="27.2285" height="4.01579" rx="2.00789" transform="matrix(-0.999968 -0.00799875 0.0105428 -0.999944 287.482 516.345)" stroke="black"/>
<rect x="0.542763" y="-0.464203" width="37.6883" height="4.58421" transform="matrix(0.0878228 -0.996136 0.997704 0.067731 287.343 514.003)" stroke="black"/>
<rect x="238.5" y="467.5" width="43" height="68" transform="rotate(-90 238.5 467.5)" stroke="black"/>
<path d="M249.358 455H247.511L252.852 440.455H254.67L260.011 455H258.165L253.818 442.756H253.705L249.358 455ZM250.04 449.318H257.483V450.881H250.04V449.318ZM266.451 440.455V455H264.69V442.301H264.605L261.054 444.659V442.869L264.69 440.455H266.451ZM275.379 455.199C274.309 455.199 273.397 454.908 272.645 454.325C271.892 453.738 271.316 452.888 270.919 451.776C270.521 450.658 270.322 449.309 270.322 447.727C270.322 446.155 270.521 444.813 270.919 443.7C271.321 442.583 271.899 441.731 272.652 441.143C273.409 440.552 274.318 440.256 275.379 440.256C276.44 440.256 277.346 440.552 278.099 441.143C278.857 441.731 279.434 442.583 279.832 443.7C280.234 444.813 280.436 446.155 280.436 447.727C280.436 449.309 280.237 450.658 279.839 451.776C279.441 452.888 278.866 453.738 278.113 454.325C277.36 454.908 276.449 455.199 275.379 455.199ZM275.379 453.636C276.44 453.636 277.263 453.125 277.85 452.102C278.438 451.08 278.731 449.621 278.731 447.727C278.731 446.468 278.596 445.395 278.326 444.51C278.061 443.625 277.678 442.95 277.176 442.486C276.679 442.022 276.08 441.79 275.379 441.79C274.328 441.79 273.506 442.308 272.914 443.345C272.323 444.377 272.027 445.838 272.027 447.727C272.027 448.987 272.159 450.057 272.424 450.938C272.69 451.818 273.071 452.488 273.568 452.947C274.07 453.407 274.673 453.636 275.379 453.636ZM287.68 455.199C286.847 455.199 286.096 455.033 285.429 454.702C284.761 454.37 284.226 453.916 283.824 453.338C283.421 452.76 283.201 452.102 283.163 451.364H284.868C284.934 452.022 285.232 452.566 285.762 452.997C286.297 453.423 286.937 453.636 287.68 453.636C288.277 453.636 288.807 453.497 289.271 453.217C289.74 452.938 290.107 452.554 290.372 452.067C290.642 451.574 290.777 451.018 290.777 450.398C290.777 449.763 290.637 449.197 290.358 448.7C290.083 448.198 289.704 447.803 289.221 447.514C288.738 447.225 288.187 447.079 287.566 447.074C287.121 447.069 286.664 447.138 286.196 447.28C285.727 447.417 285.341 447.595 285.038 447.812L283.39 447.614L284.271 440.455H291.828V442.017H285.748L285.237 446.307H285.322C285.62 446.07 285.994 445.874 286.444 445.717C286.894 445.561 287.363 445.483 287.85 445.483C288.741 445.483 289.534 445.696 290.23 446.122C290.931 446.544 291.48 447.121 291.877 447.855C292.28 448.589 292.481 449.427 292.481 450.369C292.481 451.297 292.273 452.126 291.856 452.855C291.444 453.58 290.876 454.152 290.152 454.574C289.427 454.991 288.603 455.199 287.68 455.199Z" fill="black"/>
<path d="M260.455 630.052L258.124 615.518C257.198 609.747 261.654 604.517 267.498 604.514L278.682 604.507C284.393 604.504 288.816 609.504 288.115 615.172L286.363 629.352C285.797 633.93 282.024 637.441 277.417 637.675L270.317 638.035C265.474 638.281 261.223 634.84 260.455 630.052Z" stroke="black"/>
<rect x="0.406307" y="-0.561128" width="37.2459" height="4.57246" transform="matrix(-0.177792 -0.984068 0.990406 -0.138188 258.457 642.056)" stroke="black"/>
<rect x="-0.494713" y="-0.503972" width="27.2285" height="4.01579" rx="2.00789" transform="matrix(-0.999968 -0.00799875 0.0105428 -0.999944 287.482 642.345)" stroke="black"/>
<rect x="0.542763" y="-0.464203" width="37.6883" height="4.58421" transform="matrix(0.0878228 -0.996136 0.997704 0.067731 287.343 640.003)" stroke="black"/>
<rect x="238.5" y="593.5" width="43" height="68" transform="rotate(-90 238.5 593.5)" stroke="black"/>
<path d="M249.358 581H247.511L252.852 566.455H254.67L260.011 581H258.165L253.818 568.756H253.705L249.358 581ZM250.04 575.318H257.483V576.881H250.04V575.318ZM266.451 566.455V581H264.69V568.301H264.605L261.054 570.659V568.869L264.69 566.455H266.451ZM275.379 581.199C274.309 581.199 273.397 580.908 272.645 580.325C271.892 579.738 271.316 578.888 270.919 577.776C270.521 576.658 270.322 575.309 270.322 573.727C270.322 572.155 270.521 570.813 270.919 569.7C271.321 568.583 271.899 567.731 272.652 567.143C273.409 566.552 274.318 566.256 275.379 566.256C276.44 566.256 277.346 566.552 278.099 567.143C278.857 567.731 279.434 568.583 279.832 569.7C280.234 570.813 280.436 572.155 280.436 573.727C280.436 575.309 280.237 576.658 279.839 577.776C279.441 578.888 278.866 579.738 278.113 580.325C277.36 580.908 276.449 581.199 275.379 581.199ZM275.379 579.636C276.44 579.636 277.263 579.125 277.85 578.102C278.438 577.08 278.731 575.621 278.731 573.727C278.731 572.468 278.596 571.395 278.326 570.51C278.061 569.625 277.678 568.95 277.176 568.486C276.679 568.022 276.08 567.79 275.379 567.79C274.328 567.79 273.506 568.308 272.914 569.345C272.323 570.377 272.027 571.838 272.027 573.727C272.027 574.987 272.159 576.057 272.424 576.938C272.69 577.818 273.071 578.488 273.568 578.947C274.07 579.407 274.673 579.636 275.379 579.636ZM287.964 581.199C287.368 581.189 286.771 581.076 286.174 580.858C285.578 580.64 285.033 580.273 284.541 579.757C284.048 579.236 283.653 578.533 283.355 577.648C283.056 576.758 282.907 575.64 282.907 574.295C282.907 573.008 283.028 571.866 283.27 570.872C283.511 569.873 283.861 569.033 284.321 568.351C284.78 567.664 285.334 567.143 285.983 566.788C286.636 566.433 287.372 566.256 288.191 566.256C289.006 566.256 289.73 566.419 290.365 566.746C291.004 567.068 291.525 567.518 291.927 568.095C292.33 568.673 292.59 569.338 292.708 570.091H290.975C290.815 569.437 290.502 568.895 290.038 568.464C289.574 568.034 288.958 567.818 288.191 567.818C287.065 567.818 286.177 568.308 285.528 569.288C284.884 570.268 284.56 571.644 284.555 573.415H284.669C284.934 573.012 285.249 572.669 285.613 572.385C285.983 572.096 286.39 571.874 286.835 571.717C287.28 571.561 287.751 571.483 288.248 571.483C289.082 571.483 289.844 571.691 290.535 572.108C291.226 572.52 291.78 573.09 292.197 573.82C292.614 574.544 292.822 575.375 292.822 576.312C292.822 577.212 292.621 578.036 292.218 578.784C291.816 579.527 291.25 580.119 290.521 580.56C289.797 580.995 288.944 581.208 287.964 581.199ZM287.964 579.636C288.561 579.636 289.096 579.487 289.569 579.189C290.047 578.891 290.424 578.491 290.699 577.989C290.978 577.487 291.118 576.928 291.118 576.312C291.118 575.711 290.983 575.164 290.713 574.672C290.448 574.175 290.081 573.779 289.612 573.486C289.148 573.192 288.618 573.045 288.021 573.045C287.571 573.045 287.152 573.135 286.764 573.315C286.376 573.491 286.035 573.732 285.741 574.04C285.452 574.348 285.225 574.7 285.059 575.098C284.894 575.491 284.811 575.905 284.811 576.341C284.811 576.919 284.946 577.458 285.216 577.96C285.49 578.462 285.864 578.867 286.338 579.175C286.816 579.482 287.358 579.636 287.964 579.636Z" fill="black"/>
<path d="M420.682 368.052L418.351 353.518C417.425 347.747 421.881 342.517 427.725 342.513L438.909 342.507C444.62 342.503 449.043 347.504 448.343 353.172L446.59 367.352C446.024 371.93 442.251 375.44 437.644 375.674L430.544 376.035C425.701 376.281 421.45 372.84 420.682 368.052Z" stroke="black"/>
<rect x="0.406307" y="-0.561128" width="37.2459" height="4.57246" transform="matrix(-0.177792 -0.984068 0.990406 -0.138188 418.457 380.056)" stroke="black"/>
<rect x="-0.494713" y="-0.503972" width="27.2285" height="4.01579" rx="2.00789" transform="matrix(-0.999968 -0.00799875 0.0105428 -0.999944 447.482 380.345)" stroke="black"/>
<rect x="0.542763" y="-0.464203" width="37.6883" height="4.58421" transform="matrix(0.0878228 -0.996136 0.997704 0.067731 447.343 378.003)" stroke="black"/>
<rect x="398.5" y="331.5" width="43" height="68" transform="rotate(-90 398.5 331.5)" stroke="black"/>
<path d="M409.358 319H407.511L412.852 304.455H414.67L420.011 319H418.165L413.818 306.756H413.705L409.358 319ZM410.04 313.318H417.483V314.881H410.04V313.318ZM426.451 304.455V319H424.69V306.301H424.605L421.054 308.659V306.869L424.69 304.455H426.451ZM435.379 319.199C434.309 319.199 433.397 318.908 432.645 318.325C431.892 317.738 431.316 316.888 430.919 315.776C430.521 314.658 430.322 313.309 430.322 311.727C430.322 310.155 430.521 308.813 430.919 307.7C431.321 306.583 431.899 305.731 432.652 305.143C433.409 304.552 434.318 304.256 435.379 304.256C436.44 304.256 437.346 304.552 438.099 305.143C438.857 305.731 439.434 306.583 439.832 307.7C440.234 308.813 440.436 310.155 440.436 311.727C440.436 313.309 440.237 314.658 439.839 315.776C439.441 316.888 438.866 317.738 438.113 318.325C437.36 318.908 436.449 319.199 435.379 319.199ZM435.379 317.636C436.44 317.636 437.263 317.125 437.85 316.102C438.438 315.08 438.731 313.621 438.731 311.727C438.731 310.468 438.596 309.395 438.326 308.51C438.061 307.625 437.678 306.95 437.176 306.486C436.679 306.022 436.08 305.79 435.379 305.79C434.328 305.79 433.506 306.308 432.914 307.345C432.323 308.377 432.027 309.838 432.027 311.727C432.027 312.987 432.159 314.057 432.424 314.938C432.69 315.818 433.071 316.488 433.568 316.947C434.07 317.407 434.673 317.636 435.379 317.636ZM443.199 319L449.704 306.131V306.017H442.204V304.455H451.522V306.102L445.045 319H443.199Z" fill="black"/>
<path d="M420.682 506.052L418.351 491.518C417.425 485.747 421.881 480.517 427.725 480.513L438.909 480.507C444.62 480.503 449.043 485.504 448.343 491.172L446.59 505.352C446.024 509.93 442.251 513.44 437.644 513.674L430.544 514.035C425.701 514.281 421.45 510.84 420.682 506.052Z" stroke="black"/>
<rect x="0.406307" y="-0.561128" width="37.2459" height="4.57246" transform="matrix(-0.177792 -0.984068 0.990406 -0.138188 418.457 518.056)" stroke="black"/>
<rect x="-0.494713" y="-0.503972" width="27.2285" height="4.01579" rx="2.00789" transform="matrix(-0.999968 -0.00799875 0.0105428 -0.999944 447.482 518.345)" stroke="black"/>
<rect x="0.542763" y="-0.464203" width="37.6883" height="4.58421" transform="matrix(0.0878228 -0.996136 0.997704 0.067731 447.343 516.003)" stroke="black"/>
<rect x="398.5" y="469.5" width="43" height="68" transform="rotate(-90 398.5 469.5)" stroke="black"/>
<path d="M409.358 457H407.511L412.852 442.455H414.67L420.011 457H418.165L413.818 444.756H413.705L409.358 457ZM410.04 451.318H417.483V452.881H410.04V451.318ZM426.451 442.455V457H424.69V444.301H424.605L421.054 446.659V444.869L424.69 442.455H426.451ZM435.379 457.199C434.309 457.199 433.397 456.908 432.645 456.325C431.892 455.738 431.316 454.888 430.919 453.776C430.521 452.658 430.322 451.309 430.322 449.727C430.322 448.155 430.521 446.813 430.919 445.7C431.321 444.583 431.899 443.731 432.652 443.143C433.409 442.552 434.318 442.256 435.379 442.256C436.44 442.256 437.346 442.552 438.099 443.143C438.857 443.731 439.434 444.583 439.832 445.7C440.234 446.813 440.436 448.155 440.436 449.727C440.436 451.309 440.237 452.658 439.839 453.776C439.441 454.888 438.866 455.738 438.113 456.325C437.36 456.908 436.449 457.199 435.379 457.199ZM435.379 455.636C436.44 455.636 437.263 455.125 437.85 454.102C438.438 453.08 438.731 451.621 438.731 449.727C438.731 448.468 438.596 447.395 438.326 446.51C438.061 445.625 437.678 444.95 437.176 444.486C436.679 444.022 436.08 443.79 435.379 443.79C434.328 443.79 433.506 444.308 432.914 445.345C432.323 446.377 432.027 447.838 432.027 449.727C432.027 450.987 432.159 452.057 432.424 452.938C432.69 453.818 433.071 454.488 433.568 454.947C434.07 455.407 434.673 455.636 435.379 455.636ZM447.794 457.199C446.818 457.199 445.957 457.026 445.208 456.68C444.465 456.33 443.885 455.849 443.468 455.239C443.052 454.623 442.846 453.922 442.85 453.136C442.846 452.521 442.967 451.953 443.213 451.432C443.459 450.906 443.795 450.468 444.221 450.118C444.652 449.763 445.133 449.538 445.663 449.443V449.358C444.967 449.178 444.413 448.787 444.001 448.186C443.589 447.58 443.386 446.891 443.39 446.119C443.386 445.381 443.573 444.72 443.951 444.138C444.33 443.555 444.851 443.096 445.514 442.76C446.181 442.424 446.941 442.256 447.794 442.256C448.636 442.256 449.389 442.424 450.052 442.76C450.715 443.096 451.236 443.555 451.615 444.138C451.998 444.72 452.192 445.381 452.197 446.119C452.192 446.891 451.982 447.58 451.565 448.186C451.153 448.787 450.606 449.178 449.924 449.358V449.443C450.45 449.538 450.923 449.763 451.345 450.118C451.766 450.468 452.102 450.906 452.353 451.432C452.604 451.953 452.732 452.521 452.737 453.136C452.732 453.922 452.519 454.623 452.098 455.239C451.681 455.849 451.101 456.33 450.358 456.68C449.619 457.026 448.764 457.199 447.794 457.199ZM447.794 455.636C448.452 455.636 449.02 455.53 449.498 455.317C449.976 455.104 450.346 454.803 450.606 454.415C450.867 454.027 450.999 453.572 451.004 453.051C450.999 452.502 450.857 452.017 450.578 451.595C450.298 451.174 449.917 450.842 449.434 450.601C448.956 450.359 448.409 450.239 447.794 450.239C447.173 450.239 446.619 450.359 446.132 450.601C445.649 450.842 445.268 451.174 444.988 451.595C444.714 452.017 444.579 452.502 444.583 453.051C444.579 453.572 444.704 454.027 444.96 454.415C445.22 454.803 445.592 455.104 446.075 455.317C446.558 455.53 447.131 455.636 447.794 455.636ZM447.794 448.733C448.315 448.733 448.776 448.629 449.179 448.42C449.586 448.212 449.905 447.921 450.137 447.547C450.369 447.173 450.488 446.735 450.493 446.233C450.488 445.741 450.372 445.312 450.145 444.947C449.917 444.578 449.602 444.294 449.2 444.095C448.797 443.892 448.329 443.79 447.794 443.79C447.249 443.79 446.773 443.892 446.366 444.095C445.959 444.294 445.644 444.578 445.422 444.947C445.199 445.312 445.09 445.741 445.095 446.233C445.09 446.735 445.201 447.173 445.429 447.547C445.661 447.921 445.98 448.212 446.387 448.42C446.795 448.629 447.263 448.733 447.794 448.733Z" fill="black"/>
<path d="M420.681 632.052L418.35 617.518C417.425 611.747 421.88 606.517 427.725 606.514L438.908 606.507C444.619 606.504 449.043 611.504 448.342 617.172L446.589 631.352C446.024 635.93 442.25 639.441 437.643 639.675L430.543 640.035C425.7 640.281 421.449 636.84 420.681 632.052Z" stroke="black"/>
<rect x="0.406307" y="-0.561128" width="37.2459" height="4.57246" transform="matrix(-0.177792 -0.984068 0.990406 -0.138188 418.457 644.056)" stroke="black"/>
<rect x="-0.494713" y="-0.503972" width="27.2285" height="4.01579" rx="2.00789" transform="matrix(-0.999968 -0.00799875 0.0105428 -0.999944 447.482 644.345)" stroke="black"/>
<rect x="0.542763" y="-0.464203" width="37.6883" height="4.58421" transform="matrix(0.0878228 -0.996136 0.997704 0.067731 447.343 642.003)" stroke="black"/>
<rect x="398.5" y="595.5" width="43" height="68" transform="rotate(-90 398.5 595.5)" stroke="black"/>
<path d="M409.358 583H407.511L412.852 568.455H414.67L420.011 583H418.165L413.818 570.756H413.705L409.358 583ZM410.04 577.318H417.483V578.881H410.04V577.318ZM426.451 568.455V583H424.69V570.301H424.605L421.054 572.659V570.869L424.69 568.455H426.451ZM435.379 583.199C434.309 583.199 433.397 582.908 432.645 582.325C431.892 581.738 431.316 580.888 430.919 579.776C430.521 578.658 430.322 577.309 430.322 575.727C430.322 574.155 430.521 572.813 430.919 571.7C431.321 570.583 431.899 569.731 432.652 569.143C433.409 568.552 434.318 568.256 435.379 568.256C436.44 568.256 437.346 568.552 438.099 569.143C438.857 569.731 439.434 570.583 439.832 571.7C440.234 572.813 440.436 574.155 440.436 575.727C440.436 577.309 440.237 578.658 439.839 579.776C439.441 580.888 438.866 581.738 438.113 582.325C437.36 582.908 436.449 583.199 435.379 583.199ZM435.379 581.636C436.44 581.636 437.263 581.125 437.85 580.102C438.438 579.08 438.731 577.621 438.731 575.727C438.731 574.468 438.596 573.395 438.326 572.51C438.061 571.625 437.678 570.95 437.176 570.486C436.679 570.022 436.08 569.79 435.379 569.79C434.328 569.79 433.506 570.308 432.914 571.345C432.323 572.377 432.027 573.838 432.027 575.727C432.027 576.987 432.159 578.057 432.424 578.938C432.69 579.818 433.071 580.488 433.568 580.947C434.07 581.407 434.673 581.636 435.379 581.636ZM447.765 568.256C448.362 568.26 448.958 568.374 449.555 568.597C450.152 568.819 450.696 569.188 451.189 569.705C451.681 570.216 452.076 570.914 452.375 571.8C452.673 572.685 452.822 573.795 452.822 575.131C452.822 576.423 452.699 577.571 452.453 578.575C452.211 579.574 451.861 580.417 451.402 581.104C450.947 581.79 450.393 582.311 449.74 582.666C449.091 583.021 448.357 583.199 447.538 583.199C446.724 583.199 445.997 583.038 445.358 582.716C444.723 582.389 444.202 581.937 443.795 581.359C443.393 580.777 443.135 580.102 443.021 579.335H444.754C444.91 580.003 445.22 580.554 445.684 580.99C446.153 581.421 446.771 581.636 447.538 581.636C448.66 581.636 449.546 581.146 450.194 580.166C450.848 579.186 451.174 577.801 451.174 576.011H451.061C450.796 576.409 450.481 576.752 450.116 577.041C449.752 577.33 449.347 577.553 448.902 577.709C448.457 577.865 447.983 577.943 447.481 577.943C446.648 577.943 445.883 577.737 445.187 577.325C444.496 576.909 443.942 576.338 443.525 575.614C443.113 574.884 442.907 574.051 442.907 573.114C442.907 572.223 443.106 571.409 443.504 570.67C443.906 569.927 444.47 569.335 445.194 568.895C445.923 568.455 446.78 568.241 447.765 568.256ZM447.765 569.818C447.169 569.818 446.631 569.967 446.153 570.266C445.68 570.559 445.303 570.957 445.024 571.459C444.749 571.956 444.612 572.508 444.612 573.114C444.612 573.72 444.744 574.271 445.01 574.768C445.279 575.261 445.646 575.654 446.11 575.947C446.579 576.236 447.112 576.381 447.708 576.381C448.158 576.381 448.577 576.293 448.966 576.118C449.354 575.938 449.692 575.694 449.981 575.386C450.275 575.074 450.504 574.721 450.67 574.328C450.836 573.93 450.919 573.516 450.919 573.085C450.919 572.517 450.781 571.984 450.507 571.487C450.237 570.99 449.863 570.588 449.385 570.28C448.911 569.972 448.371 569.818 447.765 569.818Z" fill="black"/>
<path d="M562.682 365.531L560.351 350.998C559.425 345.227 563.881 339.996 569.725 339.993L580.909 339.986C586.62 339.983 591.043 344.984 590.343 350.652L588.59 364.832C588.024 369.41 584.251 372.92 579.644 373.154L572.544 373.515C567.701 373.761 563.45 370.32 562.682 365.531Z" stroke="black"/>
<rect x="0.406307" y="-0.561128" width="37.2459" height="4.57246" transform="matrix(-0.177792 -0.984068 0.990406 -0.138188 560.457 377.056)" stroke="black"/>
<rect x="-0.494713" y="-0.503972" width="27.2285" height="4.01579" rx="2.00789" transform="matrix(-0.999968 -0.00799875 0.0105428 -0.999944 589.482 377.345)" stroke="black"/>
<rect x="0.542763" y="-0.464203" width="37.6883" height="4.58421" transform="matrix(0.0878228 -0.996136 0.997704 0.067731 589.343 375.003)" stroke="black"/>
<rect x="540.5" y="328.5" width="43" height="68" transform="rotate(-90 540.5 328.5)" stroke="black"/>
<path d="M556.358 315H554.511L559.852 300.455H561.67L567.011 315H565.165L560.818 302.756H560.705L556.358 315ZM557.04 309.318H564.483V310.881H557.04V309.318ZM573.451 300.455V315H571.69V302.301H571.605L568.054 304.659V302.869L571.69 300.455H573.451ZM582.748 300.455V315H580.987V302.301H580.902L577.35 304.659V302.869L580.987 300.455H582.748ZM591.676 315.199C590.606 315.199 589.694 314.908 588.941 314.325C588.189 313.738 587.613 312.888 587.216 311.776C586.818 310.658 586.619 309.309 586.619 307.727C586.619 306.155 586.818 304.813 587.216 303.7C587.618 302.583 588.196 301.731 588.949 301.143C589.706 300.552 590.615 300.256 591.676 300.256C592.736 300.256 593.643 300.552 594.396 301.143C595.154 301.731 595.731 302.583 596.129 303.7C596.531 304.813 596.733 306.155 596.733 307.727C596.733 309.309 596.534 310.658 596.136 311.776C595.738 312.888 595.163 313.738 594.41 314.325C593.657 314.908 592.746 315.199 591.676 315.199ZM591.676 313.636C592.736 313.636 593.56 313.125 594.147 312.102C594.734 311.08 595.028 309.621 595.028 307.727C595.028 306.468 594.893 305.395 594.623 304.51C594.358 303.625 593.975 302.95 593.473 302.486C592.975 302.022 592.377 301.79 591.676 301.79C590.625 301.79 589.803 302.308 589.211 303.345C588.619 304.377 588.324 305.838 588.324 307.727C588.324 308.987 588.456 310.057 588.721 310.938C588.986 311.818 589.368 312.488 589.865 312.947C590.367 313.407 590.97 313.636 591.676 313.636Z" fill="black"/>
<path d="M562.682 503.052L560.351 488.518C559.425 482.747 563.881 477.517 569.725 477.513L580.909 477.507C586.62 477.503 591.043 482.504 590.343 488.172L588.59 502.352C588.024 506.93 584.251 510.44 579.644 510.674L572.544 511.035C567.701 511.281 563.45 507.84 562.682 503.052Z" stroke="black"/>
<rect x="0.406307" y="-0.561128" width="37.2459" height="4.57246" transform="matrix(-0.177792 -0.984068 0.990406 -0.138188 560.457 515.056)" stroke="black"/>
<rect x="-0.494713" y="-0.503972" width="27.2285" height="4.01579" rx="2.00789" transform="matrix(-0.999968 -0.00799875 0.0105428 -0.999944 589.482 515.345)" stroke="black"/>
<rect x="0.542763" y="-0.464203" width="37.6883" height="4.58421" transform="matrix(0.0878228 -0.996136 0.997704 0.067731 589.343 513.003)" stroke="black"/>
<rect x="540.5" y="466.5" width="43" height="68" transform="rotate(-90 540.5 466.5)" stroke="black"/>
<path d="M556.358 453H554.511L559.852 438.455H561.67L567.011 453H565.165L560.818 440.756H560.705L556.358 453ZM557.04 447.318H564.483V448.881H557.04V447.318ZM573.451 438.455V453H571.69V440.301H571.605L568.054 442.659V440.869L571.69 438.455H573.451ZM582.748 438.455V453H580.987V440.301H580.902L577.35 442.659V440.869L580.987 438.455H582.748ZM592.045 438.455V453H590.284V440.301H590.199L586.647 442.659V440.869L590.284 438.455H592.045Z" fill="black"/>
<path d="M563.682 629.052L561.351 614.518C560.425 608.747 564.881 603.517 570.725 603.513L581.909 603.507C587.62 603.503 592.043 608.504 591.343 614.172L589.59 628.352C589.024 632.93 585.251 636.44 580.644 636.674L573.544 637.035C568.701 637.281 564.45 633.84 563.682 629.052Z" stroke="black"/>
<rect x="0.406307" y="-0.561128" width="37.2459" height="4.57246" transform="matrix(-0.177792 -0.984068 0.990406 -0.138188 560.457 641.056)" stroke="black"/>
<rect x="-0.494713" y="-0.503972" width="27.2285" height="4.01579" rx="2.00789" transform="matrix(-0.999968 -0.00799875 0.0105428 -0.999944 589.482 641.345)" stroke="black"/>
<rect x="0.542763" y="-0.464203" width="37.6883" height="4.58421" transform="matrix(0.0878228 -0.996136 0.997704 0.067731 589.343 639.003)" stroke="black"/>
<rect x="540.5" y="592.5" width="43" height="68" transform="rotate(-90 540.5 592.5)" stroke="black"/>
<path d="M556.358 579H554.511L559.852 564.455H561.67L567.011 579H565.165L560.818 566.756H560.705L556.358 579ZM557.04 573.318H564.483V574.881H557.04V573.318ZM573.451 564.455V579H571.69V566.301H571.605L568.054 568.659V566.869L571.69 564.455H573.451ZM582.748 564.455V579H580.987V566.301H580.902L577.35 568.659V566.869L580.987 564.455H582.748ZM586.931 579V577.722L591.733 572.466C592.296 571.85 592.76 571.315 593.125 570.861C593.489 570.402 593.759 569.971 593.934 569.568C594.114 569.161 594.204 568.735 594.204 568.29C594.204 567.778 594.081 567.336 593.835 566.962C593.593 566.588 593.262 566.299 592.841 566.095C592.419 565.892 591.946 565.79 591.42 565.79C590.861 565.79 590.374 565.906 589.957 566.138C589.545 566.365 589.225 566.685 588.998 567.097C588.776 567.509 588.664 567.991 588.664 568.545H586.988C586.988 567.693 587.185 566.945 587.578 566.301C587.971 565.657 588.506 565.155 589.183 564.795C589.865 564.436 590.629 564.256 591.477 564.256C592.329 564.256 593.084 564.436 593.743 564.795C594.401 565.155 594.917 565.641 595.291 566.251C595.665 566.862 595.852 567.542 595.852 568.29C595.852 568.825 595.755 569.348 595.561 569.859C595.371 570.366 595.04 570.932 594.566 571.557C594.098 572.177 593.447 572.935 592.613 573.83L589.346 577.324V577.438H596.108V579H586.931Z" fill="black"/>
<path d="M722.955 359.051L720.624 344.518C719.698 338.747 724.154 333.517 729.998 333.513L741.182 333.506C746.893 333.503 751.316 338.504 750.615 344.172L748.863 358.352C748.297 362.93 744.524 366.44 739.917 366.674L732.817 367.035C727.974 367.281 723.723 363.84 722.955 359.051Z" stroke="black"/>
<rect x="0.406307" y="-0.561128" width="37.2459" height="4.57246" transform="matrix(-0.177792 -0.984068 0.990406 -0.138188 719.457 371.056)" stroke="black"/>
<rect x="-0.494713" y="-0.503972" width="27.2285" height="4.01579" rx="2.00789" transform="matrix(-0.999968 -0.00799875 0.0105428 -0.999944 748.482 371.345)" stroke="black"/>
<rect x="0.542763" y="-0.464203" width="37.6883" height="4.58421" transform="matrix(0.0878228 -0.996136 0.997704 0.067731 748.343 369.003)" stroke="black"/>
<rect x="699.5" y="322.5" width="43" height="68" transform="rotate(-90 699.5 322.5)" stroke="black"/>
<path d="M715.358 309H713.511L718.852 294.455H720.67L726.011 309H724.165L719.818 296.756H719.705L715.358 309ZM716.04 303.318H723.483V304.881H716.04V303.318ZM732.451 294.455V309H730.69V296.301H730.605L727.054 298.659V296.869L730.69 294.455H732.451ZM741.748 294.455V309H739.987V296.301H739.902L736.35 298.659V296.869L739.987 294.455H741.748ZM750.846 309.199C749.909 309.199 749.073 309.038 748.339 308.716C747.61 308.394 747.03 307.946 746.599 307.374C746.173 306.796 745.941 306.126 745.903 305.364H747.693C747.731 305.832 747.892 306.237 748.176 306.578C748.46 306.914 748.832 307.175 749.291 307.359C749.75 307.544 750.259 307.636 750.818 307.636C751.443 307.636 751.997 307.527 752.48 307.31C752.963 307.092 753.342 306.789 753.616 306.401C753.891 306.012 754.028 305.562 754.028 305.051C754.028 304.516 753.895 304.045 753.63 303.638C753.365 303.226 752.977 302.904 752.466 302.672C751.954 302.44 751.329 302.324 750.591 302.324H749.426V300.761H750.591C751.168 300.761 751.675 300.657 752.11 300.449C752.551 300.241 752.894 299.947 753.14 299.568C753.391 299.189 753.517 298.744 753.517 298.233C753.517 297.741 753.408 297.312 753.19 296.947C752.972 296.583 752.664 296.299 752.267 296.095C751.874 295.892 751.41 295.79 750.875 295.79C750.373 295.79 749.899 295.882 749.454 296.067C749.014 296.247 748.654 296.509 748.375 296.855C748.095 297.196 747.944 297.608 747.92 298.091H746.216C746.244 297.329 746.474 296.661 746.904 296.088C747.335 295.51 747.899 295.061 748.595 294.739C749.296 294.417 750.065 294.256 750.903 294.256C751.803 294.256 752.574 294.438 753.218 294.803C753.862 295.162 754.357 295.638 754.703 296.23C755.048 296.822 755.221 297.461 755.221 298.148C755.221 298.967 755.006 299.665 754.575 300.243C754.149 300.821 753.569 301.221 752.835 301.443V301.557C753.753 301.708 754.471 302.099 754.987 302.729C755.503 303.354 755.761 304.128 755.761 305.051C755.761 305.842 755.546 306.552 755.115 307.182C754.689 307.807 754.106 308.299 753.368 308.659C752.629 309.019 751.788 309.199 750.846 309.199Z" fill="black"/>
<path d="M721.682 497.052L719.351 482.518C718.425 476.747 722.881 471.517 728.725 471.513L739.909 471.507C745.62 471.503 750.043 476.504 749.343 482.172L747.59 496.352C747.024 500.93 743.251 504.44 738.644 504.674L731.544 505.035C726.701 505.281 722.45 501.84 721.682 497.052Z" stroke="black"/>
<rect x="0.406307" y="-0.561128" width="37.2459" height="4.57246" transform="matrix(-0.177792 -0.984068 0.990406 -0.138188 719.457 509.056)" stroke="black"/>
<rect x="-0.494713" y="-0.503972" width="27.2285" height="4.01579" rx="2.00789" transform="matrix(-0.999968 -0.00799875 0.0105428 -0.999944 748.482 509.345)" stroke="black"/>
<rect x="0.542763" y="-0.464203" width="37.6883" height="4.58421" transform="matrix(0.0878228 -0.996136 0.997704 0.067731 748.343 507.003)" stroke="black"/>
<rect x="699.5" y="460.5" width="43" height="68" transform="rotate(-90 699.5 460.5)" stroke="black"/>
<path d="M715.358 447H713.511L718.852 432.455H720.67L726.011 447H724.165L719.818 434.756H719.705L715.358 447ZM716.04 441.318H723.483V442.881H716.04V441.318ZM732.451 432.455V447H730.69V434.301H730.605L727.054 436.659V434.869L730.69 432.455H732.451ZM741.748 432.455V447H739.987V434.301H739.902L736.35 436.659V434.869L739.987 432.455H741.748ZM745.591 444.017V442.568L751.983 432.455H753.034V434.699H752.324L747.494 442.341V442.455H756.102V444.017H745.591ZM752.437 447V443.577V442.902V432.455H754.113V447H752.437Z" fill="black"/>
<path d="M721.682 623.052L719.351 608.518C718.425 602.747 722.881 597.517 728.725 597.513L739.909 597.507C745.62 597.503 750.043 602.504 749.343 608.172L747.59 622.352C747.024 626.93 743.251 630.44 738.644 630.674L731.544 631.035C726.701 631.281 722.45 627.84 721.682 623.052Z" stroke="black"/>
<rect x="0.406307" y="-0.561128" width="37.2459" height="4.57246" transform="matrix(-0.177792 -0.984068 0.990406 -0.138188 719.457 635.056)" stroke="black"/>
<rect x="-0.494713" y="-0.503972" width="27.2285" height="4.01579" rx="2.00789" transform="matrix(-0.999968 -0.00799875 0.0105428 -0.999944 748.482 635.345)" stroke="black"/>
<rect x="0.542763" y="-0.464203" width="37.6883" height="4.58421" transform="matrix(0.0878228 -0.996136 0.997704 0.067731 748.343 633.003)" stroke="black"/>
<rect x="699.5" y="586.5" width="43" height="68" transform="rotate(-90 699.5 586.5)" stroke="black"/>
<path d="M715.358 573H713.511L718.852 558.455H720.67L726.011 573H724.165L719.818 560.756H719.705L715.358 573ZM716.04 567.318H723.483V568.881H716.04V567.318ZM732.451 558.455V573H730.69V560.301H730.605L727.054 562.659V560.869L730.69 558.455H732.451ZM741.748 558.455V573H739.987V560.301H739.902L736.35 562.659V560.869L739.987 558.455H741.748ZM750.477 573.199C749.644 573.199 748.893 573.033 748.225 572.702C747.558 572.37 747.023 571.916 746.62 571.338C746.218 570.76 745.998 570.102 745.96 569.364H747.664C747.731 570.022 748.029 570.566 748.559 570.997C749.094 571.423 749.734 571.636 750.477 571.636C751.074 571.636 751.604 571.497 752.068 571.217C752.537 570.938 752.904 570.554 753.169 570.067C753.439 569.574 753.574 569.018 753.574 568.398C753.574 567.763 753.434 567.197 753.154 566.7C752.88 566.198 752.501 565.803 752.018 565.514C751.535 565.225 750.984 565.079 750.363 565.074C749.918 565.069 749.461 565.138 748.993 565.28C748.524 565.417 748.138 565.595 747.835 565.812L746.187 565.614L747.068 558.455H754.625V560.017H748.545L748.034 564.307H748.119C748.417 564.07 748.791 563.874 749.241 563.717C749.691 563.561 750.16 563.483 750.647 563.483C751.538 563.483 752.331 563.696 753.027 564.122C753.727 564.544 754.277 565.121 754.674 565.855C755.077 566.589 755.278 567.427 755.278 568.369C755.278 569.297 755.07 570.126 754.653 570.855C754.241 571.58 753.673 572.152 752.949 572.574C752.224 572.991 751.4 573.199 750.477 573.199Z" fill="black"/>
<path d="M647.938 89.6662L662.473 87.3437C668.245 86.4215 673.472 90.88 673.472 96.7247V107.908C673.472 113.619 668.469 118.04 662.802 117.336L648.623 115.575C644.045 115.006 640.537 111.231 640.305 106.623L639.949 99.5234C639.706 94.6802 643.15 90.4313 647.938 89.6662Z" stroke="black"/>
<rect x="0.560887" y="0.40664" width="37.2459" height="4.57246" transform="matrix(0.984173 -0.177208 0.1376 0.990488 635.034 85.8808)" stroke="black"/>
<rect x="0.504265" y="-0.494413" width="27.2285" height="4.01579" rx="2.00789" transform="matrix(0.00859242 -0.999963 0.999938 0.0111364 634.994 116.835)" stroke="black"/>
<rect x="0.46388" y="0.543039" width="37.6883" height="4.58421" transform="matrix(0.996084 0.0884141 -0.0683233 0.997663 637.502 114.701)" stroke="black"/>
<path d="M646.938 151.666L661.473 149.344C667.245 148.422 672.472 152.88 672.472 158.725V169.908C672.472 175.619 667.469 180.04 661.802 179.336L647.623 177.575C643.045 177.006 639.537 173.231 639.305 168.623L638.949 161.523C638.706 156.68 642.15 152.431 646.938 151.666Z" stroke="black"/>
<rect x="0.560887" y="0.40664" width="37.2459" height="4.57246" transform="matrix(0.984173 -0.177208 0.1376 0.990488 635.034 148.614)" stroke="black"/>
<rect x="0.504265" y="-0.494413" width="27.2285" height="4.01579" rx="2.00789" transform="matrix(0.00859242 -0.999963 0.999938 0.0111364 634.994 179.568)" stroke="black"/>
<rect x="0.46388" y="0.543039" width="37.6883" height="4.58421" transform="matrix(0.996084 0.0884141 -0.0683233 0.997663 637.502 177.434)" stroke="black"/>
<path d="M823.119 114.054L808.542 116.098C802.754 116.909 797.612 112.351 797.724 106.508L797.939 95.3263C798.048 89.6162 803.135 85.2926 808.788 86.105L822.931 88.1374C827.497 88.7936 830.932 92.6354 831.075 97.2465L831.295 104.352C831.445 109.199 827.921 113.381 823.119 114.054Z" stroke="black"/>
<rect x="-0.552991" y="-0.417314" width="37.2459" height="4.57246" transform="matrix(-0.987389 0.158314 -0.118593 -0.992943 833.893 117.721)" stroke="black"/>
<rect x="-0.513648" y="0.484659" width="27.2285" height="4.01579" rx="2.00789" transform="matrix(-0.0277546 0.999615 -0.999541 -0.0302976 836.673 88.4623)" stroke="black"/>
<rect x="-0.453388" y="-0.551829" width="37.6883" height="4.58421" transform="matrix(-0.994207 -0.107487 0.0874305 -0.996171 832.358 88.3111)" stroke="black"/>
<path d="M821.119 175.054L806.542 177.098C800.754 177.909 795.612 173.351 795.724 167.508L795.939 156.326C796.048 150.616 801.135 146.293 806.788 147.105L820.931 149.137C825.497 149.794 828.932 153.635 829.075 158.246L829.295 165.352C829.445 170.199 825.921 174.381 821.119 175.054Z" stroke="black"/>
<rect x="-0.552991" y="-0.417314" width="37.2459" height="4.57246" transform="matrix(-0.987389 0.158314 -0.118593 -0.992943 830.893 178.721)" stroke="black"/>
<rect x="-0.513648" y="0.484659" width="27.2285" height="4.01579" rx="2.00789" transform="matrix(-0.0277546 0.999615 -0.999541 -0.0302976 833.673 149.462)" stroke="black"/>
<rect x="-0.453388" y="-0.551829" width="37.6883" height="4.58421" transform="matrix(-0.994207 -0.107487 0.0874305 -0.996171 829.358 149.311)" stroke="black"/>
<rect x="695.5" y="80.2329" width="81" height="101" stroke="black"/>
<path d="M709.358 139H707.511L712.852 124.455H714.67L720.011 139H718.165L713.818 126.756H713.705L709.358 139ZM710.04 133.318H717.483V134.881H710.04V133.318ZM726.451 124.455V139H724.69V126.301H724.605L721.054 128.659V126.869L724.69 124.455H726.451ZM735.379 139.199C734.309 139.199 733.397 138.908 732.645 138.325C731.892 137.738 731.316 136.888 730.919 135.776C730.521 134.658 730.322 133.309 730.322 131.727C730.322 130.155 730.521 128.813 730.919 127.7C731.321 126.583 731.899 125.731 732.652 125.143C733.409 124.552 734.318 124.256 735.379 124.256C736.44 124.256 737.346 124.552 738.099 125.143C738.857 125.731 739.434 126.583 739.832 127.7C740.234 128.813 740.436 130.155 740.436 131.727C740.436 133.309 740.237 134.658 739.839 135.776C739.441 136.888 738.866 137.738 738.113 138.325C737.36 138.908 736.449 139.199 735.379 139.199ZM735.379 137.636C736.44 137.636 737.263 137.125 737.85 136.102C738.438 135.08 738.731 133.621 738.731 131.727C738.731 130.468 738.596 129.395 738.326 128.51C738.061 127.625 737.678 126.95 737.176 126.486C736.679 126.022 736.08 125.79 735.379 125.79C734.328 125.79 733.506 126.308 732.914 127.345C732.323 128.377 732.027 129.838 732.027 131.727C732.027 132.987 732.159 134.057 732.424 134.938C732.69 135.818 733.071 136.488 733.568 136.947C734.07 137.407 734.673 137.636 735.379 137.636ZM748.049 139.199C747.112 139.199 746.276 139.038 745.542 138.716C744.813 138.394 744.233 137.946 743.802 137.374C743.376 136.796 743.144 136.126 743.106 135.364H744.896C744.934 135.832 745.095 136.237 745.379 136.578C745.663 136.914 746.035 137.175 746.494 137.359C746.953 137.544 747.462 137.636 748.021 137.636C748.646 137.636 749.2 137.527 749.683 137.31C750.166 137.092 750.545 136.789 750.819 136.401C751.094 136.012 751.231 135.562 751.231 135.051C751.231 134.516 751.099 134.045 750.833 133.638C750.568 133.226 750.18 132.904 749.669 132.672C749.157 132.44 748.532 132.324 747.794 132.324H746.629V130.761H747.794C748.371 130.761 748.878 130.657 749.314 130.449C749.754 130.241 750.097 129.947 750.343 129.568C750.594 129.189 750.72 128.744 750.72 128.233C750.72 127.741 750.611 127.312 750.393 126.947C750.175 126.583 749.868 126.299 749.47 126.095C749.077 125.892 748.613 125.79 748.078 125.79C747.576 125.79 747.102 125.882 746.657 126.067C746.217 126.247 745.857 126.509 745.578 126.855C745.298 127.196 745.147 127.608 745.123 128.091H743.419C743.447 127.329 743.677 126.661 744.108 126.088C744.538 125.51 745.102 125.061 745.798 124.739C746.499 124.417 747.268 124.256 748.106 124.256C749.006 124.256 749.778 124.438 750.422 124.803C751.065 125.162 751.56 125.638 751.906 126.23C752.252 126.822 752.424 127.461 752.424 128.148C752.424 128.967 752.209 129.665 751.778 130.243C751.352 130.821 750.772 131.221 750.038 131.443V131.557C750.957 131.708 751.674 132.099 752.19 132.729C752.706 133.354 752.964 134.128 752.964 135.051C752.964 135.842 752.749 136.552 752.318 137.182C751.892 137.807 751.309 138.299 750.571 138.659C749.832 139.019 748.992 139.199 748.049 139.199ZM766.068 129C765.912 128.522 765.706 128.093 765.45 127.714C765.199 127.331 764.898 127.004 764.548 126.734C764.202 126.464 763.809 126.259 763.369 126.116C762.929 125.974 762.446 125.903 761.92 125.903C761.058 125.903 760.275 126.126 759.569 126.571C758.864 127.016 758.303 127.672 757.886 128.538C757.469 129.405 757.261 130.468 757.261 131.727C757.261 132.987 757.472 134.05 757.893 134.916C758.315 135.783 758.885 136.438 759.605 136.884C760.324 137.329 761.134 137.551 762.034 137.551C762.867 137.551 763.601 137.374 764.235 137.018C764.875 136.659 765.372 136.152 765.727 135.499C766.087 134.84 766.267 134.066 766.267 133.176L766.806 133.29H762.431V131.727H767.971V133.29C767.971 134.488 767.716 135.529 767.204 136.415C766.698 137.3 765.997 137.987 765.102 138.474C764.212 138.957 763.189 139.199 762.034 139.199C760.746 139.199 759.614 138.896 758.639 138.29C757.668 137.684 756.911 136.822 756.366 135.705C755.826 134.587 755.556 133.261 755.556 131.727C755.556 130.577 755.71 129.542 756.018 128.624C756.331 127.7 756.771 126.914 757.339 126.266C757.907 125.617 758.58 125.12 759.356 124.774C760.133 124.429 760.987 124.256 761.92 124.256C762.687 124.256 763.402 124.372 764.065 124.604C764.733 124.831 765.327 125.155 765.848 125.577C766.373 125.993 766.811 126.493 767.162 127.075C767.512 127.653 767.753 128.295 767.886 129H766.068Z" fill="black"/>
<path d="M372.938 90.6662L387.473 88.3437C393.245 87.4215 398.472 91.88 398.472 97.7247V108.908C398.472 114.619 393.469 119.04 387.802 118.336L373.623 116.575C369.045 116.006 365.537 112.231 365.305 107.623L364.949 100.523C364.706 95.6802 368.15 91.4313 372.938 90.6662Z" stroke="black"/>
<rect x="0.560887" y="0.40664" width="37.2459" height="4.57246" transform="matrix(0.984173 -0.177208 0.1376 0.990488 363.034 87.8808)" stroke="black"/>
<rect x="0.504265" y="-0.494413" width="27.2285" height="4.01579" rx="2.00789" transform="matrix(0.00859242 -0.999963 0.999938 0.0111364 362.994 118.835)" stroke="black"/>
<rect x="0.46388" y="0.543039" width="37.6883" height="4.58421" transform="matrix(0.996084 0.0884141 -0.0683233 0.997663 365.502 116.701)" stroke="black"/>
<path d="M375.938 153.666L390.473 151.344C396.245 150.422 401.472 154.88 401.472 160.725V171.908C401.472 177.619 396.469 182.04 390.802 181.336L376.623 179.575C372.045 179.006 368.537 175.231 368.305 170.623L367.949 163.523C367.706 158.68 371.15 154.431 375.938 153.666Z" stroke="black"/>
<rect x="0.560887" y="0.40664" width="37.2459" height="4.57246" transform="matrix(0.984173 -0.177208 0.1376 0.990488 363.034 150.614)" stroke="black"/>
<rect x="0.504265" y="-0.494413" width="27.2285" height="4.01579" rx="2.00789" transform="matrix(0.00859242 -0.999963 0.999938 0.0111364 362.994 181.568)" stroke="black"/>
<rect x="0.46388" y="0.543039" width="37.6883" height="4.58421" transform="matrix(0.996084 0.0884141 -0.0683233 0.997663 365.502 179.434)" stroke="black"/>
<path d="M552.119 116.054L537.542 118.098C531.754 118.909 526.612 114.351 526.724 108.508L526.939 97.3263C527.048 91.6162 532.135 87.2926 537.788 88.105L551.931 90.1374C556.497 90.7936 559.932 94.6354 560.075 99.2465L560.295 106.352C560.445 111.199 556.921 115.381 552.119 116.054Z" stroke="black"/>
<rect x="-0.552991" y="-0.417314" width="37.2459" height="4.57246" transform="matrix(-0.987389 0.158314 -0.118593 -0.992943 561.893 119.721)" stroke="black"/>
<rect x="-0.513648" y="0.484659" width="27.2285" height="4.01579" rx="2.00789" transform="matrix(-0.0277546 0.999615 -0.999541 -0.0302976 564.673 90.4623)" stroke="black"/>
<rect x="-0.453388" y="-0.551829" width="37.6883" height="4.58421" transform="matrix(-0.994207 -0.107487 0.0874305 -0.996171 560.358 90.3111)" stroke="black"/>
<path d="M547.119 178.054L532.542 180.098C526.754 180.909 521.612 176.351 521.724 170.508L521.939 159.326C522.048 153.616 527.135 149.293 532.788 150.105L546.931 152.137C551.497 152.794 554.932 156.635 555.075 161.246L555.295 168.352C555.445 173.199 551.921 177.381 547.119 178.054Z" stroke="black"/>
<rect x="-0.552991" y="-0.417314" width="37.2459" height="4.57246" transform="matrix(-0.987389 0.158314 -0.118593 -0.992943 558.893 180.721)" stroke="black"/>
<rect x="-0.513648" y="0.484659" width="27.2285" height="4.01579" rx="2.00789" transform="matrix(-0.0277546 0.999615 -0.999541 -0.0302976 561.673 151.462)" stroke="black"/>
<rect x="-0.453388" y="-0.551829" width="37.6883" height="4.58421" transform="matrix(-0.994207 -0.107487 0.0874305 -0.996171 557.358 151.311)" stroke="black"/>
<rect x="423.5" y="82.2329" width="81" height="101" stroke="black"/>
<path d="M439.358 141H437.511L442.852 126.455H444.67L450.011 141H448.165L443.818 128.756H443.705L439.358 141ZM440.04 135.318H447.483V136.881H440.04V135.318ZM456.451 126.455V141H454.69V128.301H454.605L451.054 130.659V128.869L454.69 126.455H456.451ZM465.379 141.199C464.309 141.199 463.397 140.908 462.645 140.325C461.892 139.738 461.316 138.888 460.919 137.776C460.521 136.658 460.322 135.309 460.322 133.727C460.322 132.155 460.521 130.813 460.919 129.7C461.321 128.583 461.899 127.731 462.652 127.143C463.409 126.552 464.318 126.256 465.379 126.256C466.44 126.256 467.346 126.552 468.099 127.143C468.857 127.731 469.434 128.583 469.832 129.7C470.234 130.813 470.436 132.155 470.436 133.727C470.436 135.309 470.237 136.658 469.839 137.776C469.441 138.888 468.866 139.738 468.113 140.325C467.36 140.908 466.449 141.199 465.379 141.199ZM465.379 139.636C466.44 139.636 467.263 139.125 467.85 138.102C468.438 137.08 468.731 135.621 468.731 133.727C468.731 132.468 468.596 131.395 468.326 130.51C468.061 129.625 467.678 128.95 467.176 128.486C466.679 128.022 466.08 127.79 465.379 127.79C464.328 127.79 463.506 128.308 462.914 129.345C462.323 130.377 462.027 131.838 462.027 133.727C462.027 134.987 462.159 136.057 462.424 136.938C462.69 137.818 463.071 138.488 463.568 138.947C464.07 139.407 464.673 139.636 465.379 139.636ZM473.135 141V139.722L477.936 134.466C478.499 133.85 478.963 133.315 479.328 132.861C479.692 132.402 479.962 131.971 480.137 131.568C480.317 131.161 480.407 130.735 480.407 130.29C480.407 129.778 480.284 129.336 480.038 128.962C479.797 128.588 479.465 128.299 479.044 128.095C478.622 127.892 478.149 127.79 477.623 127.79C477.065 127.79 476.577 127.906 476.16 128.138C475.748 128.365 475.429 128.685 475.201 129.097C474.979 129.509 474.868 129.991 474.868 130.545H473.191C473.191 129.693 473.388 128.945 473.781 128.301C474.174 127.657 474.709 127.155 475.386 126.795C476.068 126.436 476.833 126.256 477.68 126.256C478.532 126.256 479.288 126.436 479.946 126.795C480.604 127.155 481.12 127.641 481.494 128.251C481.868 128.862 482.055 129.542 482.055 130.29C482.055 130.825 481.958 131.348 481.764 131.859C481.574 132.366 481.243 132.932 480.77 133.557C480.301 134.177 479.65 134.935 478.816 135.83L475.549 139.324V139.438H482.311V141H473.135ZM495.443 131C495.287 130.522 495.081 130.093 494.825 129.714C494.574 129.331 494.273 129.004 493.923 128.734C493.577 128.464 493.184 128.259 492.744 128.116C492.304 127.974 491.821 127.903 491.295 127.903C490.433 127.903 489.65 128.126 488.944 128.571C488.239 129.016 487.678 129.672 487.261 130.538C486.844 131.405 486.636 132.468 486.636 133.727C486.636 134.987 486.847 136.05 487.268 136.916C487.69 137.783 488.26 138.438 488.98 138.884C489.699 139.329 490.509 139.551 491.409 139.551C492.242 139.551 492.976 139.374 493.61 139.018C494.25 138.659 494.747 138.152 495.102 137.499C495.462 136.84 495.642 136.066 495.642 135.176L496.181 135.29H491.806V133.727H497.346V135.29C497.346 136.488 497.091 137.529 496.579 138.415C496.073 139.3 495.372 139.987 494.477 140.474C493.587 140.957 492.564 141.199 491.409 141.199C490.121 141.199 488.989 140.896 488.014 140.29C487.043 139.684 486.286 138.822 485.741 137.705C485.201 136.587 484.931 135.261 484.931 133.727C484.931 132.577 485.085 131.542 485.393 130.624C485.706 129.7 486.146 128.914 486.714 128.266C487.282 127.617 487.955 127.12 488.731 126.774C489.508 126.429 490.362 126.256 491.295 126.256C492.062 126.256 492.777 126.372 493.44 126.604C494.108 126.831 494.702 127.155 495.223 127.577C495.748 127.993 496.186 128.493 496.537 129.075C496.887 129.653 497.128 130.295 497.261 131H495.443Z" fill="black"/>
<path d="M74.9382 91.6662L89.4735 89.3437C95.2449 88.4215 100.472 92.88 100.472 98.7247V109.908C100.472 115.619 95.4692 120.04 89.8016 119.336L75.6227 117.575C71.0446 117.006 67.5367 113.231 67.3055 108.623L66.9491 101.523C66.706 96.6802 70.1497 92.4313 74.9382 91.6662Z" stroke="black"/>
<rect x="0.560887" y="0.40664" width="37.2459" height="4.57246" transform="matrix(0.984173 -0.177208 0.1376 0.990488 62.034 88.1479)" stroke="black"/>
<rect x="0.504265" y="-0.494413" width="27.2285" height="4.01579" rx="2.00789" transform="matrix(0.00859242 -0.999963 0.999938 0.0111364 61.9943 119.102)" stroke="black"/>
<rect x="0.46388" y="0.543039" width="37.6883" height="4.58421" transform="matrix(0.996084 0.0884141 -0.0683233 0.997663 64.5023 116.969)" stroke="black"/>
<path d="M70.9382 154.666L85.4735 152.344C91.2449 151.422 96.4724 155.88 96.4724 161.725V172.908C96.4724 178.619 91.4692 183.04 85.8016 182.336L71.6227 180.575C67.0446 180.006 63.5367 176.231 63.3055 171.623L62.9491 164.523C62.706 159.68 66.1497 155.431 70.9382 154.666Z" stroke="black"/>
<rect x="0.560887" y="0.40664" width="37.2459" height="4.57246" transform="matrix(0.984173 -0.177208 0.1376 0.990488 62.034 150.881)" stroke="black"/>
<rect x="0.504265" y="-0.494413" width="27.2285" height="4.01579" rx="2.00789" transform="matrix(0.00859242 -0.999963 0.999938 0.0111364 58.9943 182.835)" stroke="black"/>
<rect x="0.46388" y="0.543039" width="37.6883" height="4.58421" transform="matrix(0.996084 0.0884141 -0.0683233 0.997663 64.5023 179.701)" stroke="black"/>
<path d="M250.119 116.054L235.542 118.098C229.754 118.909 224.612 114.351 224.724 108.508L224.939 97.3263C225.048 91.6162 230.135 87.2926 235.788 88.105L249.931 90.1374C254.497 90.7936 257.932 94.6354 258.075 99.2465L258.295 106.352C258.445 111.199 254.921 115.381 250.119 116.054Z" stroke="black"/>
<rect x="-0.552991" y="-0.417314" width="37.2459" height="4.57246" transform="matrix(-0.987389 0.158314 -0.118593 -0.992943 260.893 119.989)" stroke="black"/>
<rect x="-0.513648" y="0.484659" width="27.2285" height="4.01579" rx="2.00789" transform="matrix(-0.0277546 0.999615 -0.999541 -0.0302976 263.673 90.7293)" stroke="black"/>
<rect x="-0.453388" y="-0.551829" width="37.6883" height="4.58421" transform="matrix(-0.994207 -0.107487 0.0874305 -0.996171 259.358 90.5782)" stroke="black"/>
<path d="M248.119 178.054L233.542 180.098C227.754 180.909 222.612 176.351 222.724 170.508L222.939 159.326C223.048 153.616 228.135 149.293 233.788 150.105L247.931 152.137C252.497 152.794 255.932 156.635 256.075 161.246L256.295 168.352C256.445 173.199 252.921 177.381 248.119 178.054Z" stroke="black"/>
<rect x="-0.552991" y="-0.417314" width="37.2459" height="4.57246" transform="matrix(-0.987389 0.158314 -0.118593 -0.992943 257.893 180.989)" stroke="black"/>
<rect x="-0.513648" y="0.484659" width="27.2285" height="4.01579" rx="2.00789" transform="matrix(-0.0277546 0.999615 -0.999541 -0.0302976 260.673 151.729)" stroke="black"/>
<rect x="-0.453388" y="-0.551829" width="37.6883" height="4.58421" transform="matrix(-0.994207 -0.107487 0.0874305 -0.996171 256.358 151.578)" stroke="black"/>
<rect x="122.5" y="82.5" width="81" height="101" stroke="black"/>
<path d="M136.358 141H134.511L139.852 126.455H141.67L147.011 141H145.165L140.818 128.756H140.705L136.358 141ZM137.04 135.318H144.483V136.881H137.04V135.318ZM153.451 126.455V141H151.69V128.301H151.605L148.054 130.659V128.869L151.69 126.455H153.451ZM162.379 141.199C161.309 141.199 160.397 140.908 159.645 140.325C158.892 139.738 158.316 138.888 157.919 137.776C157.521 136.658 157.322 135.309 157.322 133.727C157.322 132.155 157.521 130.813 157.919 129.7C158.321 128.583 158.899 127.731 159.652 127.143C160.409 126.552 161.318 126.256 162.379 126.256C163.44 126.256 164.346 126.552 165.099 127.143C165.857 127.731 166.434 128.583 166.832 129.7C167.234 130.813 167.436 132.155 167.436 133.727C167.436 135.309 167.237 136.658 166.839 137.776C166.441 138.888 165.866 139.738 165.113 140.325C164.36 140.908 163.449 141.199 162.379 141.199ZM162.379 139.636C163.44 139.636 164.263 139.125 164.85 138.102C165.438 137.08 165.731 135.621 165.731 133.727C165.731 132.468 165.596 131.395 165.326 130.51C165.061 129.625 164.678 128.95 164.176 128.486C163.679 128.022 163.08 127.79 162.379 127.79C161.328 127.79 160.506 128.308 159.914 129.345C159.323 130.377 159.027 131.838 159.027 133.727C159.027 134.987 159.159 136.057 159.424 136.938C159.69 137.818 160.071 138.488 160.568 138.947C161.07 139.407 161.673 139.636 162.379 139.636ZM175.248 126.455V141H173.487V128.301H173.402L169.85 130.659V128.869L173.487 126.455H175.248ZM189.63 131C189.474 130.522 189.268 130.093 189.012 129.714C188.761 129.331 188.461 129.004 188.11 128.734C187.765 128.464 187.372 128.259 186.931 128.116C186.491 127.974 186.008 127.903 185.483 127.903C184.621 127.903 183.837 128.126 183.132 128.571C182.426 129.016 181.865 129.672 181.449 130.538C181.032 131.405 180.824 132.468 180.824 133.727C180.824 134.987 181.034 136.05 181.456 136.916C181.877 137.783 182.448 138.438 183.167 138.884C183.887 139.329 184.697 139.551 185.596 139.551C186.43 139.551 187.163 139.374 187.798 139.018C188.437 138.659 188.934 138.152 189.289 137.499C189.649 136.84 189.829 136.066 189.829 135.176L190.369 135.29H185.994V133.727H191.534V135.29C191.534 136.488 191.278 137.529 190.767 138.415C190.26 139.3 189.559 139.987 188.664 140.474C187.774 140.957 186.752 141.199 185.596 141.199C184.308 141.199 183.177 140.896 182.201 140.29C181.231 139.684 180.473 138.822 179.929 137.705C179.389 136.587 179.119 135.261 179.119 133.727C179.119 132.577 179.273 131.542 179.581 130.624C179.893 129.7 180.333 128.914 180.902 128.266C181.47 127.617 182.142 127.12 182.919 126.774C183.695 126.429 184.55 126.256 185.483 126.256C186.25 126.256 186.965 126.372 187.627 126.604C188.295 126.831 188.889 127.155 189.41 127.577C189.936 127.993 190.374 128.493 190.724 129.075C191.074 129.653 191.316 130.295 191.449 131H189.63Z" fill="black"/>
<path d="M25.5 217.5H841.5V237.5H25.5V217.5Z" fill="#D9D9D9" stroke="black"/>
</svg>
